ISO-10303-21;
HEADER;
/* Generated by software containing ST-Developer
 * from STEP Tools, Inc. (www.steptools.com) 
 */
/* OPTION: using custom renumber hook */

FILE_DESCRIPTION(
/* description */ ('STEP AP242 Edition 2',
'CAx-IF Rec.Pracs.---Representation and Presentation of Product Manufa
cturing Information (PMI)---4.0---2014-10-13',
'CAx-IF Rec.Pracs.---3D Tessellated Geometry---0.4---2014-09-14','2;1',
'CAx-IF Rec.Pracs.---User Defined Attributes---1.5---2016-08-15'),
/* implementation_level */ '2;1');

FILE_NAME(
/* name */ 'Primary carriage - Part 3',
/* time_stamp */ '2026-10-04T09:40:09Z',
/* author */ (''),
/* organization */ (''),
/* preprocessor_version */ 'ST-DEVELOPER v20',
/* originating_system */ 'ONSHAPE BY PTC INC, 1.221',
/* authorisation */ '  ');

FILE_SCHEMA (('AP242_MANAGED_MODEL_BASED_3D_ENGINEERING_MIM_LF { 1 0 10303 442 3 1 4 }'));
ENDSEC;

DATA;
#10=SHAPE_REPRESENTATION_RELATIONSHIP('','',#611,#11);
#11=ADVANCED_BREP_SHAPE_REPRESENTATION('',(#609),#1049);
#12=CYLINDRICAL_SURFACE('',#631,0.0051);
#13=CYLINDRICAL_SURFACE('',#634,0.01);
#14=CYLINDRICAL_SURFACE('',#637,0.01);
#15=CYLINDRICAL_SURFACE('',#640,0.01);
#16=CYLINDRICAL_SURFACE('',#643,0.01);
#17=CYLINDRICAL_SURFACE('',#650,0.0051);
#18=CYLINDRICAL_SURFACE('',#653,0.01);
#19=CYLINDRICAL_SURFACE('',#656,0.01);
#20=CYLINDRICAL_SURFACE('',#659,0.01);
#21=CYLINDRICAL_SURFACE('',#662,0.01);
#22=CYLINDRICAL_SURFACE('',#669,0.015);
#23=CYLINDRICAL_SURFACE('',#670,0.015);
#24=CYLINDRICAL_SURFACE('',#671,0.007);
#25=CYLINDRICAL_SURFACE('',#672,0.007);
#26=CYLINDRICAL_SURFACE('',#673,0.005);
#27=CYLINDRICAL_SURFACE('',#677,0.0025);
#28=CYLINDRICAL_SURFACE('',#682,0.00325);
#29=CYLINDRICAL_SURFACE('',#685,0.003);
#30=LINE('',#880,#72);
#31=LINE('',#883,#73);
#32=LINE('',#885,#74);
#33=LINE('',#887,#75);
#34=LINE('',#891,#76);
#35=LINE('',#894,#77);
#36=LINE('',#896,#78);
#37=LINE('',#898,#79);
#38=LINE('',#899,#80);
#39=LINE('',#902,#81);
#40=LINE('',#904,#82);
#41=LINE('',#906,#83);
#42=LINE('',#907,#84);
#43=LINE('',#910,#85);
#44=LINE('',#912,#86);
#45=LINE('',#914,#87);
#46=LINE('',#916,#88);
#47=LINE('',#919,#89);
#48=LINE('',#921,#90);
#49=LINE('',#923,#91);
#50=LINE('',#925,#92);
#51=LINE('',#928,#93);
#52=LINE('',#930,#94);
#53=LINE('',#932,#95);
#54=LINE('',#936,#96);
#55=LINE('',#941,#97);
#56=LINE('',#944,#98);
#57=LINE('',#949,#99);
#58=LINE('',#958,#100);
#59=LINE('',#961,#101);
#60=LINE('',#963,#102);
#61=LINE('',#965,#103);
#62=LINE('',#969,#104);
#63=LINE('',#973,#105);
#64=LINE('',#993,#106);
#65=LINE('',#996,#107);
#66=LINE('',#998,#108);
#67=LINE('',#1000,#109);
#68=LINE('',#1004,#110);
#69=LINE('',#1008,#111);
#70=LINE('',#1022,#112);
#71=LINE('',#1024,#113);
#72=VECTOR('',#692,1.);
#73=VECTOR('',#693,1.);
#74=VECTOR('',#694,1.);
#75=VECTOR('',#695,1.);
#76=VECTOR('',#700,1.);
#77=VECTOR('',#701,1.);
#78=VECTOR('',#702,1.);
#79=VECTOR('',#703,1.);
#80=VECTOR('',#704,1.);
#81=VECTOR('',#705,1.);
#82=VECTOR('',#706,1.);
#83=VECTOR('',#707,1.);
#84=VECTOR('',#708,1.);
#85=VECTOR('',#709,1.);
#86=VECTOR('',#710,1.);
#87=VECTOR('',#711,1.);
#88=VECTOR('',#714,1.);
#89=VECTOR('',#715,1.);
#90=VECTOR('',#716,1.);
#91=VECTOR('',#717,1.);
#92=VECTOR('',#720,1.);
#93=VECTOR('',#721,1.);
#94=VECTOR('',#722,1.);
#95=VECTOR('',#723,1.);
#96=VECTOR('',#730,1.);
#97=VECTOR('',#735,1.);
#98=VECTOR('',#740,1.);
#99=VECTOR('',#745,1.);
#100=VECTOR('',#758,1.);
#101=VECTOR('',#759,1.);
#102=VECTOR('',#760,1.);
#103=VECTOR('',#761,1.);
#104=VECTOR('',#766,1.);
#105=VECTOR('',#771,1.);
#106=VECTOR('',#802,1.);
#107=VECTOR('',#803,1.);
#108=VECTOR('',#804,1.);
#109=VECTOR('',#805,1.);
#110=VECTOR('',#810,1.);
#111=VECTOR('',#815,1.);
#112=VECTOR('',#838,1.);
#113=VECTOR('',#841,1.);
#114=ORIENTED_EDGE('',*,*,#270,.F.);
#115=ORIENTED_EDGE('',*,*,#271,.T.);
#116=ORIENTED_EDGE('',*,*,#272,.T.);
#117=ORIENTED_EDGE('',*,*,#273,.F.);
#118=ORIENTED_EDGE('',*,*,#274,.T.);
#119=ORIENTED_EDGE('',*,*,#275,.F.);
#120=ORIENTED_EDGE('',*,*,#276,.F.);
#121=ORIENTED_EDGE('',*,*,#277,.T.);
#122=ORIENTED_EDGE('',*,*,#278,.F.);
#123=ORIENTED_EDGE('',*,*,#279,.F.);
#124=ORIENTED_EDGE('',*,*,#280,.T.);
#125=ORIENTED_EDGE('',*,*,#281,.T.);
#126=ORIENTED_EDGE('',*,*,#282,.T.);
#127=ORIENTED_EDGE('',*,*,#283,.T.);
#128=ORIENTED_EDGE('',*,*,#284,.T.);
#129=ORIENTED_EDGE('',*,*,#285,.T.);
#130=ORIENTED_EDGE('',*,*,#286,.F.);
#131=ORIENTED_EDGE('',*,*,#287,.T.);
#132=ORIENTED_EDGE('',*,*,#288,.F.);
#133=ORIENTED_EDGE('',*,*,#289,.T.);
#134=ORIENTED_EDGE('',*,*,#290,.T.);
#135=ORIENTED_EDGE('',*,*,#291,.F.);
#136=ORIENTED_EDGE('',*,*,#292,.F.);
#137=ORIENTED_EDGE('',*,*,#293,.T.);
#138=ORIENTED_EDGE('',*,*,#294,.T.);
#139=ORIENTED_EDGE('',*,*,#295,.T.);
#140=ORIENTED_EDGE('',*,*,#294,.F.);
#141=ORIENTED_EDGE('',*,*,#296,.T.);
#142=ORIENTED_EDGE('',*,*,#280,.F.);
#143=ORIENTED_EDGE('',*,*,#297,.T.);
#144=ORIENTED_EDGE('',*,*,#288,.T.);
#145=ORIENTED_EDGE('',*,*,#298,.T.);
#146=ORIENTED_EDGE('',*,*,#299,.T.);
#147=ORIENTED_EDGE('',*,*,#273,.T.);
#148=ORIENTED_EDGE('',*,*,#300,.T.);
#149=ORIENTED_EDGE('',*,*,#301,.T.);
#150=ORIENTED_EDGE('',*,*,#282,.F.);
#151=ORIENTED_EDGE('',*,*,#302,.T.);
#152=ORIENTED_EDGE('',*,*,#292,.T.);
#153=ORIENTED_EDGE('',*,*,#303,.F.);
#154=ORIENTED_EDGE('',*,*,#304,.T.);
#155=ORIENTED_EDGE('',*,*,#271,.F.);
#156=ORIENTED_EDGE('',*,*,#305,.T.);
#157=ORIENTED_EDGE('',*,*,#306,.F.);
#158=ORIENTED_EDGE('',*,*,#290,.F.);
#159=ORIENTED_EDGE('',*,*,#307,.T.);
#160=ORIENTED_EDGE('',*,*,#308,.F.);
#161=ORIENTED_EDGE('',*,*,#308,.T.);
#162=ORIENTED_EDGE('',*,*,#309,.F.);
#163=ORIENTED_EDGE('',*,*,#310,.T.);
#164=ORIENTED_EDGE('',*,*,#311,.T.);
#165=ORIENTED_EDGE('',*,*,#312,.F.);
#166=ORIENTED_EDGE('',*,*,#313,.T.);
#167=ORIENTED_EDGE('',*,*,#311,.F.);
#168=ORIENTED_EDGE('',*,*,#314,.F.);
#169=ORIENTED_EDGE('',*,*,#315,.F.);
#170=ORIENTED_EDGE('',*,*,#316,.F.);
#171=ORIENTED_EDGE('',*,*,#317,.F.);
#172=ORIENTED_EDGE('',*,*,#318,.F.);
#173=ORIENTED_EDGE('',*,*,#313,.F.);
#174=ORIENTED_EDGE('',*,*,#319,.F.);
#175=ORIENTED_EDGE('',*,*,#320,.F.);
#176=ORIENTED_EDGE('',*,*,#317,.T.);
#177=ORIENTED_EDGE('',*,*,#321,.F.);
#178=ORIENTED_EDGE('',*,*,#287,.F.);
#179=ORIENTED_EDGE('',*,*,#322,.F.);
#180=ORIENTED_EDGE('',*,*,#285,.F.);
#181=ORIENTED_EDGE('',*,*,#323,.F.);
#182=ORIENTED_EDGE('',*,*,#315,.T.);
#183=ORIENTED_EDGE('',*,*,#312,.T.);
#184=ORIENTED_EDGE('',*,*,#316,.T.);
#185=ORIENTED_EDGE('',*,*,#323,.T.);
#186=ORIENTED_EDGE('',*,*,#284,.F.);
#187=ORIENTED_EDGE('',*,*,#321,.T.);
#188=ORIENTED_EDGE('',*,*,#319,.T.);
#189=ORIENTED_EDGE('',*,*,#309,.T.);
#190=ORIENTED_EDGE('',*,*,#286,.T.);
#191=ORIENTED_EDGE('',*,*,#322,.T.);
#192=ORIENTED_EDGE('',*,*,#314,.T.);
#193=ORIENTED_EDGE('',*,*,#310,.F.);
#194=ORIENTED_EDGE('',*,*,#318,.T.);
#195=ORIENTED_EDGE('',*,*,#320,.T.);
#196=ORIENTED_EDGE('',*,*,#324,.T.);
#197=ORIENTED_EDGE('',*,*,#324,.F.);
#198=ORIENTED_EDGE('',*,*,#325,.T.);
#199=ORIENTED_EDGE('',*,*,#326,.F.);
#200=ORIENTED_EDGE('',*,*,#327,.F.);
#201=ORIENTED_EDGE('',*,*,#328,.T.);
#202=ORIENTED_EDGE('',*,*,#329,.F.);
#203=ORIENTED_EDGE('',*,*,#329,.T.);
#204=ORIENTED_EDGE('',*,*,#330,.T.);
#205=ORIENTED_EDGE('',*,*,#331,.T.);
#206=ORIENTED_EDGE('',*,*,#332,.T.);
#207=ORIENTED_EDGE('',*,*,#333,.T.);
#208=ORIENTED_EDGE('',*,*,#334,.T.);
#209=ORIENTED_EDGE('',*,*,#327,.T.);
#210=ORIENTED_EDGE('',*,*,#335,.T.);
#211=ORIENTED_EDGE('',*,*,#336,.T.);
#212=ORIENTED_EDGE('',*,*,#331,.F.);
#213=ORIENTED_EDGE('',*,*,#337,.T.);
#214=ORIENTED_EDGE('',*,*,#278,.T.);
#215=ORIENTED_EDGE('',*,*,#338,.T.);
#216=ORIENTED_EDGE('',*,*,#276,.T.);
#217=ORIENTED_EDGE('',*,*,#339,.T.);
#218=ORIENTED_EDGE('',*,*,#333,.F.);
#219=ORIENTED_EDGE('',*,*,#277,.F.);
#220=ORIENTED_EDGE('',*,*,#338,.F.);
#221=ORIENTED_EDGE('',*,*,#335,.F.);
#222=ORIENTED_EDGE('',*,*,#326,.T.);
#223=ORIENTED_EDGE('',*,*,#332,.F.);
#224=ORIENTED_EDGE('',*,*,#336,.F.);
#225=ORIENTED_EDGE('',*,*,#328,.F.);
#226=ORIENTED_EDGE('',*,*,#334,.F.);
#227=ORIENTED_EDGE('',*,*,#339,.F.);
#228=ORIENTED_EDGE('',*,*,#279,.T.);
#229=ORIENTED_EDGE('',*,*,#337,.F.);
#230=ORIENTED_EDGE('',*,*,#330,.F.);
#231=ORIENTED_EDGE('',*,*,#325,.F.);
#232=ORIENTED_EDGE('',*,*,#301,.F.);
#233=ORIENTED_EDGE('',*,*,#340,.T.);
#234=ORIENTED_EDGE('',*,*,#303,.T.);
#235=ORIENTED_EDGE('',*,*,#295,.F.);
#236=ORIENTED_EDGE('',*,*,#341,.F.);
#237=ORIENTED_EDGE('',*,*,#298,.F.);
#238=ORIENTED_EDGE('',*,*,#291,.T.);
#239=ORIENTED_EDGE('',*,*,#306,.T.);
#240=ORIENTED_EDGE('',*,*,#300,.F.);
#241=ORIENTED_EDGE('',*,*,#272,.F.);
#242=ORIENTED_EDGE('',*,*,#304,.F.);
#243=ORIENTED_EDGE('',*,*,#340,.F.);
#244=ORIENTED_EDGE('',*,*,#299,.F.);
#245=ORIENTED_EDGE('',*,*,#341,.T.);
#246=ORIENTED_EDGE('',*,*,#305,.F.);
#247=ORIENTED_EDGE('',*,*,#274,.F.);
#248=ORIENTED_EDGE('',*,*,#296,.F.);
#249=ORIENTED_EDGE('',*,*,#293,.F.);
#250=ORIENTED_EDGE('',*,*,#302,.F.);
#251=ORIENTED_EDGE('',*,*,#281,.F.);
#252=ORIENTED_EDGE('',*,*,#297,.F.);
#253=ORIENTED_EDGE('',*,*,#283,.F.);
#254=ORIENTED_EDGE('',*,*,#307,.F.);
#255=ORIENTED_EDGE('',*,*,#289,.F.);
#256=ORIENTED_EDGE('',*,*,#342,.F.);
#257=ORIENTED_EDGE('',*,*,#275,.T.);
#258=ORIENTED_EDGE('',*,*,#343,.F.);
#259=ORIENTED_EDGE('',*,*,#342,.T.);
#260=ORIENTED_EDGE('',*,*,#344,.T.);
#261=ORIENTED_EDGE('',*,*,#345,.T.);
#262=ORIENTED_EDGE('',*,*,#344,.F.);
#263=ORIENTED_EDGE('',*,*,#346,.T.);
#264=ORIENTED_EDGE('',*,*,#343,.T.);
#265=ORIENTED_EDGE('',*,*,#346,.F.);
#266=ORIENTED_EDGE('',*,*,#347,.T.);
#267=ORIENTED_EDGE('',*,*,#345,.F.);
#268=ORIENTED_EDGE('',*,*,#270,.T.);
#269=ORIENTED_EDGE('',*,*,#347,.F.);
#270=EDGE_CURVE('',#348,#348,#404,.T.);
#271=EDGE_CURVE('',#349,#350,#30,.T.);
#272=EDGE_CURVE('',#350,#351,#31,.F.);
#273=EDGE_CURVE('',#352,#351,#32,.T.);
#274=EDGE_CURVE('',#352,#349,#33,.T.);
#275=EDGE_CURVE('',#353,#353,#405,.T.);
#276=EDGE_CURVE('',#354,#355,#34,.T.);
#277=EDGE_CURVE('',#354,#356,#35,.T.);
#278=EDGE_CURVE('',#357,#356,#36,.F.);
#279=EDGE_CURVE('',#355,#357,#37,.T.);
#280=EDGE_CURVE('',#358,#359,#38,.T.);
#281=EDGE_CURVE('',#359,#360,#39,.T.);
#282=EDGE_CURVE('',#360,#361,#40,.T.);
#283=EDGE_CURVE('',#361,#358,#41,.T.);
#284=EDGE_CURVE('',#362,#363,#42,.T.);
#285=EDGE_CURVE('',#363,#364,#43,.F.);
#286=EDGE_CURVE('',#365,#364,#44,.T.);
#287=EDGE_CURVE('',#365,#362,#45,.T.);
#288=EDGE_CURVE('',#366,#367,#46,.T.);
#289=EDGE_CURVE('',#366,#368,#47,.F.);
#290=EDGE_CURVE('',#368,#369,#48,.T.);
#291=EDGE_CURVE('',#367,#369,#49,.T.);
#292=EDGE_CURVE('',#370,#371,#50,.T.);
#293=EDGE_CURVE('',#370,#372,#51,.F.);
#294=EDGE_CURVE('',#372,#373,#52,.T.);
#295=EDGE_CURVE('',#373,#371,#53,.T.);
#296=EDGE_CURVE('',#372,#359,#406,.F.);
#297=EDGE_CURVE('',#358,#366,#407,.F.);
#298=EDGE_CURVE('',#367,#374,#54,.T.);
#299=EDGE_CURVE('',#374,#352,#408,.T.);
#300=EDGE_CURVE('',#351,#375,#409,.T.);
#301=EDGE_CURVE('',#375,#373,#55,.T.);
#302=EDGE_CURVE('',#360,#370,#410,.T.);
#303=EDGE_CURVE('',#376,#371,#56,.T.);
#304=EDGE_CURVE('',#376,#350,#411,.F.);
#305=EDGE_CURVE('',#349,#377,#412,.F.);
#306=EDGE_CURVE('',#369,#377,#57,.T.);
#307=EDGE_CURVE('',#368,#361,#413,.T.);
#308=EDGE_CURVE('',#378,#378,#414,.T.);
#309=EDGE_CURVE('',#379,#379,#415,.T.);
#310=EDGE_CURVE('',#380,#381,#58,.T.);
#311=EDGE_CURVE('',#381,#382,#59,.T.);
#312=EDGE_CURVE('',#383,#382,#60,.T.);
#313=EDGE_CURVE('',#383,#380,#61,.F.);
#314=EDGE_CURVE('',#384,#381,#416,.T.);
#315=EDGE_CURVE('',#385,#384,#62,.F.);
#316=EDGE_CURVE('',#382,#385,#417,.F.);
#317=EDGE_CURVE('',#386,#387,#63,.T.);
#318=EDGE_CURVE('',#380,#386,#418,.T.);
#319=EDGE_CURVE('',#387,#383,#419,.F.);
#320=EDGE_CURVE('',#386,#365,#420,.F.);
#321=EDGE_CURVE('',#362,#387,#421,.T.);
#322=EDGE_CURVE('',#364,#384,#422,.F.);
#323=EDGE_CURVE('',#385,#363,#423,.T.);
#324=EDGE_CURVE('',#388,#388,#424,.T.);
#325=EDGE_CURVE('',#389,#389,#425,.T.);
#326=EDGE_CURVE('',#390,#391,#64,.T.);
#327=EDGE_CURVE('',#392,#390,#65,.F.);
#328=EDGE_CURVE('',#392,#393,#66,.T.);
#329=EDGE_CURVE('',#391,#393,#67,.T.);
#330=EDGE_CURVE('',#393,#394,#426,.F.);
#331=EDGE_CURVE('',#394,#395,#68,.F.);
#332=EDGE_CURVE('',#395,#391,#427,.T.);
#333=EDGE_CURVE('',#396,#397,#69,.T.);
#334=EDGE_CURVE('',#397,#392,#428,.F.);
#335=EDGE_CURVE('',#390,#396,#429,.T.);
#336=EDGE_CURVE('',#356,#395,#430,.F.);
#337=EDGE_CURVE('',#394,#357,#431,.T.);
#338=EDGE_CURVE('',#396,#354,#432,.F.);
#339=EDGE_CURVE('',#355,#397,#433,.T.);
#340=EDGE_CURVE('',#375,#376,#70,.T.);
#341=EDGE_CURVE('',#374,#377,#71,.T.);
#342=EDGE_CURVE('',#398,#398,#434,.T.);
#343=EDGE_CURVE('',#399,#399,#435,.T.);
#344=EDGE_CURVE('',#400,#400,#436,.T.);
#345=EDGE_CURVE('',#401,#401,#437,.F.);
#346=EDGE_CURVE('',#402,#402,#438,.T.);
#347=EDGE_CURVE('',#403,#403,#439,.F.);
#348=VERTEX_POINT('',#879);
#349=VERTEX_POINT('',#881);
#350=VERTEX_POINT('',#882);
#351=VERTEX_POINT('',#884);
#352=VERTEX_POINT('',#886);
#353=VERTEX_POINT('',#890);
#354=VERTEX_POINT('',#892);
#355=VERTEX_POINT('',#893);
#356=VERTEX_POINT('',#895);
#357=VERTEX_POINT('',#897);
#358=VERTEX_POINT('',#900);
#359=VERTEX_POINT('',#901);
#360=VERTEX_POINT('',#903);
#361=VERTEX_POINT('',#905);
#362=VERTEX_POINT('',#908);
#363=VERTEX_POINT('',#909);
#364=VERTEX_POINT('',#911);
#365=VERTEX_POINT('',#913);
#366=VERTEX_POINT('',#917);
#367=VERTEX_POINT('',#918);
#368=VERTEX_POINT('',#920);
#369=VERTEX_POINT('',#922);
#370=VERTEX_POINT('',#926);
#371=VERTEX_POINT('',#927);
#372=VERTEX_POINT('',#929);
#373=VERTEX_POINT('',#931);
#374=VERTEX_POINT('',#937);
#375=VERTEX_POINT('',#940);
#376=VERTEX_POINT('',#945);
#377=VERTEX_POINT('',#948);
#378=VERTEX_POINT('',#953);
#379=VERTEX_POINT('',#956);
#380=VERTEX_POINT('',#959);
#381=VERTEX_POINT('',#960);
#382=VERTEX_POINT('',#962);
#383=VERTEX_POINT('',#964);
#384=VERTEX_POINT('',#968);
#385=VERTEX_POINT('',#970);
#386=VERTEX_POINT('',#974);
#387=VERTEX_POINT('',#975);
#388=VERTEX_POINT('',#988);
#389=VERTEX_POINT('',#991);
#390=VERTEX_POINT('',#994);
#391=VERTEX_POINT('',#995);
#392=VERTEX_POINT('',#997);
#393=VERTEX_POINT('',#999);
#394=VERTEX_POINT('',#1003);
#395=VERTEX_POINT('',#1005);
#396=VERTEX_POINT('',#1009);
#397=VERTEX_POINT('',#1010);
#398=VERTEX_POINT('',#1031);
#399=VERTEX_POINT('',#1034);
#400=VERTEX_POINT('',#1037);
#401=VERTEX_POINT('',#1039);
#402=VERTEX_POINT('',#1042);
#403=VERTEX_POINT('',#1046);
#404=CIRCLE('',#614,0.003);
#405=CIRCLE('',#616,0.005);
#406=CIRCLE('',#620,0.007);
#407=CIRCLE('',#621,0.007);
#408=CIRCLE('',#622,0.015);
#409=CIRCLE('',#623,0.015);
#410=CIRCLE('',#625,0.007);
#411=CIRCLE('',#626,0.015);
#412=CIRCLE('',#627,0.015);
#413=CIRCLE('',#628,0.007);
#414=CIRCLE('',#630,0.0051);
#415=CIRCLE('',#632,0.0051);
#416=CIRCLE('',#635,0.01);
#417=CIRCLE('',#636,0.01);
#418=CIRCLE('',#638,0.01);
#419=CIRCLE('',#639,0.01);
#420=CIRCLE('',#641,0.01);
#421=CIRCLE('',#642,0.01);
#422=CIRCLE('',#644,0.01);
#423=CIRCLE('',#645,0.01);
#424=CIRCLE('',#649,0.0051);
#425=CIRCLE('',#651,0.0051);
#426=CIRCLE('',#654,0.01);
#427=CIRCLE('',#655,0.01);
#428=CIRCLE('',#657,0.01);
#429=CIRCLE('',#658,0.01);
#430=CIRCLE('',#660,0.01);
#431=CIRCLE('',#661,0.01);
#432=CIRCLE('',#663,0.01);
#433=CIRCLE('',#664,0.01);
#434=CIRCLE('',#674,0.005);
#435=CIRCLE('',#676,0.00325);
#436=CIRCLE('',#678,0.0025);
#437=CIRCLE('',#679,0.0025);
#438=CIRCLE('',#681,0.00325);
#439=CIRCLE('',#684,0.003);
#440=EDGE_LOOP('',(#114));
#441=EDGE_LOOP('',(#115,#116,#117,#118));
#442=EDGE_LOOP('',(#119));
#443=EDGE_LOOP('',(#120,#121,#122,#123));
#444=EDGE_LOOP('',(#124,#125,#126,#127));
#445=EDGE_LOOP('',(#128,#129,#130,#131));
#446=EDGE_LOOP('',(#132,#133,#134,#135));
#447=EDGE_LOOP('',(#136,#137,#138,#139));
#448=EDGE_LOOP('',(#140,#141,#142,#143,#144,#145,#146,#147,#148,#149));
#449=EDGE_LOOP('',(#150,#151,#152,#153,#154,#155,#156,#157,#158,#159));
#450=EDGE_LOOP('',(#160));
#451=EDGE_LOOP('',(#161));
#452=EDGE_LOOP('',(#162));
#453=EDGE_LOOP('',(#163,#164,#165,#166));
#454=EDGE_LOOP('',(#167,#168,#169,#170));
#455=EDGE_LOOP('',(#171,#172,#173,#174));
#456=EDGE_LOOP('',(#175,#176,#177,#178));
#457=EDGE_LOOP('',(#179,#180,#181,#182));
#458=EDGE_LOOP('',(#183,#184,#185,#186,#187,#188));
#459=EDGE_LOOP('',(#189));
#460=EDGE_LOOP('',(#190,#191,#192,#193,#194,#195));
#461=EDGE_LOOP('',(#196));
#462=EDGE_LOOP('',(#197));
#463=EDGE_LOOP('',(#198));
#464=EDGE_LOOP('',(#199,#200,#201,#202));
#465=EDGE_LOOP('',(#203,#204,#205,#206));
#466=EDGE_LOOP('',(#207,#208,#209,#210));
#467=EDGE_LOOP('',(#211,#212,#213,#214));
#468=EDGE_LOOP('',(#215,#216,#217,#218));
#469=EDGE_LOOP('',(#219,#220,#221,#222,#223,#224));
#470=EDGE_LOOP('',(#225,#226,#227,#228,#229,#230));
#471=EDGE_LOOP('',(#231));
#472=EDGE_LOOP('',(#232,#233,#234,#235));
#473=EDGE_LOOP('',(#236,#237,#238,#239));
#474=EDGE_LOOP('',(#240,#241,#242,#243));
#475=EDGE_LOOP('',(#244,#245,#246,#247));
#476=EDGE_LOOP('',(#248,#249,#250,#251));
#477=EDGE_LOOP('',(#252,#253,#254,#255));
#478=EDGE_LOOP('',(#256));
#479=EDGE_LOOP('',(#257));
#480=EDGE_LOOP('',(#258));
#481=EDGE_LOOP('',(#259));
#482=EDGE_LOOP('',(#260));
#483=EDGE_LOOP('',(#261));
#484=EDGE_LOOP('',(#262));
#485=EDGE_LOOP('',(#263));
#486=EDGE_LOOP('',(#264));
#487=EDGE_LOOP('',(#265));
#488=EDGE_LOOP('',(#266));
#489=EDGE_LOOP('',(#267));
#490=EDGE_LOOP('',(#268));
#491=EDGE_LOOP('',(#269));
#492=FACE_BOUND('',#440,.T.);
#493=FACE_BOUND('',#441,.T.);
#494=FACE_BOUND('',#442,.T.);
#495=FACE_BOUND('',#443,.T.);
#496=FACE_BOUND('',#444,.T.);
#497=FACE_BOUND('',#445,.T.);
#498=FACE_BOUND('',#446,.T.);
#499=FACE_BOUND('',#447,.T.);
#500=FACE_BOUND('',#448,.T.);
#501=FACE_BOUND('',#449,.T.);
#502=FACE_BOUND('',#450,.T.);
#503=FACE_BOUND('',#451,.T.);
#504=FACE_BOUND('',#452,.T.);
#505=FACE_BOUND('',#453,.T.);
#506=FACE_BOUND('',#454,.T.);
#507=FACE_BOUND('',#455,.T.);
#508=FACE_BOUND('',#456,.T.);
#509=FACE_BOUND('',#457,.T.);
#510=FACE_BOUND('',#458,.T.);
#511=FACE_BOUND('',#459,.T.);
#512=FACE_BOUND('',#460,.T.);
#513=FACE_BOUND('',#461,.T.);
#514=FACE_BOUND('',#462,.T.);
#515=FACE_BOUND('',#463,.T.);
#516=FACE_BOUND('',#464,.T.);
#517=FACE_BOUND('',#465,.T.);
#518=FACE_BOUND('',#466,.T.);
#519=FACE_BOUND('',#467,.T.);
#520=FACE_BOUND('',#468,.T.);
#521=FACE_BOUND('',#469,.T.);
#522=FACE_BOUND('',#470,.T.);
#523=FACE_BOUND('',#471,.T.);
#524=FACE_BOUND('',#472,.T.);
#525=FACE_BOUND('',#473,.T.);
#526=FACE_BOUND('',#474,.T.);
#527=FACE_BOUND('',#475,.T.);
#528=FACE_BOUND('',#476,.T.);
#529=FACE_BOUND('',#477,.T.);
#530=FACE_BOUND('',#478,.T.);
#531=FACE_BOUND('',#479,.T.);
#532=FACE_BOUND('',#480,.T.);
#533=FACE_BOUND('',#481,.T.);
#534=FACE_BOUND('',#482,.T.);
#535=FACE_BOUND('',#483,.T.);
#536=FACE_BOUND('',#484,.T.);
#537=FACE_BOUND('',#485,.T.);
#538=FACE_BOUND('',#486,.T.);
#539=FACE_BOUND('',#487,.T.);
#540=FACE_BOUND('',#488,.T.);
#541=FACE_BOUND('',#489,.T.);
#542=FACE_BOUND('',#490,.T.);
#543=FACE_BOUND('',#491,.T.);
#544=PLANE('',#613);
#545=PLANE('',#615);
#546=PLANE('',#617);
#547=PLANE('',#618);
#548=PLANE('',#619);
#549=PLANE('',#624);
#550=PLANE('',#629);
#551=PLANE('',#633);
#552=PLANE('',#646);
#553=PLANE('',#647);
#554=PLANE('',#648);
#555=PLANE('',#652);
#556=PLANE('',#665);
#557=PLANE('',#666);
#558=PLANE('',#667);
#559=PLANE('',#668);
#560=PLANE('',#675);
#561=PLANE('',#680);
#562=PLANE('',#683);
#563=ADVANCED_FACE('',(#492,#493),#544,.F.);
#564=ADVANCED_FACE('',(#494,#495,#496,#497),#545,.T.);
#565=ADVANCED_FACE('',(#498),#546,.T.);
#566=ADVANCED_FACE('',(#499),#547,.F.);
#567=ADVANCED_FACE('',(#500),#548,.F.);
#568=ADVANCED_FACE('',(#501),#549,.T.);
#569=ADVANCED_FACE('',(#502),#550,.F.);
#570=ADVANCED_FACE('',(#503,#504),#12,.F.);
#571=ADVANCED_FACE('',(#505),#551,.T.);
#572=ADVANCED_FACE('',(#506),#13,.T.);
#573=ADVANCED_FACE('',(#507),#14,.T.);
#574=ADVANCED_FACE('',(#508),#15,.F.);
#575=ADVANCED_FACE('',(#509),#16,.F.);
#576=ADVANCED_FACE('',(#510,#511),#552,.F.);
#577=ADVANCED_FACE('',(#512),#553,.T.);
#578=ADVANCED_FACE('',(#513),#554,.F.);
#579=ADVANCED_FACE('',(#514,#515),#17,.F.);
#580=ADVANCED_FACE('',(#516),#555,.T.);
#581=ADVANCED_FACE('',(#517),#18,.T.);
#582=ADVANCED_FACE('',(#518),#19,.T.);
#583=ADVANCED_FACE('',(#519),#20,.F.);
#584=ADVANCED_FACE('',(#520),#21,.F.);
#585=ADVANCED_FACE('',(#521),#556,.T.);
#586=ADVANCED_FACE('',(#522,#523),#557,.F.);
#587=ADVANCED_FACE('',(#524),#558,.T.);
#588=ADVANCED_FACE('',(#525),#559,.T.);
#589=ADVANCED_FACE('',(#526),#22,.F.);
#590=ADVANCED_FACE('',(#527),#23,.F.);
#591=ADVANCED_FACE('',(#528),#24,.T.);
#592=ADVANCED_FACE('',(#529),#25,.T.);
#593=ADVANCED_FACE('',(#530,#531),#26,.T.);
#594=ADVANCED_FACE('',(#532,#533),#560,.T.);
#595=ADVANCED_FACE('',(#534,#535),#27,.F.);
#596=ADVANCED_FACE('',(#536,#537),#561,.T.);
#597=ADVANCED_FACE('',(#538,#539),#28,.T.);
#598=ADVANCED_FACE('',(#540,#541),#562,.F.);
#599=ADVANCED_FACE('',(#542,#543),#29,.F.);
#600=CLOSED_SHELL('',(#563,#564,#565,#566,#567,#568,#569,#570,#571,#572,
#573,#574,#575,#576,#577,#578,#579,#580,#581,#582,#583,#584,#585,#586,#587,
#588,#589,#590,#591,#592,#593,#594,#595,#596,#597,#598,#599));
#601=STYLED_ITEM('',(#602),#609);
#602=PRESENTATION_STYLE_ASSIGNMENT((#603));
#603=SURFACE_STYLE_USAGE(.BOTH.,#604);
#604=SURFACE_SIDE_STYLE('',(#605));
#605=SURFACE_STYLE_FILL_AREA(#606);
#606=FILL_AREA_STYLE('',(#607));
#607=FILL_AREA_STYLE_COLOUR('',#608);
#608=COLOUR_RGB('',0.615686274509804,0.811764705882353,0.929411764705882);
#609=MANIFOLD_SOLID_BREP('Part 3',#600);
#610=SHAPE_DEFINITION_REPRESENTATION(#1054,#611);
#611=SHAPE_REPRESENTATION('Part 3',(#612),#1049);
#612=AXIS2_PLACEMENT_3D('',#876,#686,#687);
#613=AXIS2_PLACEMENT_3D('',#877,#688,#689);
#614=AXIS2_PLACEMENT_3D('',#878,#690,#691);
#615=AXIS2_PLACEMENT_3D('',#888,#696,#697);
#616=AXIS2_PLACEMENT_3D('',#889,#698,#699);
#617=AXIS2_PLACEMENT_3D('',#915,#712,#713);
#618=AXIS2_PLACEMENT_3D('',#924,#718,#719);
#619=AXIS2_PLACEMENT_3D('',#933,#724,#725);
#620=AXIS2_PLACEMENT_3D('',#934,#726,#727);
#621=AXIS2_PLACEMENT_3D('',#935,#728,#729);
#622=AXIS2_PLACEMENT_3D('',#938,#731,#732);
#623=AXIS2_PLACEMENT_3D('',#939,#733,#734);
#624=AXIS2_PLACEMENT_3D('',#942,#736,#737);
#625=AXIS2_PLACEMENT_3D('',#943,#738,#739);
#626=AXIS2_PLACEMENT_3D('',#946,#741,#742);
#627=AXIS2_PLACEMENT_3D('',#947,#743,#744);
#628=AXIS2_PLACEMENT_3D('',#950,#746,#747);
#629=AXIS2_PLACEMENT_3D('',#951,#748,#749);
#630=AXIS2_PLACEMENT_3D('',#952,#750,#751);
#631=AXIS2_PLACEMENT_3D('',#954,#752,#753);
#632=AXIS2_PLACEMENT_3D('',#955,#754,#755);
#633=AXIS2_PLACEMENT_3D('',#957,#756,#757);
#634=AXIS2_PLACEMENT_3D('',#966,#762,#763);
#635=AXIS2_PLACEMENT_3D('',#967,#764,#765);
#636=AXIS2_PLACEMENT_3D('',#971,#767,#768);
#637=AXIS2_PLACEMENT_3D('',#972,#769,#770);
#638=AXIS2_PLACEMENT_3D('',#976,#772,#773);
#639=AXIS2_PLACEMENT_3D('',#977,#774,#775);
#640=AXIS2_PLACEMENT_3D('',#978,#776,#777);
#641=AXIS2_PLACEMENT_3D('',#979,#778,#779);
#642=AXIS2_PLACEMENT_3D('',#980,#780,#781);
#643=AXIS2_PLACEMENT_3D('',#981,#782,#783);
#644=AXIS2_PLACEMENT_3D('',#982,#784,#785);
#645=AXIS2_PLACEMENT_3D('',#983,#786,#787);
#646=AXIS2_PLACEMENT_3D('',#984,#788,#789);
#647=AXIS2_PLACEMENT_3D('',#985,#790,#791);
#648=AXIS2_PLACEMENT_3D('',#986,#792,#793);
#649=AXIS2_PLACEMENT_3D('',#987,#794,#795);
#650=AXIS2_PLACEMENT_3D('',#989,#796,#797);
#651=AXIS2_PLACEMENT_3D('',#990,#798,#799);
#652=AXIS2_PLACEMENT_3D('',#992,#800,#801);
#653=AXIS2_PLACEMENT_3D('',#1001,#806,#807);
#654=AXIS2_PLACEMENT_3D('',#1002,#808,#809);
#655=AXIS2_PLACEMENT_3D('',#1006,#811,#812);
#656=AXIS2_PLACEMENT_3D('',#1007,#813,#814);
#657=AXIS2_PLACEMENT_3D('',#1011,#816,#817);
#658=AXIS2_PLACEMENT_3D('',#1012,#818,#819);
#659=AXIS2_PLACEMENT_3D('',#1013,#820,#821);
#660=AXIS2_PLACEMENT_3D('',#1014,#822,#823);
#661=AXIS2_PLACEMENT_3D('',#1015,#824,#825);
#662=AXIS2_PLACEMENT_3D('',#1016,#826,#827);
#663=AXIS2_PLACEMENT_3D('',#1017,#828,#829);
#664=AXIS2_PLACEMENT_3D('',#1018,#830,#831);
#665=AXIS2_PLACEMENT_3D('',#1019,#832,#833);
#666=AXIS2_PLACEMENT_3D('',#1020,#834,#835);
#667=AXIS2_PLACEMENT_3D('',#1021,#836,#837);
#668=AXIS2_PLACEMENT_3D('',#1023,#839,#840);
#669=AXIS2_PLACEMENT_3D('',#1025,#842,#843);
#670=AXIS2_PLACEMENT_3D('',#1026,#844,#845);
#671=AXIS2_PLACEMENT_3D('',#1027,#846,#847);
#672=AXIS2_PLACEMENT_3D('',#1028,#848,#849);
#673=AXIS2_PLACEMENT_3D('',#1029,#850,#851);
#674=AXIS2_PLACEMENT_3D('',#1030,#852,#853);
#675=AXIS2_PLACEMENT_3D('',#1032,#854,#855);
#676=AXIS2_PLACEMENT_3D('',#1033,#856,#857);
#677=AXIS2_PLACEMENT_3D('',#1035,#858,#859);
#678=AXIS2_PLACEMENT_3D('',#1036,#860,#861);
#679=AXIS2_PLACEMENT_3D('',#1038,#862,#863);
#680=AXIS2_PLACEMENT_3D('',#1040,#864,#865);
#681=AXIS2_PLACEMENT_3D('',#1041,#866,#867);
#682=AXIS2_PLACEMENT_3D('',#1043,#868,#869);
#683=AXIS2_PLACEMENT_3D('',#1044,#870,#871);
#684=AXIS2_PLACEMENT_3D('',#1045,#872,#873);
#685=AXIS2_PLACEMENT_3D('',#1047,#874,#875);
#686=DIRECTION('',(0.,0.,1.));
#687=DIRECTION('',(1.,0.,0.));
#688=DIRECTION('',(0.,0.,1.));
#689=DIRECTION('',(1.,0.,0.));
#690=DIRECTION('',(0.,0.,-1.));
#691=DIRECTION('',(1.,0.,0.));
#692=DIRECTION('',(0.,-1.,0.));
#693=DIRECTION('',(1.,0.,0.));
#694=DIRECTION('',(0.,-1.,0.));
#695=DIRECTION('',(1.,0.,0.));
#696=DIRECTION('',(0.,0.,1.));
#697=DIRECTION('',(1.,0.,0.));
#698=DIRECTION('',(0.,0.,1.));
#699=DIRECTION('',(1.,0.,0.));
#700=DIRECTION('',(-1.,0.,0.));
#701=DIRECTION('',(0.,-1.,8.5877399800832E-17));
#702=DIRECTION('',(-1.,0.,0.));
#703=DIRECTION('',(0.,-1.,8.5877399800832E-17));
#704=DIRECTION('',(0.,-1.,0.));
#705=DIRECTION('',(1.,0.,0.));
#706=DIRECTION('',(0.,1.,0.));
#707=DIRECTION('',(-1.,0.,0.));
#708=DIRECTION('',(0.,1.,8.5877399800832E-17));
#709=DIRECTION('',(-1.,0.,0.));
#710=DIRECTION('',(0.,1.,8.5877399800832E-17));
#711=DIRECTION('',(-1.,0.,0.));
#712=DIRECTION('',(0.,0.5,0.866025403784439));
#713=DIRECTION('',(0.,-0.866025403784439,0.5));
#714=DIRECTION('',(0.,0.866025403784439,-0.5));
#715=DIRECTION('',(-1.,0.,0.));
#716=DIRECTION('',(0.,0.866025403784439,-0.5));
#717=DIRECTION('',(1.,0.,0.));
#718=DIRECTION('',(0.,1.,0.));
#719=DIRECTION('',(0.,0.,1.));
#720=DIRECTION('',(0.,0.,-1.));
#721=DIRECTION('',(1.,0.,0.));
#722=DIRECTION('',(0.,0.,-1.));
#723=DIRECTION('',(1.,0.,0.));
#724=DIRECTION('',(1.,0.,0.));
#725=DIRECTION('',(0.,0.,-1.));
#726=DIRECTION('',(1.,0.,0.));
#727=DIRECTION('',(0.,0.,-1.));
#728=DIRECTION('',(1.,0.,0.));
#729=DIRECTION('',(0.,0.,-1.));
#730=DIRECTION('',(0.,-1.,0.));
#731=DIRECTION('',(1.,0.,0.));
#732=DIRECTION('',(0.,0.,-1.));
#733=DIRECTION('',(1.,0.,0.));
#734=DIRECTION('',(0.,0.,-1.));
#735=DIRECTION('',(0.,-1.,0.));
#736=DIRECTION('',(1.,0.,0.));
#737=DIRECTION('',(0.,0.,-1.));
#738=DIRECTION('',(1.,0.,0.));
#739=DIRECTION('',(0.,0.,-1.));
#740=DIRECTION('',(0.,-1.,0.));
#741=DIRECTION('',(1.,0.,0.));
#742=DIRECTION('',(0.,0.,-1.));
#743=DIRECTION('',(1.,0.,0.));
#744=DIRECTION('',(0.,0.,-1.));
#745=DIRECTION('',(0.,-1.,0.));
#746=DIRECTION('',(1.,0.,0.));
#747=DIRECTION('',(0.,0.,-1.));
#748=DIRECTION('',(1.,0.,0.));
#749=DIRECTION('',(0.,1.,0.));
#750=DIRECTION('',(1.,0.,0.));
#751=DIRECTION('',(0.,1.,0.));
#752=DIRECTION('',(-1.,0.,0.));
#753=DIRECTION('',(0.,0.,1.));
#754=DIRECTION('',(1.,0.,0.));
#755=DIRECTION('',(0.,1.,0.));
#756=DIRECTION('',(0.,0.,1.));
#757=DIRECTION('',(1.,0.,0.));
#758=DIRECTION('',(0.,1.,0.));
#759=DIRECTION('',(-1.,0.,0.));
#760=DIRECTION('',(0.,1.,0.));
#761=DIRECTION('',(-1.,0.,0.));
#762=DIRECTION('',(1.,0.,0.));
#763=DIRECTION('',(0.,0.,-1.));
#764=DIRECTION('',(1.,0.,0.));
#765=DIRECTION('',(0.,0.,-1.));
#766=DIRECTION('',(-1.,0.,0.));
#767=DIRECTION('',(1.,0.,0.));
#768=DIRECTION('',(0.,0.,-1.));
#769=DIRECTION('',(-1.,0.,0.));
#770=DIRECTION('',(0.,0.,1.));
#771=DIRECTION('',(-1.,0.,0.));
#772=DIRECTION('',(1.,0.,0.));
#773=DIRECTION('',(0.,0.,-1.));
#774=DIRECTION('',(1.,0.,0.));
#775=DIRECTION('',(0.,0.,-1.));
#776=DIRECTION('',(1.,0.,0.));
#777=DIRECTION('',(0.,0.,-1.));
#778=DIRECTION('',(1.,0.,0.));
#779=DIRECTION('',(0.,0.,-1.));
#780=DIRECTION('',(1.,0.,0.));
#781=DIRECTION('',(0.,0.,-1.));
#782=DIRECTION('',(-1.,0.,0.));
#783=DIRECTION('',(0.,0.,1.));
#784=DIRECTION('',(1.,0.,0.));
#785=DIRECTION('',(0.,0.,-1.));
#786=DIRECTION('',(1.,0.,0.));
#787=DIRECTION('',(0.,0.,-1.));
#788=DIRECTION('',(1.,0.,0.));
#789=DIRECTION('',(0.,1.,0.));
#790=DIRECTION('',(1.,0.,0.));
#791=DIRECTION('',(0.,1.,0.));
#792=DIRECTION('',(1.,0.,0.));
#793=DIRECTION('',(0.,-1.,0.));
#794=DIRECTION('',(-1.,0.,0.));
#795=DIRECTION('',(0.,-1.,0.));
#796=DIRECTION('',(-1.,0.,0.));
#797=DIRECTION('',(0.,0.,1.));
#798=DIRECTION('',(-1.,0.,0.));
#799=DIRECTION('',(0.,-1.,0.));
#800=DIRECTION('',(0.,0.,1.));
#801=DIRECTION('',(1.,0.,0.));
#802=DIRECTION('',(0.,-1.,0.));
#803=DIRECTION('',(-1.,0.,0.));
#804=DIRECTION('',(0.,-1.,0.));
#805=DIRECTION('',(-1.,0.,0.));
#806=DIRECTION('',(1.,0.,0.));
#807=DIRECTION('',(0.,0.,-1.));
#808=DIRECTION('',(-1.,0.,0.));
#809=DIRECTION('',(0.,0.,-1.));
#810=DIRECTION('',(-1.,0.,0.));
#811=DIRECTION('',(-1.,0.,0.));
#812=DIRECTION('',(0.,0.,-1.));
#813=DIRECTION('',(-1.,0.,0.));
#814=DIRECTION('',(0.,0.,1.));
#815=DIRECTION('',(-1.,0.,0.));
#816=DIRECTION('',(-1.,0.,0.));
#817=DIRECTION('',(0.,0.,-1.));
#818=DIRECTION('',(-1.,0.,0.));
#819=DIRECTION('',(0.,0.,-1.));
#820=DIRECTION('',(-1.,0.,0.));
#821=DIRECTION('',(0.,0.,1.));
#822=DIRECTION('',(-1.,0.,0.));
#823=DIRECTION('',(0.,0.,-1.));
#824=DIRECTION('',(-1.,0.,0.));
#825=DIRECTION('',(0.,0.,-1.));
#826=DIRECTION('',(1.,0.,0.));
#827=DIRECTION('',(0.,0.,-1.));
#828=DIRECTION('',(-1.,0.,0.));
#829=DIRECTION('',(0.,0.,-1.));
#830=DIRECTION('',(-1.,0.,0.));
#831=DIRECTION('',(0.,0.,-1.));
#832=DIRECTION('',(1.,0.,0.));
#833=DIRECTION('',(0.,-1.,0.));
#834=DIRECTION('',(1.,0.,0.));
#835=DIRECTION('',(0.,-1.,0.));
#836=DIRECTION('',(0.,0.,-1.));
#837=DIRECTION('',(1.,0.,0.));
#838=DIRECTION('',(1.,0.,0.));
#839=DIRECTION('',(0.,0.,-1.));
#840=DIRECTION('',(1.,0.,0.));
#841=DIRECTION('',(1.,0.,0.));
#842=DIRECTION('',(-1.,0.,0.));
#843=DIRECTION('',(0.,0.,1.));
#844=DIRECTION('',(1.,0.,0.));
#845=DIRECTION('',(0.,0.,-1.));
#846=DIRECTION('',(-1.,0.,0.));
#847=DIRECTION('',(0.,0.,1.));
#848=DIRECTION('',(-1.,0.,0.));
#849=DIRECTION('',(0.,0.,1.));
#850=DIRECTION('',(0.,0.,-1.));
#851=DIRECTION('',(-1.,0.,0.));
#852=DIRECTION('',(0.,0.,1.));
#853=DIRECTION('',(1.,0.,0.));
#854=DIRECTION('',(0.,0.,1.));
#855=DIRECTION('',(1.,0.,0.));
#856=DIRECTION('',(0.,0.,1.));
#857=DIRECTION('',(1.,0.,0.));
#858=DIRECTION('',(0.,0.,-1.));
#859=DIRECTION('',(-1.,0.,0.));
#860=DIRECTION('',(0.,0.,1.));
#861=DIRECTION('',(1.,0.,0.));
#862=DIRECTION('',(0.,0.,1.));
#863=DIRECTION('',(1.,0.,0.));
#864=DIRECTION('',(0.,0.,1.));
#865=DIRECTION('',(1.,0.,0.));
#866=DIRECTION('',(0.,0.,1.));
#867=DIRECTION('',(1.,0.,0.));
#868=DIRECTION('',(0.,0.,-1.));
#869=DIRECTION('',(-1.,0.,0.));
#870=DIRECTION('',(0.,0.,1.));
#871=DIRECTION('',(1.,0.,0.));
#872=DIRECTION('',(0.,0.,1.));
#873=DIRECTION('',(1.,0.,0.));
#874=DIRECTION('',(0.,0.,-1.));
#875=DIRECTION('',(-1.,0.,0.));
#876=CARTESIAN_POINT('',(0.,0.,0.));
#877=CARTESIAN_POINT('',(-0.15,-0.1085,0.));
#878=CARTESIAN_POINT('',(-0.15,-0.1085,0.));
#879=CARTESIAN_POINT('',(-0.147,-0.1085,0.));
#880=CARTESIAN_POINT('',(-0.1225,-0.1085,0.));
#881=CARTESIAN_POINT('',(-0.1225,-0.076,0.));
#882=CARTESIAN_POINT('',(-0.1225,-0.141,0.));
#883=CARTESIAN_POINT('',(-0.1775,-0.141,0.));
#884=CARTESIAN_POINT('',(-0.1775,-0.141,0.));
#885=CARTESIAN_POINT('',(-0.1775,-0.1085,0.));
#886=CARTESIAN_POINT('',(-0.1775,-0.076,0.));
#887=CARTESIAN_POINT('',(-0.15,-0.076,0.));
#888=CARTESIAN_POINT('',(-0.15,-0.1085,0.015));
#889=CARTESIAN_POINT('',(-0.15,-0.1085,0.015));
#890=CARTESIAN_POINT('',(-0.145,-0.1085,0.015));
#891=CARTESIAN_POINT('',(-0.16,-0.0524,0.015));
#892=CARTESIAN_POINT('',(-0.135,-0.0524,0.015));
#893=CARTESIAN_POINT('',(-0.16,-0.0524,0.015));
#894=CARTESIAN_POINT('',(-0.135,-0.0725,0.015));
#895=CARTESIAN_POINT('',(-0.135,-0.0926,0.015));
#896=CARTESIAN_POINT('',(-0.15,-0.0926,0.015));
#897=CARTESIAN_POINT('',(-0.16,-0.0926,0.015));
#898=CARTESIAN_POINT('',(-0.16,-0.0725,0.015));
#899=CARTESIAN_POINT('',(-0.1775,-0.1085,0.015));
#900=CARTESIAN_POINT('',(-0.1775,-0.0428756443470179,0.015));
#901=CARTESIAN_POINT('',(-0.1775,-0.169,0.015));
#902=CARTESIAN_POINT('',(-0.1225,-0.169,0.015));
#903=CARTESIAN_POINT('',(-0.1225,-0.169,0.015));
#904=CARTESIAN_POINT('',(-0.1225,-0.1085,0.015));
#905=CARTESIAN_POINT('',(-0.1225,-0.0428756443470179,0.015));
#906=CARTESIAN_POINT('',(-0.15,-0.0428756443470179,0.015));
#907=CARTESIAN_POINT('',(-0.16,-0.1445,0.015));
#908=CARTESIAN_POINT('',(-0.16,-0.1646,0.015));
#909=CARTESIAN_POINT('',(-0.16,-0.1244,0.015));
#910=CARTESIAN_POINT('',(-0.15,-0.1244,0.015));
#911=CARTESIAN_POINT('',(-0.135,-0.1244,0.015));
#912=CARTESIAN_POINT('',(-0.135,-0.1445,0.015));
#913=CARTESIAN_POINT('',(-0.135,-0.1646,0.015));
#914=CARTESIAN_POINT('',(-0.16,-0.1646,0.015));
#915=CARTESIAN_POINT('',(-0.15,-0.041,0.015));
#916=CARTESIAN_POINT('',(-0.1775,-0.041,0.015));
#917=CARTESIAN_POINT('',(-0.1775,-0.0393756443470179,0.0140621778264911));
#918=CARTESIAN_POINT('',(-0.1775,0.0109615242270663,-0.015));
#919=CARTESIAN_POINT('',(-0.15,-0.0393756443470179,0.0140621778264911));
#920=CARTESIAN_POINT('',(-0.1225,-0.0393756443470179,0.0140621778264911));
#921=CARTESIAN_POINT('',(-0.1225,-0.041,0.015));
#922=CARTESIAN_POINT('',(-0.1225,0.0109615242270663,-0.015));
#923=CARTESIAN_POINT('',(-0.15,0.0109615242270663,-0.015));
#924=CARTESIAN_POINT('',(-0.15,-0.176,0.015));
#925=CARTESIAN_POINT('',(-0.1225,-0.176,0.015));
#926=CARTESIAN_POINT('',(-0.1225,-0.176,0.008));
#927=CARTESIAN_POINT('',(-0.1225,-0.176,-0.015));
#928=CARTESIAN_POINT('',(-0.1775,-0.176,0.008));
#929=CARTESIAN_POINT('',(-0.1775,-0.176,0.008));
#930=CARTESIAN_POINT('',(-0.1775,-0.176,0.015));
#931=CARTESIAN_POINT('',(-0.1775,-0.176,-0.015));
#932=CARTESIAN_POINT('',(-0.15,-0.176,-0.015));
#933=CARTESIAN_POINT('',(-0.1775,-0.1085,0.015));
#934=CARTESIAN_POINT('',(-0.1775,-0.169,0.008));
#935=CARTESIAN_POINT('',(-0.1775,-0.0428756443470179,0.008));
#936=CARTESIAN_POINT('',(-0.1775,-0.1085,-0.015));
#937=CARTESIAN_POINT('',(-0.1775,-0.061,-0.015));
#938=CARTESIAN_POINT('',(-0.1775,-0.076,-0.015));
#939=CARTESIAN_POINT('',(-0.1775,-0.141,-0.015));
#940=CARTESIAN_POINT('',(-0.1775,-0.156,-0.015));
#941=CARTESIAN_POINT('',(-0.1775,-0.1085,-0.015));
#942=CARTESIAN_POINT('',(-0.1225,-0.1085,0.015));
#943=CARTESIAN_POINT('',(-0.1225,-0.169,0.008));
#944=CARTESIAN_POINT('',(-0.1225,-0.1085,-0.015));
#945=CARTESIAN_POINT('',(-0.1225,-0.156,-0.015));
#946=CARTESIAN_POINT('',(-0.1225,-0.141,-0.015));
#947=CARTESIAN_POINT('',(-0.1225,-0.076,-0.015));
#948=CARTESIAN_POINT('',(-0.1225,-0.061,-0.015));
#949=CARTESIAN_POINT('',(-0.1225,-0.1085,-0.015));
#950=CARTESIAN_POINT('',(-0.1225,-0.0428756443470179,0.008));
#951=CARTESIAN_POINT('',(-0.14,-0.1085,0.0337443535029888));
#952=CARTESIAN_POINT('',(-0.14,-0.1445,0.025));
#953=CARTESIAN_POINT('',(-0.14,-0.1394,0.025));
#954=CARTESIAN_POINT('',(-0.14,-0.1445,0.025));
#955=CARTESIAN_POINT('',(-0.16,-0.1445,0.025));
#956=CARTESIAN_POINT('',(-0.16,-0.1394,0.025));
#957=CARTESIAN_POINT('',(-0.135,-0.1445,0.035));
#958=CARTESIAN_POINT('',(-0.135,-0.1445,0.035));
#959=CARTESIAN_POINT('',(-0.135,-0.1446,0.035));
#960=CARTESIAN_POINT('',(-0.135,-0.1444,0.035));
#961=CARTESIAN_POINT('',(-0.16,-0.1444,0.035));
#962=CARTESIAN_POINT('',(-0.16,-0.1444,0.035));
#963=CARTESIAN_POINT('',(-0.16,-0.1445,0.035));
#964=CARTESIAN_POINT('',(-0.16,-0.1446,0.035));
#965=CARTESIAN_POINT('',(-0.135,-0.1446,0.035));
#966=CARTESIAN_POINT('',(-0.135,-0.1444,0.025));
#967=CARTESIAN_POINT('',(-0.135,-0.1444,0.025));
#968=CARTESIAN_POINT('',(-0.135,-0.1344,0.025));
#969=CARTESIAN_POINT('',(-0.135,-0.1344,0.025));
#970=CARTESIAN_POINT('',(-0.16,-0.1344,0.025));
#971=CARTESIAN_POINT('',(-0.16,-0.1444,0.025));
#972=CARTESIAN_POINT('',(-0.135,-0.1446,0.025));
#973=CARTESIAN_POINT('',(-0.135,-0.1546,0.025));
#974=CARTESIAN_POINT('',(-0.135,-0.1546,0.025));
#975=CARTESIAN_POINT('',(-0.16,-0.1546,0.025));
#976=CARTESIAN_POINT('',(-0.135,-0.1446,0.025));
#977=CARTESIAN_POINT('',(-0.16,-0.1446,0.025));
#978=CARTESIAN_POINT('',(-0.15,-0.1646,0.025));
#979=CARTESIAN_POINT('',(-0.135,-0.1646,0.025));
#980=CARTESIAN_POINT('',(-0.16,-0.1646,0.025));
#981=CARTESIAN_POINT('',(-0.135,-0.1244,0.025));
#982=CARTESIAN_POINT('',(-0.135,-0.1244,0.025));
#983=CARTESIAN_POINT('',(-0.16,-0.1244,0.025));
#984=CARTESIAN_POINT('',(-0.16,-0.1085,0.0337443535029888));
#985=CARTESIAN_POINT('',(-0.135,-0.1085,0.0337443535029888));
#986=CARTESIAN_POINT('',(-0.14,-0.1085,0.0337443535029888));
#987=CARTESIAN_POINT('',(-0.14,-0.0725,0.025));
#988=CARTESIAN_POINT('',(-0.14,-0.0776,0.025));
#989=CARTESIAN_POINT('',(-0.14,-0.0725,0.025));
#990=CARTESIAN_POINT('',(-0.16,-0.0725,0.025));
#991=CARTESIAN_POINT('',(-0.16,-0.0776,0.025));
#992=CARTESIAN_POINT('',(-0.135,-0.0725,0.035));
#993=CARTESIAN_POINT('',(-0.135,-0.0725,0.035));
#994=CARTESIAN_POINT('',(-0.135,-0.0724,0.035));
#995=CARTESIAN_POINT('',(-0.135,-0.0726,0.035));
#996=CARTESIAN_POINT('',(-0.135,-0.0724,0.035));
#997=CARTESIAN_POINT('',(-0.16,-0.0724,0.035));
#998=CARTESIAN_POINT('',(-0.16,-0.0725,0.035));
#999=CARTESIAN_POINT('',(-0.16,-0.0726,0.035));
#1000=CARTESIAN_POINT('',(-0.16,-0.0726,0.035));
#1001=CARTESIAN_POINT('',(-0.135,-0.0726,0.025));
#1002=CARTESIAN_POINT('',(-0.16,-0.0726,0.025));
#1003=CARTESIAN_POINT('',(-0.16,-0.0826,0.025));
#1004=CARTESIAN_POINT('',(-0.135,-0.0826,0.025));
#1005=CARTESIAN_POINT('',(-0.135,-0.0826,0.025));
#1006=CARTESIAN_POINT('',(-0.135,-0.0726,0.025));
#1007=CARTESIAN_POINT('',(-0.135,-0.0724,0.025));
#1008=CARTESIAN_POINT('',(-0.135,-0.0624,0.025));
#1009=CARTESIAN_POINT('',(-0.135,-0.0624,0.025));
#1010=CARTESIAN_POINT('',(-0.16,-0.0624,0.025));
#1011=CARTESIAN_POINT('',(-0.16,-0.0724,0.025));
#1012=CARTESIAN_POINT('',(-0.135,-0.0724,0.025));
#1013=CARTESIAN_POINT('',(-0.135,-0.0926,0.025));
#1014=CARTESIAN_POINT('',(-0.135,-0.0926,0.025));
#1015=CARTESIAN_POINT('',(-0.16,-0.0926,0.025));
#1016=CARTESIAN_POINT('',(-0.15,-0.0524,0.025));
#1017=CARTESIAN_POINT('',(-0.135,-0.0524,0.025));
#1018=CARTESIAN_POINT('',(-0.16,-0.0524,0.025));
#1019=CARTESIAN_POINT('',(-0.135,-0.1085,0.0337443535029888));
#1020=CARTESIAN_POINT('',(-0.16,-0.1085,0.0337443535029888));
#1021=CARTESIAN_POINT('',(-0.15,-0.1085,-0.015));
#1022=CARTESIAN_POINT('',(-0.15,-0.156,-0.015));
#1023=CARTESIAN_POINT('',(-0.15,-0.1085,-0.015));
#1024=CARTESIAN_POINT('',(-0.15,-0.061,-0.015));
#1025=CARTESIAN_POINT('',(-0.15,-0.141,-0.015));
#1026=CARTESIAN_POINT('',(-0.15,-0.076,-0.015));
#1027=CARTESIAN_POINT('',(-0.15,-0.169,0.008));
#1028=CARTESIAN_POINT('',(-0.15,-0.0428756443470179,0.008));
#1029=CARTESIAN_POINT('',(-0.15,-0.1085,0.0215));
#1030=CARTESIAN_POINT('',(-0.15,-0.1085,0.0215));
#1031=CARTESIAN_POINT('',(-0.145,-0.1085,0.0215));
#1032=CARTESIAN_POINT('',(-0.15,-0.1085,0.0215));
#1033=CARTESIAN_POINT('',(-0.15,-0.1085,0.0215));
#1034=CARTESIAN_POINT('',(-0.14675,-0.1085,0.0215));
#1035=CARTESIAN_POINT('',(-0.15,-0.1085,0.0223));
#1036=CARTESIAN_POINT('',(-0.15,-0.1085,0.0223));
#1037=CARTESIAN_POINT('',(-0.1475,-0.1085,0.0223));
#1038=CARTESIAN_POINT('',(-0.15,-0.1085,0.015));
#1039=CARTESIAN_POINT('',(-0.1475,-0.1085,0.015));
#1040=CARTESIAN_POINT('',(-0.15,-0.1085,0.0223));
#1041=CARTESIAN_POINT('',(-0.15,-0.1085,0.0223));
#1042=CARTESIAN_POINT('',(-0.14675,-0.1085,0.0223));
#1043=CARTESIAN_POINT('',(-0.15,-0.1085,0.0223));
#1044=CARTESIAN_POINT('',(-0.15,-0.1085,0.015));
#1045=CARTESIAN_POINT('',(-0.15,-0.1085,0.015));
#1046=CARTESIAN_POINT('',(-0.147,-0.1085,0.015));
#1047=CARTESIAN_POINT('',(-0.15,-0.1085,0.015002));
#1048=MECHANICAL_DESIGN_GEOMETRIC_PRESENTATION_REPRESENTATION('',(#601),
#1049);
#1049=(
GEOMETRIC_REPRESENTATION_CONTEXT(3)
GLOBAL_UNCERTAINTY_ASSIGNED_CONTEXT((#1050))
GLOBAL_UNIT_ASSIGNED_CONTEXT((#1053,#1052,#1051))
REPRESENTATION_CONTEXT('Part 3','TOP_LEVEL_ASSEMBLY_PART')
);
#1050=UNCERTAINTY_MEASURE_WITH_UNIT(LENGTH_MEASURE(1.E-8),#1053,
'DISTANCE_ACCURACY_VALUE','Maximum Tolerance applied to model');
#1051=(
NAMED_UNIT(*)
SI_UNIT($,.STERADIAN.)
SOLID_ANGLE_UNIT()
);
#1052=(
NAMED_UNIT(*)
PLANE_ANGLE_UNIT()
SI_UNIT($,.RADIAN.)
);
#1053=(
LENGTH_UNIT()
NAMED_UNIT(*)
SI_UNIT($,.METRE.)
);
#1054=PRODUCT_DEFINITION_SHAPE('','',#1055);
#1055=PRODUCT_DEFINITION('','',#1057,#1056);
#1056=PRODUCT_DEFINITION_CONTEXT('',#1063,'design');
#1057=PRODUCT_DEFINITION_FORMATION_WITH_SPECIFIED_SOURCE('','',#1059,
 .NOT_KNOWN.);
#1058=PRODUCT_RELATED_PRODUCT_CATEGORY('','',(#1059));
#1059=PRODUCT('Part 3','Part 3','Part 3',(#1061));
#1060=PRODUCT_CATEGORY('','');
#1061=PRODUCT_CONTEXT('',#1063,'mechanical');
#1062=APPLICATION_PROTOCOL_DEFINITION('international standard',
'ap242_managed_model_based_3d_engineering',2020,#1063);
#1063=APPLICATION_CONTEXT('managed model based 3d engineering');
ENDSEC;
END-ISO-10303-21;
