ISO-10303-21;
HEADER;
/* Generated by software containing ST-Developer
 * from STEP Tools, Inc. (www.steptools.com) 
 */
/* OPTION: using custom renumber hook */

FILE_DESCRIPTION(
/* description */ ('STEP AP242 Edition 2',
'CAx-IF Rec.Pracs.---Representation and Presentation of Product Manufa
cturing Information (PMI)---4.0---2014-10-13',
'CAx-IF Rec.Pracs.---3D Tessellated Geometry---0.4---2014-09-14','2;1',
'CAx-IF Rec.Pracs.---User Defined Attributes---1.5---2016-08-15'),
/* implementation_level */ '2;1');

FILE_NAME(
/* name */ 'Secondary end - Part 1',
/* time_stamp */ '2026-10-04T09:37:44Z',
/* author */ (''),
/* organization */ (''),
/* preprocessor_version */ 'ST-DEVELOPER v20',
/* originating_system */ 'ONSHAPE BY PTC INC, 1.221',
/* authorisation */ '  ');

FILE_SCHEMA (('AP242_MANAGED_MODEL_BASED_3D_ENGINEERING_MIM_LF { 1 0 10303 442 3 1 4 }'));
ENDSEC;

DATA;
#10=SHAPE_REPRESENTATION_RELATIONSHIP('','',#401,#11);
#11=ADVANCED_BREP_SHAPE_REPRESENTATION('',(#399),#679);
#12=CIRCLE('',#408,0.00505);
#13=CIRCLE('',#409,0.00505);
#14=CIRCLE('',#411,0.00505);
#15=CIRCLE('',#412,0.00505);
#16=CIRCLE('',#415,0.004);
#17=CIRCLE('',#416,0.007);
#18=CIRCLE('',#417,0.007);
#19=CIRCLE('',#418,0.007);
#20=CIRCLE('',#419,0.007);
#21=CIRCLE('',#420,0.004);
#22=CIRCLE('',#424,0.004);
#23=CIRCLE('',#425,0.004);
#24=CIRCLE('',#426,0.007);
#25=CIRCLE('',#427,0.007);
#26=CIRCLE('',#428,0.007);
#27=CIRCLE('',#429,0.007);
#28=CIRCLE('',#431,0.00375);
#29=CIRCLE('',#434,0.003);
#30=CIRCLE('',#435,0.003);
#31=CIRCLE('',#437,0.00375);
#32=CYLINDRICAL_SURFACE('',#407,0.00505);
#33=CYLINDRICAL_SURFACE('',#410,0.00505);
#34=CYLINDRICAL_SURFACE('',#433,0.003);
#35=CYLINDRICAL_SURFACE('',#436,0.00375);
#36=CYLINDRICAL_SURFACE('',#441,0.007);
#37=CYLINDRICAL_SURFACE('',#442,0.007);
#38=CYLINDRICAL_SURFACE('',#443,0.007);
#39=CYLINDRICAL_SURFACE('',#444,0.007);
#40=CYLINDRICAL_SURFACE('',#445,0.004);
#41=CYLINDRICAL_SURFACE('',#446,0.004);
#42=ORIENTED_EDGE('',*,*,#142,.F.);
#43=ORIENTED_EDGE('',*,*,#143,.T.);
#44=ORIENTED_EDGE('',*,*,#144,.T.);
#45=ORIENTED_EDGE('',*,*,#145,.F.);
#46=ORIENTED_EDGE('',*,*,#146,.T.);
#47=ORIENTED_EDGE('',*,*,#147,.T.);
#48=ORIENTED_EDGE('',*,*,#148,.F.);
#49=ORIENTED_EDGE('',*,*,#149,.T.);
#50=ORIENTED_EDGE('',*,*,#150,.T.);
#51=ORIENTED_EDGE('',*,*,#151,.T.);
#52=ORIENTED_EDGE('',*,*,#152,.F.);
#53=ORIENTED_EDGE('',*,*,#153,.T.);
#54=ORIENTED_EDGE('',*,*,#154,.F.);
#55=ORIENTED_EDGE('',*,*,#155,.T.);
#56=ORIENTED_EDGE('',*,*,#156,.T.);
#57=ORIENTED_EDGE('',*,*,#157,.T.);
#58=ORIENTED_EDGE('',*,*,#158,.T.);
#59=ORIENTED_EDGE('',*,*,#159,.F.);
#60=ORIENTED_EDGE('',*,*,#160,.T.);
#61=ORIENTED_EDGE('',*,*,#161,.F.);
#62=ORIENTED_EDGE('',*,*,#162,.T.);
#63=ORIENTED_EDGE('',*,*,#163,.T.);
#64=ORIENTED_EDGE('',*,*,#164,.F.);
#65=ORIENTED_EDGE('',*,*,#165,.T.);
#66=ORIENTED_EDGE('',*,*,#160,.F.);
#67=ORIENTED_EDGE('',*,*,#158,.F.);
#68=ORIENTED_EDGE('',*,*,#166,.T.);
#69=ORIENTED_EDGE('',*,*,#167,.T.);
#70=ORIENTED_EDGE('',*,*,#168,.T.);
#71=ORIENTED_EDGE('',*,*,#148,.T.);
#72=ORIENTED_EDGE('',*,*,#169,.T.);
#73=ORIENTED_EDGE('',*,*,#152,.T.);
#74=ORIENTED_EDGE('',*,*,#170,.T.);
#75=ORIENTED_EDGE('',*,*,#156,.F.);
#76=ORIENTED_EDGE('',*,*,#171,.T.);
#77=ORIENTED_EDGE('',*,*,#162,.F.);
#78=ORIENTED_EDGE('',*,*,#172,.T.);
#79=ORIENTED_EDGE('',*,*,#142,.T.);
#80=ORIENTED_EDGE('',*,*,#173,.T.);
#81=ORIENTED_EDGE('',*,*,#174,.T.);
#82=ORIENTED_EDGE('',*,*,#159,.T.);
#83=ORIENTED_EDGE('',*,*,#161,.T.);
#84=ORIENTED_EDGE('',*,*,#175,.T.);
#85=ORIENTED_EDGE('',*,*,#176,.T.);
#86=ORIENTED_EDGE('',*,*,#177,.F.);
#87=ORIENTED_EDGE('',*,*,#178,.T.);
#88=ORIENTED_EDGE('',*,*,#179,.F.);
#89=ORIENTED_EDGE('',*,*,#144,.F.);
#90=ORIENTED_EDGE('',*,*,#180,.T.);
#91=ORIENTED_EDGE('',*,*,#164,.T.);
#92=ORIENTED_EDGE('',*,*,#181,.T.);
#93=ORIENTED_EDGE('',*,*,#154,.T.);
#94=ORIENTED_EDGE('',*,*,#182,.T.);
#95=ORIENTED_EDGE('',*,*,#150,.F.);
#96=ORIENTED_EDGE('',*,*,#183,.T.);
#97=ORIENTED_EDGE('',*,*,#146,.F.);
#98=ORIENTED_EDGE('',*,*,#184,.F.);
#99=ORIENTED_EDGE('',*,*,#179,.T.);
#100=ORIENTED_EDGE('',*,*,#185,.T.);
#101=ORIENTED_EDGE('',*,*,#173,.F.);
#102=ORIENTED_EDGE('',*,*,#145,.T.);
#103=ORIENTED_EDGE('',*,*,#177,.T.);
#104=ORIENTED_EDGE('',*,*,#186,.T.);
#105=ORIENTED_EDGE('',*,*,#166,.F.);
#106=ORIENTED_EDGE('',*,*,#187,.T.);
#107=ORIENTED_EDGE('',*,*,#188,.T.);
#108=ORIENTED_EDGE('',*,*,#189,.F.);
#109=ORIENTED_EDGE('',*,*,#190,.F.);
#110=ORIENTED_EDGE('',*,*,#184,.T.);
#111=ORIENTED_EDGE('',*,*,#188,.F.);
#112=ORIENTED_EDGE('',*,*,#190,.T.);
#113=ORIENTED_EDGE('',*,*,#168,.F.);
#114=ORIENTED_EDGE('',*,*,#191,.T.);
#115=ORIENTED_EDGE('',*,*,#175,.F.);
#116=ORIENTED_EDGE('',*,*,#149,.F.);
#117=ORIENTED_EDGE('',*,*,#189,.T.);
#118=ORIENTED_EDGE('',*,*,#171,.F.);
#119=ORIENTED_EDGE('',*,*,#155,.F.);
#120=ORIENTED_EDGE('',*,*,#181,.F.);
#121=ORIENTED_EDGE('',*,*,#163,.F.);
#122=ORIENTED_EDGE('',*,*,#170,.F.);
#123=ORIENTED_EDGE('',*,*,#151,.F.);
#124=ORIENTED_EDGE('',*,*,#182,.F.);
#125=ORIENTED_EDGE('',*,*,#157,.F.);
#126=ORIENTED_EDGE('',*,*,#169,.F.);
#127=ORIENTED_EDGE('',*,*,#147,.F.);
#128=ORIENTED_EDGE('',*,*,#183,.F.);
#129=ORIENTED_EDGE('',*,*,#153,.F.);
#130=ORIENTED_EDGE('',*,*,#172,.F.);
#131=ORIENTED_EDGE('',*,*,#165,.F.);
#132=ORIENTED_EDGE('',*,*,#180,.F.);
#133=ORIENTED_EDGE('',*,*,#143,.F.);
#134=ORIENTED_EDGE('',*,*,#167,.F.);
#135=ORIENTED_EDGE('',*,*,#186,.F.);
#136=ORIENTED_EDGE('',*,*,#176,.F.);
#137=ORIENTED_EDGE('',*,*,#191,.F.);
#138=ORIENTED_EDGE('',*,*,#174,.F.);
#139=ORIENTED_EDGE('',*,*,#185,.F.);
#140=ORIENTED_EDGE('',*,*,#178,.F.);
#141=ORIENTED_EDGE('',*,*,#187,.F.);
#142=EDGE_CURVE('',#192,#193,#228,.T.);
#143=EDGE_CURVE('',#192,#194,#229,.T.);
#144=EDGE_CURVE('',#194,#195,#230,.T.);
#145=EDGE_CURVE('',#193,#195,#231,.T.);
#146=EDGE_CURVE('',#196,#197,#232,.T.);
#147=EDGE_CURVE('',#197,#198,#233,.F.);
#148=EDGE_CURVE('',#199,#198,#234,.T.);
#149=EDGE_CURVE('',#199,#196,#235,.T.);
#150=EDGE_CURVE('',#200,#201,#236,.T.);
#151=EDGE_CURVE('',#201,#202,#237,.F.);
#152=EDGE_CURVE('',#203,#202,#238,.T.);
#153=EDGE_CURVE('',#203,#200,#239,.T.);
#154=EDGE_CURVE('',#204,#205,#240,.T.);
#155=EDGE_CURVE('',#204,#206,#241,.F.);
#156=EDGE_CURVE('',#206,#207,#242,.T.);
#157=EDGE_CURVE('',#207,#205,#243,.T.);
#158=EDGE_CURVE('',#208,#208,#12,.T.);
#159=EDGE_CURVE('',#209,#209,#13,.T.);
#160=EDGE_CURVE('',#210,#210,#14,.T.);
#161=EDGE_CURVE('',#211,#211,#15,.T.);
#162=EDGE_CURVE('',#212,#213,#244,.T.);
#163=EDGE_CURVE('',#213,#214,#245,.T.);
#164=EDGE_CURVE('',#215,#214,#246,.T.);
#165=EDGE_CURVE('',#215,#212,#247,.F.);
#166=EDGE_CURVE('',#216,#217,#248,.T.);
#167=EDGE_CURVE('',#217,#218,#16,.T.);
#168=EDGE_CURVE('',#218,#199,#249,.T.);
#169=EDGE_CURVE('',#198,#203,#17,.T.);
#170=EDGE_CURVE('',#202,#207,#18,.T.);
#171=EDGE_CURVE('',#206,#213,#19,.T.);
#172=EDGE_CURVE('',#212,#192,#20,.T.);
#173=EDGE_CURVE('',#193,#219,#250,.T.);
#174=EDGE_CURVE('',#219,#216,#21,.T.);
#175=EDGE_CURVE('',#196,#220,#251,.T.);
#176=EDGE_CURVE('',#220,#221,#22,.F.);
#177=EDGE_CURVE('',#222,#221,#252,.T.);
#178=EDGE_CURVE('',#222,#223,#23,.F.);
#179=EDGE_CURVE('',#195,#223,#253,.T.);
#180=EDGE_CURVE('',#194,#215,#24,.F.);
#181=EDGE_CURVE('',#214,#204,#25,.F.);
#182=EDGE_CURVE('',#205,#201,#26,.F.);
#183=EDGE_CURVE('',#200,#197,#27,.F.);
#184=EDGE_CURVE('',#224,#224,#28,.F.);
#185=EDGE_CURVE('',#223,#219,#254,.F.);
#186=EDGE_CURVE('',#221,#217,#255,.F.);
#187=EDGE_CURVE('',#216,#222,#256,.T.);
#188=EDGE_CURVE('',#225,#225,#29,.T.);
#189=EDGE_CURVE('',#226,#226,#30,.T.);
#190=EDGE_CURVE('',#227,#227,#31,.T.);
#191=EDGE_CURVE('',#218,#220,#257,.T.);
#192=VERTEX_POINT('',#570);
#193=VERTEX_POINT('',#571);
#194=VERTEX_POINT('',#573);
#195=VERTEX_POINT('',#575);
#196=VERTEX_POINT('',#579);
#197=VERTEX_POINT('',#580);
#198=VERTEX_POINT('',#582);
#199=VERTEX_POINT('',#584);
#200=VERTEX_POINT('',#588);
#201=VERTEX_POINT('',#589);
#202=VERTEX_POINT('',#591);
#203=VERTEX_POINT('',#593);
#204=VERTEX_POINT('',#597);
#205=VERTEX_POINT('',#598);
#206=VERTEX_POINT('',#600);
#207=VERTEX_POINT('',#602);
#208=VERTEX_POINT('',#606);
#209=VERTEX_POINT('',#608);
#210=VERTEX_POINT('',#611);
#211=VERTEX_POINT('',#613);
#212=VERTEX_POINT('',#616);
#213=VERTEX_POINT('',#617);
#214=VERTEX_POINT('',#619);
#215=VERTEX_POINT('',#621);
#216=VERTEX_POINT('',#625);
#217=VERTEX_POINT('',#626);
#218=VERTEX_POINT('',#628);
#219=VERTEX_POINT('',#635);
#220=VERTEX_POINT('',#641);
#221=VERTEX_POINT('',#643);
#222=VERTEX_POINT('',#645);
#223=VERTEX_POINT('',#647);
#224=VERTEX_POINT('',#655);
#225=VERTEX_POINT('',#662);
#226=VERTEX_POINT('',#664);
#227=VERTEX_POINT('',#667);
#228=LINE('',#569,#258);
#229=LINE('',#572,#259);
#230=LINE('',#574,#260);
#231=LINE('',#576,#261);
#232=LINE('',#578,#262);
#233=LINE('',#581,#263);
#234=LINE('',#583,#264);
#235=LINE('',#585,#265);
#236=LINE('',#587,#266);
#237=LINE('',#590,#267);
#238=LINE('',#592,#268);
#239=LINE('',#594,#269);
#240=LINE('',#596,#270);
#241=LINE('',#599,#271);
#242=LINE('',#601,#272);
#243=LINE('',#603,#273);
#244=LINE('',#615,#274);
#245=LINE('',#618,#275);
#246=LINE('',#620,#276);
#247=LINE('',#622,#277);
#248=LINE('',#624,#278);
#249=LINE('',#629,#279);
#250=LINE('',#634,#280);
#251=LINE('',#640,#281);
#252=LINE('',#644,#282);
#253=LINE('',#648,#283);
#254=LINE('',#656,#284);
#255=LINE('',#658,#285);
#256=LINE('',#659,#286);
#257=LINE('',#670,#287);
#258=VECTOR('',#451,1.);
#259=VECTOR('',#452,1.);
#260=VECTOR('',#453,1.);
#261=VECTOR('',#454,1.);
#262=VECTOR('',#457,1.);
#263=VECTOR('',#458,1.);
#264=VECTOR('',#459,1.);
#265=VECTOR('',#460,1.);
#266=VECTOR('',#463,1.);
#267=VECTOR('',#464,1.);
#268=VECTOR('',#465,1.);
#269=VECTOR('',#466,1.);
#270=VECTOR('',#469,1.);
#271=VECTOR('',#470,1.);
#272=VECTOR('',#471,1.);
#273=VECTOR('',#472,1.);
#274=VECTOR('',#487,1.);
#275=VECTOR('',#488,1.);
#276=VECTOR('',#489,1.);
#277=VECTOR('',#490,1.);
#278=VECTOR('',#493,1.);
#279=VECTOR('',#496,1.);
#280=VECTOR('',#505,1.);
#281=VECTOR('',#514,1.);
#282=VECTOR('',#517,1.);
#283=VECTOR('',#520,1.);
#284=VECTOR('',#533,1.);
#285=VECTOR('',#536,1.);
#286=VECTOR('',#537,1.);
#287=VECTOR('',#552,1.);
#288=EDGE_LOOP('',(#42,#43,#44,#45));
#289=EDGE_LOOP('',(#46,#47,#48,#49));
#290=EDGE_LOOP('',(#50,#51,#52,#53));
#291=EDGE_LOOP('',(#54,#55,#56,#57));
#292=EDGE_LOOP('',(#58));
#293=EDGE_LOOP('',(#59));
#294=EDGE_LOOP('',(#60));
#295=EDGE_LOOP('',(#61));
#296=EDGE_LOOP('',(#62,#63,#64,#65));
#297=EDGE_LOOP('',(#66));
#298=EDGE_LOOP('',(#67));
#299=EDGE_LOOP('',(#68,#69,#70,#71,#72,#73,#74,#75,#76,#77,#78,#79,#80,
#81));
#300=EDGE_LOOP('',(#82));
#301=EDGE_LOOP('',(#83));
#302=EDGE_LOOP('',(#84,#85,#86,#87,#88,#89,#90,#91,#92,#93,#94,#95,#96,
#97));
#303=EDGE_LOOP('',(#98));
#304=EDGE_LOOP('',(#99,#100,#101,#102));
#305=EDGE_LOOP('',(#103,#104,#105,#106));
#306=EDGE_LOOP('',(#107));
#307=EDGE_LOOP('',(#108));
#308=EDGE_LOOP('',(#109));
#309=EDGE_LOOP('',(#110));
#310=EDGE_LOOP('',(#111));
#311=EDGE_LOOP('',(#112));
#312=EDGE_LOOP('',(#113,#114,#115,#116));
#313=EDGE_LOOP('',(#117));
#314=EDGE_LOOP('',(#118,#119,#120,#121));
#315=EDGE_LOOP('',(#122,#123,#124,#125));
#316=EDGE_LOOP('',(#126,#127,#128,#129));
#317=EDGE_LOOP('',(#130,#131,#132,#133));
#318=EDGE_LOOP('',(#134,#135,#136,#137));
#319=EDGE_LOOP('',(#138,#139,#140,#141));
#320=FACE_BOUND('',#288,.T.);
#321=FACE_BOUND('',#289,.T.);
#322=FACE_BOUND('',#290,.T.);
#323=FACE_BOUND('',#291,.T.);
#324=FACE_BOUND('',#292,.T.);
#325=FACE_BOUND('',#293,.T.);
#326=FACE_BOUND('',#294,.T.);
#327=FACE_BOUND('',#295,.T.);
#328=FACE_BOUND('',#296,.T.);
#329=FACE_BOUND('',#297,.T.);
#330=FACE_BOUND('',#298,.T.);
#331=FACE_BOUND('',#299,.T.);
#332=FACE_BOUND('',#300,.T.);
#333=FACE_BOUND('',#301,.T.);
#334=FACE_BOUND('',#302,.T.);
#335=FACE_BOUND('',#303,.T.);
#336=FACE_BOUND('',#304,.T.);
#337=FACE_BOUND('',#305,.T.);
#338=FACE_BOUND('',#306,.T.);
#339=FACE_BOUND('',#307,.T.);
#340=FACE_BOUND('',#308,.T.);
#341=FACE_BOUND('',#309,.T.);
#342=FACE_BOUND('',#310,.T.);
#343=FACE_BOUND('',#311,.T.);
#344=FACE_BOUND('',#312,.T.);
#345=FACE_BOUND('',#313,.T.);
#346=FACE_BOUND('',#314,.T.);
#347=FACE_BOUND('',#315,.T.);
#348=FACE_BOUND('',#316,.T.);
#349=FACE_BOUND('',#317,.T.);
#350=FACE_BOUND('',#318,.T.);
#351=FACE_BOUND('',#319,.T.);
#352=PLANE('',#403);
#353=PLANE('',#404);
#354=PLANE('',#405);
#355=PLANE('',#406);
#356=PLANE('',#413);
#357=PLANE('',#414);
#358=PLANE('',#421);
#359=PLANE('',#422);
#360=PLANE('',#423);
#361=PLANE('',#430);
#362=PLANE('',#432);
#363=PLANE('',#438);
#364=PLANE('',#439);
#365=PLANE('',#440);
#366=ADVANCED_FACE('',(#320),#352,.F.);
#367=ADVANCED_FACE('',(#321),#353,.F.);
#368=ADVANCED_FACE('',(#322),#354,.F.);
#369=ADVANCED_FACE('',(#323),#355,.T.);
#370=ADVANCED_FACE('',(#324,#325),#32,.F.);
#371=ADVANCED_FACE('',(#326,#327),#33,.F.);
#372=ADVANCED_FACE('',(#328),#356,.T.);
#373=ADVANCED_FACE('',(#329,#330,#331),#357,.T.);
#374=ADVANCED_FACE('',(#332),#358,.T.);
#375=ADVANCED_FACE('',(#333),#359,.T.);
#376=ADVANCED_FACE('',(#334),#360,.F.);
#377=ADVANCED_FACE('',(#335,#336),#361,.F.);
#378=ADVANCED_FACE('',(#337),#362,.F.);
#379=ADVANCED_FACE('',(#338,#339),#34,.F.);
#380=ADVANCED_FACE('',(#340,#341),#35,.T.);
#381=ADVANCED_FACE('',(#342,#343),#363,.T.);
#382=ADVANCED_FACE('',(#344),#364,.F.);
#383=ADVANCED_FACE('',(#345),#365,.F.);
#384=ADVANCED_FACE('',(#346),#36,.T.);
#385=ADVANCED_FACE('',(#347),#37,.T.);
#386=ADVANCED_FACE('',(#348),#38,.T.);
#387=ADVANCED_FACE('',(#349),#39,.T.);
#388=ADVANCED_FACE('',(#350),#40,.T.);
#389=ADVANCED_FACE('',(#351),#41,.T.);
#390=CLOSED_SHELL('',(#366,#367,#368,#369,#370,#371,#372,#373,#374,#375,
#376,#377,#378,#379,#380,#381,#382,#383,#384,#385,#386,#387,#388,#389));
#391=STYLED_ITEM('',(#392),#399);
#392=PRESENTATION_STYLE_ASSIGNMENT((#393));
#393=SURFACE_STYLE_USAGE(.BOTH.,#394);
#394=SURFACE_SIDE_STYLE('',(#395));
#395=SURFACE_STYLE_FILL_AREA(#396);
#396=FILL_AREA_STYLE('',(#397));
#397=FILL_AREA_STYLE_COLOUR('',#398);
#398=COLOUR_RGB('',0.615686274509804,0.811764705882353,0.929411764705882);
#399=MANIFOLD_SOLID_BREP('Part 1',#390);
#400=SHAPE_DEFINITION_REPRESENTATION(#684,#401);
#401=SHAPE_REPRESENTATION('Part 1',(#402),#679);
#402=AXIS2_PLACEMENT_3D('',#567,#447,#448);
#403=AXIS2_PLACEMENT_3D('',#568,#449,#450);
#404=AXIS2_PLACEMENT_3D('',#577,#455,#456);
#405=AXIS2_PLACEMENT_3D('',#586,#461,#462);
#406=AXIS2_PLACEMENT_3D('',#595,#467,#468);
#407=AXIS2_PLACEMENT_3D('',#604,#473,#474);
#408=AXIS2_PLACEMENT_3D('',#605,#475,#476);
#409=AXIS2_PLACEMENT_3D('',#607,#477,#478);
#410=AXIS2_PLACEMENT_3D('',#609,#479,#480);
#411=AXIS2_PLACEMENT_3D('',#610,#481,#482);
#412=AXIS2_PLACEMENT_3D('',#612,#483,#484);
#413=AXIS2_PLACEMENT_3D('',#614,#485,#486);
#414=AXIS2_PLACEMENT_3D('',#623,#491,#492);
#415=AXIS2_PLACEMENT_3D('',#627,#494,#495);
#416=AXIS2_PLACEMENT_3D('',#630,#497,#498);
#417=AXIS2_PLACEMENT_3D('',#631,#499,#500);
#418=AXIS2_PLACEMENT_3D('',#632,#501,#502);
#419=AXIS2_PLACEMENT_3D('',#633,#503,#504);
#420=AXIS2_PLACEMENT_3D('',#636,#506,#507);
#421=AXIS2_PLACEMENT_3D('',#637,#508,#509);
#422=AXIS2_PLACEMENT_3D('',#638,#510,#511);
#423=AXIS2_PLACEMENT_3D('',#639,#512,#513);
#424=AXIS2_PLACEMENT_3D('',#642,#515,#516);
#425=AXIS2_PLACEMENT_3D('',#646,#518,#519);
#426=AXIS2_PLACEMENT_3D('',#649,#521,#522);
#427=AXIS2_PLACEMENT_3D('',#650,#523,#524);
#428=AXIS2_PLACEMENT_3D('',#651,#525,#526);
#429=AXIS2_PLACEMENT_3D('',#652,#527,#528);
#430=AXIS2_PLACEMENT_3D('',#653,#529,#530);
#431=AXIS2_PLACEMENT_3D('',#654,#531,#532);
#432=AXIS2_PLACEMENT_3D('',#657,#534,#535);
#433=AXIS2_PLACEMENT_3D('',#660,#538,#539);
#434=AXIS2_PLACEMENT_3D('',#661,#540,#541);
#435=AXIS2_PLACEMENT_3D('',#663,#542,#543);
#436=AXIS2_PLACEMENT_3D('',#665,#544,#545);
#437=AXIS2_PLACEMENT_3D('',#666,#546,#547);
#438=AXIS2_PLACEMENT_3D('',#668,#548,#549);
#439=AXIS2_PLACEMENT_3D('',#669,#550,#551);
#440=AXIS2_PLACEMENT_3D('',#671,#553,#554);
#441=AXIS2_PLACEMENT_3D('',#672,#555,#556);
#442=AXIS2_PLACEMENT_3D('',#673,#557,#558);
#443=AXIS2_PLACEMENT_3D('',#674,#559,#560);
#444=AXIS2_PLACEMENT_3D('',#675,#561,#562);
#445=AXIS2_PLACEMENT_3D('',#676,#563,#564);
#446=AXIS2_PLACEMENT_3D('',#677,#565,#566);
#447=DIRECTION('',(0.,0.,1.));
#448=DIRECTION('',(1.,0.,0.));
#449=DIRECTION('',(1.,0.,0.));
#450=DIRECTION('',(0.,0.,-1.));
#451=DIRECTION('',(0.,0.,-1.));
#452=DIRECTION('',(0.,1.,0.));
#453=DIRECTION('',(0.,0.,-1.));
#454=DIRECTION('',(0.,1.,0.));
#455=DIRECTION('',(1.,0.,0.));
#456=DIRECTION('',(0.,0.,-1.));
#457=DIRECTION('',(0.,0.,-1.));
#458=DIRECTION('',(0.,1.,0.));
#459=DIRECTION('',(0.,0.,-1.));
#460=DIRECTION('',(0.,1.,0.));
#461=DIRECTION('',(0.,0.,1.));
#462=DIRECTION('',(1.,0.,0.));
#463=DIRECTION('',(1.,0.,0.));
#464=DIRECTION('',(0.,1.,0.));
#465=DIRECTION('',(1.,0.,0.));
#466=DIRECTION('',(0.,1.,0.));
#467=DIRECTION('',(1.,0.,0.));
#468=DIRECTION('',(0.,0.,-1.));
#469=DIRECTION('',(0.,0.,-1.));
#470=DIRECTION('',(0.,1.,0.));
#471=DIRECTION('',(0.,0.,-1.));
#472=DIRECTION('',(0.,1.,0.));
#473=DIRECTION('',(0.,1.,0.));
#474=DIRECTION('',(0.,0.,1.));
#475=DIRECTION('',(0.,-1.,0.));
#476=DIRECTION('',(1.,0.,0.));
#477=DIRECTION('',(0.,-1.,0.));
#478=DIRECTION('',(1.,0.,0.));
#479=DIRECTION('',(0.,1.,0.));
#480=DIRECTION('',(0.,0.,1.));
#481=DIRECTION('',(0.,-1.,0.));
#482=DIRECTION('',(1.,0.,0.));
#483=DIRECTION('',(0.,-1.,0.));
#484=DIRECTION('',(1.,0.,0.));
#485=DIRECTION('',(0.,0.,1.));
#486=DIRECTION('',(1.,0.,0.));
#487=DIRECTION('',(1.,0.,0.));
#488=DIRECTION('',(0.,1.,0.));
#489=DIRECTION('',(1.,0.,0.));
#490=DIRECTION('',(0.,1.,0.));
#491=DIRECTION('',(0.,-1.,0.));
#492=DIRECTION('',(1.,0.,0.));
#493=DIRECTION('',(0.,0.,-1.));
#494=DIRECTION('',(0.,-1.,0.));
#495=DIRECTION('',(0.,0.,-1.));
#496=DIRECTION('',(0.707106781186548,0.,-0.707106781186548));
#497=DIRECTION('',(0.,-1.,0.));
#498=DIRECTION('',(0.,0.,-1.));
#499=DIRECTION('',(0.,-1.,0.));
#500=DIRECTION('',(0.,0.,-1.));
#501=DIRECTION('',(0.,-1.,0.));
#502=DIRECTION('',(0.,0.,-1.));
#503=DIRECTION('',(0.,-1.,0.));
#504=DIRECTION('',(0.,0.,-1.));
#505=DIRECTION('',(-1.,0.,2.46143195915628E-16));
#506=DIRECTION('',(0.,-1.,0.));
#507=DIRECTION('',(0.,0.,-1.));
#508=DIRECTION('',(0.,-1.,0.));
#509=DIRECTION('',(1.,0.,0.));
#510=DIRECTION('',(0.,-1.,0.));
#511=DIRECTION('',(1.,0.,0.));
#512=DIRECTION('',(0.,-1.,0.));
#513=DIRECTION('',(1.,0.,0.));
#514=DIRECTION('',(-0.707106781186548,0.,0.707106781186548));
#515=DIRECTION('',(0.,-1.,0.));
#516=DIRECTION('',(0.,0.,-1.));
#517=DIRECTION('',(0.,0.,-1.));
#518=DIRECTION('',(0.,-1.,0.));
#519=DIRECTION('',(0.,0.,-1.));
#520=DIRECTION('',(-1.,0.,2.46143195915628E-16));
#521=DIRECTION('',(0.,-1.,0.));
#522=DIRECTION('',(0.,0.,-1.));
#523=DIRECTION('',(0.,-1.,0.));
#524=DIRECTION('',(0.,0.,-1.));
#525=DIRECTION('',(0.,-1.,0.));
#526=DIRECTION('',(0.,0.,-1.));
#527=DIRECTION('',(0.,-1.,0.));
#528=DIRECTION('',(0.,0.,-1.));
#529=DIRECTION('',(-2.46143195915628E-16,0.,-1.));
#530=DIRECTION('',(-1.,0.,2.46143195915628E-16));
#531=DIRECTION('',(-2.46143195915628E-16,0.,-1.));
#532=DIRECTION('',(-1.,0.,2.46143195915628E-16));
#533=DIRECTION('',(0.,1.,0.));
#534=DIRECTION('',(1.,0.,0.));
#535=DIRECTION('',(0.,0.,-1.));
#536=DIRECTION('',(0.,1.,0.));
#537=DIRECTION('',(0.,1.,0.));
#538=DIRECTION('',(-2.46143195915628E-16,0.,-1.));
#539=DIRECTION('',(-1.,0.,2.46143195915628E-16));
#540=DIRECTION('',(2.46143195915628E-16,0.,1.));
#541=DIRECTION('',(1.,0.,-2.52980506913284E-16));
#542=DIRECTION('',(2.46143195915628E-16,0.,1.));
#543=DIRECTION('',(1.,0.,-2.52980506913284E-16));
#544=DIRECTION('',(-2.46143195915628E-16,0.,-1.));
#545=DIRECTION('',(-1.,0.,2.46143195915628E-16));
#546=DIRECTION('',(2.46143195915628E-16,0.,1.));
#547=DIRECTION('',(1.,0.,-2.60208521396521E-16));
#548=DIRECTION('',(2.46143195915628E-16,0.,1.));
#549=DIRECTION('',(1.,0.,-2.46143195915628E-16));
#550=DIRECTION('',(0.707106781186548,0.,0.707106781186548));
#551=DIRECTION('',(0.,1.,0.));
#552=DIRECTION('',(0.,1.,0.));
#553=DIRECTION('',(-2.46143195915628E-16,0.,-1.));
#554=DIRECTION('',(-1.,0.,2.46143195915628E-16));
#555=DIRECTION('',(0.,1.,0.));
#556=DIRECTION('',(0.,0.,1.));
#557=DIRECTION('',(0.,-1.,0.));
#558=DIRECTION('',(0.,0.,-1.));
#559=DIRECTION('',(0.,1.,0.));
#560=DIRECTION('',(0.,0.,1.));
#561=DIRECTION('',(0.,-1.,0.));
#562=DIRECTION('',(0.,0.,-1.));
#563=DIRECTION('',(0.,1.,0.));
#564=DIRECTION('',(0.,0.,1.));
#565=DIRECTION('',(0.,1.,0.));
#566=DIRECTION('',(0.,0.,1.));
#567=CARTESIAN_POINT('',(0.,0.,0.));
#568=CARTESIAN_POINT('',(-0.01255,-0.01,-0.003273));
#569=CARTESIAN_POINT('',(-0.01255,-0.01,-0.003273));
#570=CARTESIAN_POINT('',(-0.01255,-0.01,0.025815));
#571=CARTESIAN_POINT('',(-0.01255,-0.01,0.000727000000000029));
#572=CARTESIAN_POINT('',(-0.01255,0.008,0.025815));
#573=CARTESIAN_POINT('',(-0.01255,0.008,0.025815));
#574=CARTESIAN_POINT('',(-0.01255,0.008,-0.003273));
#575=CARTESIAN_POINT('',(-0.01255,0.008,0.000727000000000029));
#576=CARTESIAN_POINT('',(-0.01255,-0.010002,0.000727000000000029));
#577=CARTESIAN_POINT('',(-0.01255,-0.01,-0.003273));
#578=CARTESIAN_POINT('',(-0.01255,0.008,-0.003273));
#579=CARTESIAN_POINT('',(-0.01255,0.008,-0.025773));
#580=CARTESIAN_POINT('',(-0.01255,0.008,-0.025815));
#581=CARTESIAN_POINT('',(-0.01255,-0.01,-0.025815));
#582=CARTESIAN_POINT('',(-0.01255,-0.01,-0.025815));
#583=CARTESIAN_POINT('',(-0.01255,-0.01,-0.003273));
#584=CARTESIAN_POINT('',(-0.01255,-0.01,-0.025773));
#585=CARTESIAN_POINT('',(-0.01255,-0.01,-0.025773));
#586=CARTESIAN_POINT('',(0.,-0.01,-0.032815));
#587=CARTESIAN_POINT('',(0.,0.008,-0.032815));
#588=CARTESIAN_POINT('',(-0.00555,0.008,-0.032815));
#589=CARTESIAN_POINT('',(0.00555,0.008,-0.032815));
#590=CARTESIAN_POINT('',(0.00555,-0.01,-0.032815));
#591=CARTESIAN_POINT('',(0.00555,-0.01,-0.032815));
#592=CARTESIAN_POINT('',(0.,-0.01,-0.032815));
#593=CARTESIAN_POINT('',(-0.00555,-0.01,-0.032815));
#594=CARTESIAN_POINT('',(-0.00555,-0.01,-0.032815));
#595=CARTESIAN_POINT('',(0.01255,-0.01,0.));
#596=CARTESIAN_POINT('',(0.01255,0.008,0.));
#597=CARTESIAN_POINT('',(0.01255,0.008,0.025815));
#598=CARTESIAN_POINT('',(0.01255,0.008,-0.025815));
#599=CARTESIAN_POINT('',(0.01255,-0.01,0.025815));
#600=CARTESIAN_POINT('',(0.01255,-0.01,0.025815));
#601=CARTESIAN_POINT('',(0.01255,-0.01,0.));
#602=CARTESIAN_POINT('',(0.01255,-0.01,-0.025815));
#603=CARTESIAN_POINT('',(0.01255,0.008,-0.025815));
#604=CARTESIAN_POINT('',(-6.93889390390723E-18,-0.01,0.019265));
#605=CARTESIAN_POINT('',(-6.93889390390723E-18,-0.01,0.019265));
#606=CARTESIAN_POINT('',(0.00504999999999999,-0.01,0.019265));
#607=CARTESIAN_POINT('',(-6.93889390390723E-18,0.,0.019265));
#608=CARTESIAN_POINT('',(0.00504999999999999,0.,0.019265));
#609=CARTESIAN_POINT('',(5.20417042793042E-18,-0.01,-0.019265));
#610=CARTESIAN_POINT('',(5.20417042793042E-18,-0.01,-0.019265));
#611=CARTESIAN_POINT('',(0.00505000000000001,-0.01,-0.019265));
#612=CARTESIAN_POINT('',(5.20417042793042E-18,0.,-0.019265));
#613=CARTESIAN_POINT('',(0.00505000000000001,0.,-0.019265));
#614=CARTESIAN_POINT('',(0.,-0.01,0.032815));
#615=CARTESIAN_POINT('',(0.,-0.01,0.032815));
#616=CARTESIAN_POINT('',(-0.00555,-0.01,0.032815));
#617=CARTESIAN_POINT('',(0.00555,-0.01,0.032815));
#618=CARTESIAN_POINT('',(0.00555,-0.01,0.032815));
#619=CARTESIAN_POINT('',(0.00555,0.008,0.032815));
#620=CARTESIAN_POINT('',(0.,0.008,0.032815));
#621=CARTESIAN_POINT('',(-0.00555,0.008,0.032815));
#622=CARTESIAN_POINT('',(-0.00555,-0.01,0.032815));
#623=CARTESIAN_POINT('',(-0.00925,-0.01,0.));
#624=CARTESIAN_POINT('',(-0.03105,-0.01,-0.003273));
#625=CARTESIAN_POINT('',(-0.03105,-0.01,-0.003273));
#626=CARTESIAN_POINT('',(-0.03105,-0.01,-0.00561614575050754));
#627=CARTESIAN_POINT('',(-0.02705,-0.01,-0.00561614575050754));
#628=CARTESIAN_POINT('',(-0.0298784271247463,-0.01,-0.00844457287525373));
#629=CARTESIAN_POINT('',(-0.01255,-0.01,-0.025773));
#630=CARTESIAN_POINT('',(-0.00555,-0.01,-0.025815));
#631=CARTESIAN_POINT('',(0.00555,-0.01,-0.025815));
#632=CARTESIAN_POINT('',(0.00555,-0.01,0.025815));
#633=CARTESIAN_POINT('',(-0.00555,-0.01,0.025815));
#634=CARTESIAN_POINT('',(-0.0218,-0.01,0.000727000000000031));
#635=CARTESIAN_POINT('',(-0.02705,-0.01,0.000727000000000032));
#636=CARTESIAN_POINT('',(-0.02705,-0.01,-0.003273));
#637=CARTESIAN_POINT('',(-0.00925,0.,0.));
#638=CARTESIAN_POINT('',(-0.00925,0.,0.));
#639=CARTESIAN_POINT('',(-0.00925,0.008,0.));
#640=CARTESIAN_POINT('',(-0.0237865,0.008,-0.0145365));
#641=CARTESIAN_POINT('',(-0.0298784271247463,0.008,-0.00844457287525374));
#642=CARTESIAN_POINT('',(-0.02705,0.008,-0.00561614575050754));
#643=CARTESIAN_POINT('',(-0.03105,0.008,-0.00561614575050754));
#644=CARTESIAN_POINT('',(-0.03105,0.008,-0.003273));
#645=CARTESIAN_POINT('',(-0.03105,0.008,-0.003273));
#646=CARTESIAN_POINT('',(-0.02705,0.008,-0.003273));
#647=CARTESIAN_POINT('',(-0.02705,0.008,0.000727000000000032));
#648=CARTESIAN_POINT('',(-0.0218,0.008,0.000727000000000031));
#649=CARTESIAN_POINT('',(-0.00555,0.008,0.025815));
#650=CARTESIAN_POINT('',(0.00555,0.008,0.025815));
#651=CARTESIAN_POINT('',(0.00555,0.008,-0.025815));
#652=CARTESIAN_POINT('',(-0.00555,0.008,-0.025815));
#653=CARTESIAN_POINT('',(-0.0218,-0.010002,0.000727000000000031));
#654=CARTESIAN_POINT('',(-0.02205,0.002,0.000727000000000031));
#655=CARTESIAN_POINT('',(-0.0258,0.002,0.000727000000000032));
#656=CARTESIAN_POINT('',(-0.02705,-0.010002,0.000727000000000032));
#657=CARTESIAN_POINT('',(-0.03105,-0.010002,-0.003273));
#658=CARTESIAN_POINT('',(-0.03105,-0.010002,-0.00561614575050754));
#659=CARTESIAN_POINT('',(-0.03105,-0.010002,-0.003273));
#660=CARTESIAN_POINT('',(-0.02205,0.002,0.00152700000000003));
#661=CARTESIAN_POINT('',(-0.02205,0.002,0.00152700000000003));
#662=CARTESIAN_POINT('',(-0.01905,0.002,0.00152700000000003));
#663=CARTESIAN_POINT('',(-0.02205,0.002,-0.007273));
#664=CARTESIAN_POINT('',(-0.01905,0.002,-0.007273));
#665=CARTESIAN_POINT('',(-0.02205,0.002,0.00152700000000003));
#666=CARTESIAN_POINT('',(-0.02205,0.002,0.00152700000000003));
#667=CARTESIAN_POINT('',(-0.0183,0.002,0.00152700000000003));
#668=CARTESIAN_POINT('',(-0.0218,-0.001,0.00152700000000003));
#669=CARTESIAN_POINT('',(-0.01255,-0.01,-0.025773));
#670=CARTESIAN_POINT('',(-0.0298784271247463,-0.01,-0.00844457287525374));
#671=CARTESIAN_POINT('',(-0.0218,-0.010002,-0.007273));
#672=CARTESIAN_POINT('',(0.00555,-0.01,0.025815));
#673=CARTESIAN_POINT('',(0.00555,-0.01,-0.025815));
#674=CARTESIAN_POINT('',(-0.00555,-0.01,-0.025815));
#675=CARTESIAN_POINT('',(-0.00555,-0.01,0.025815));
#676=CARTESIAN_POINT('',(-0.02705,-0.01,-0.00561614575050754));
#677=CARTESIAN_POINT('',(-0.02705,-0.010002,-0.003273));
#678=MECHANICAL_DESIGN_GEOMETRIC_PRESENTATION_REPRESENTATION('',(#391),
#679);
#679=(
GEOMETRIC_REPRESENTATION_CONTEXT(3)
GLOBAL_UNCERTAINTY_ASSIGNED_CONTEXT((#680))
GLOBAL_UNIT_ASSIGNED_CONTEXT((#683,#682,#681))
REPRESENTATION_CONTEXT('Part 1','TOP_LEVEL_ASSEMBLY_PART')
);
#680=UNCERTAINTY_MEASURE_WITH_UNIT(LENGTH_MEASURE(1.E-8),#683,
'DISTANCE_ACCURACY_VALUE','Maximum Tolerance applied to model');
#681=(
NAMED_UNIT(*)
SI_UNIT($,.STERADIAN.)
SOLID_ANGLE_UNIT()
);
#682=(
NAMED_UNIT(*)
PLANE_ANGLE_UNIT()
SI_UNIT($,.RADIAN.)
);
#683=(
LENGTH_UNIT()
NAMED_UNIT(*)
SI_UNIT($,.METRE.)
);
#684=PRODUCT_DEFINITION_SHAPE('','',#685);
#685=PRODUCT_DEFINITION('','',#687,#686);
#686=PRODUCT_DEFINITION_CONTEXT('',#693,'design');
#687=PRODUCT_DEFINITION_FORMATION_WITH_SPECIFIED_SOURCE('','',#689,
 .NOT_KNOWN.);
#688=PRODUCT_RELATED_PRODUCT_CATEGORY('','',(#689));
#689=PRODUCT('Part 1','Part 1','Part 1',(#691));
#690=PRODUCT_CATEGORY('','');
#691=PRODUCT_CONTEXT('',#693,'mechanical');
#692=APPLICATION_PROTOCOL_DEFINITION('international standard',
'ap242_managed_model_based_3d_engineering',2020,#693);
#693=APPLICATION_CONTEXT('managed model based 3d engineering');
ENDSEC;
END-ISO-10303-21;
