ISO-10303-21;
HEADER;
/* Generated by software containing ST-Developer
 * from STEP Tools, Inc. (www.steptools.com) 
 */
/* OPTION: using custom renumber hook */

FILE_DESCRIPTION(
/* description */ ('STEP AP242 Edition 2',
'CAx-IF Rec.Pracs.---Representation and Presentation of Product Manufa
cturing Information (PMI)---4.0---2014-10-13',
'CAx-IF Rec.Pracs.---3D Tessellated Geometry---0.4---2014-09-14','2;1',
'CAx-IF Rec.Pracs.---User Defined Attributes---1.5---2016-08-15'),
/* implementation_level */ '2;1');

FILE_NAME(
/* name */ 'Primary carriage - Part 1',
/* time_stamp */ '2026-10-04T09:40:53Z',
/* author */ (''),
/* organization */ (''),
/* preprocessor_version */ 'ST-DEVELOPER v20',
/* originating_system */ 'ONSHAPE BY PTC INC, 1.221',
/* authorisation */ '  ');

FILE_SCHEMA (('AP242_MANAGED_MODEL_BASED_3D_ENGINEERING_MIM_LF { 1 0 10303 442 3 1 4 }'));
ENDSEC;

DATA;
#10=SHAPE_REPRESENTATION_RELATIONSHIP('','',#1152,#11);
#11=ADVANCED_BREP_SHAPE_REPRESENTATION('',(#1150),#1936);
#12=CYLINDRICAL_SURFACE('',#1178,0.0051);
#13=CYLINDRICAL_SURFACE('',#1181,0.01);
#14=CYLINDRICAL_SURFACE('',#1184,0.01);
#15=CYLINDRICAL_SURFACE('',#1188,0.01);
#16=CYLINDRICAL_SURFACE('',#1191,0.01);
#17=CYLINDRICAL_SURFACE('',#1198,0.0051);
#18=CYLINDRICAL_SURFACE('',#1201,0.01);
#19=CYLINDRICAL_SURFACE('',#1203,0.01);
#20=CYLINDRICAL_SURFACE('',#1205,0.01);
#21=CYLINDRICAL_SURFACE('',#1208,0.01);
#22=CYLINDRICAL_SURFACE('',#1213,0.015);
#23=CYLINDRICAL_SURFACE('',#1214,0.015);
#24=CYLINDRICAL_SURFACE('',#1215,0.007);
#25=CYLINDRICAL_SURFACE('',#1216,0.007);
#26=CYLINDRICAL_SURFACE('',#1233,0.003);
#27=CYLINDRICAL_SURFACE('',#1236,0.003);
#28=CYLINDRICAL_SURFACE('',#1239,0.003);
#29=CYLINDRICAL_SURFACE('',#1242,0.003);
#30=CYLINDRICAL_SURFACE('',#1246,0.0113);
#31=CYLINDRICAL_SURFACE('',#1258,0.0017);
#32=CYLINDRICAL_SURFACE('',#1261,0.0017);
#33=CYLINDRICAL_SURFACE('',#1264,0.0017);
#34=CYLINDRICAL_SURFACE('',#1267,0.0017);
#35=CYLINDRICAL_SURFACE('',#1270,0.01);
#36=CYLINDRICAL_SURFACE('',#1271,0.01);
#37=CIRCLE('',#1156,0.01);
#38=CIRCLE('',#1157,0.01);
#39=CIRCLE('',#1159,0.01);
#40=CIRCLE('',#1160,0.01);
#41=CIRCLE('',#1161,0.01);
#42=CIRCLE('',#1162,0.01);
#43=CIRCLE('',#1167,0.007);
#44=CIRCLE('',#1168,0.007);
#45=CIRCLE('',#1169,0.015);
#46=CIRCLE('',#1170,0.015);
#47=CIRCLE('',#1172,0.007);
#48=CIRCLE('',#1173,0.015);
#49=CIRCLE('',#1174,0.015);
#50=CIRCLE('',#1175,0.007);
#51=CIRCLE('',#1177,0.0051);
#52=CIRCLE('',#1179,0.0051);
#53=CIRCLE('',#1182,0.01);
#54=CIRCLE('',#1183,0.01);
#55=CIRCLE('',#1185,0.01);
#56=CIRCLE('',#1186,0.01);
#57=CIRCLE('',#1187,0.01);
#58=CIRCLE('',#1189,0.01);
#59=CIRCLE('',#1190,0.01);
#60=CIRCLE('',#1192,0.01);
#61=CIRCLE('',#1193,0.01);
#62=CIRCLE('',#1197,0.0051);
#63=CIRCLE('',#1199,0.0051);
#64=CIRCLE('',#1202,0.01);
#65=CIRCLE('',#1204,0.01);
#66=CIRCLE('',#1206,0.01);
#67=CIRCLE('',#1207,0.01);
#68=CIRCLE('',#1209,0.01);
#69=CIRCLE('',#1228,0.0113);
#70=CIRCLE('',#1229,0.0017);
#71=CIRCLE('',#1230,0.0017);
#72=CIRCLE('',#1231,0.0017);
#73=CIRCLE('',#1232,0.0017);
#74=CIRCLE('',#1234,0.003);
#75=CIRCLE('',#1235,0.003);
#76=CIRCLE('',#1237,0.003);
#77=CIRCLE('',#1238,0.003);
#78=CIRCLE('',#1240,0.003);
#79=CIRCLE('',#1241,0.003);
#80=CIRCLE('',#1243,0.003);
#81=CIRCLE('',#1244,0.003);
#82=CIRCLE('',#1247,0.0113);
#83=CIRCLE('',#1249,0.01);
#84=CIRCLE('',#1250,0.01);
#85=CIRCLE('',#1256,0.01);
#86=CIRCLE('',#1257,0.01);
#87=CIRCLE('',#1259,0.0017);
#88=CIRCLE('',#1262,0.0017);
#89=CIRCLE('',#1265,0.0017);
#90=CIRCLE('',#1268,0.0017);
#91=ORIENTED_EDGE('',*,*,#397,.T.);
#92=ORIENTED_EDGE('',*,*,#398,.T.);
#93=ORIENTED_EDGE('',*,*,#399,.F.);
#94=ORIENTED_EDGE('',*,*,#400,.F.);
#95=ORIENTED_EDGE('',*,*,#401,.F.);
#96=ORIENTED_EDGE('',*,*,#402,.T.);
#97=ORIENTED_EDGE('',*,*,#403,.F.);
#98=ORIENTED_EDGE('',*,*,#404,.T.);
#99=ORIENTED_EDGE('',*,*,#405,.T.);
#100=ORIENTED_EDGE('',*,*,#406,.T.);
#101=ORIENTED_EDGE('',*,*,#407,.T.);
#102=ORIENTED_EDGE('',*,*,#408,.T.);
#103=ORIENTED_EDGE('',*,*,#409,.T.);
#104=ORIENTED_EDGE('',*,*,#410,.F.);
#105=ORIENTED_EDGE('',*,*,#411,.T.);
#106=ORIENTED_EDGE('',*,*,#412,.T.);
#107=ORIENTED_EDGE('',*,*,#413,.T.);
#108=ORIENTED_EDGE('',*,*,#414,.T.);
#109=ORIENTED_EDGE('',*,*,#415,.T.);
#110=ORIENTED_EDGE('',*,*,#416,.F.);
#111=ORIENTED_EDGE('',*,*,#417,.F.);
#112=ORIENTED_EDGE('',*,*,#418,.T.);
#113=ORIENTED_EDGE('',*,*,#402,.F.);
#114=ORIENTED_EDGE('',*,*,#419,.F.);
#115=ORIENTED_EDGE('',*,*,#420,.F.);
#116=ORIENTED_EDGE('',*,*,#421,.T.);
#117=ORIENTED_EDGE('',*,*,#422,.F.);
#118=ORIENTED_EDGE('',*,*,#423,.T.);
#119=ORIENTED_EDGE('',*,*,#424,.T.);
#120=ORIENTED_EDGE('',*,*,#425,.F.);
#121=ORIENTED_EDGE('',*,*,#426,.T.);
#122=ORIENTED_EDGE('',*,*,#427,.F.);
#123=ORIENTED_EDGE('',*,*,#428,.T.);
#124=ORIENTED_EDGE('',*,*,#429,.T.);
#125=ORIENTED_EDGE('',*,*,#430,.F.);
#126=ORIENTED_EDGE('',*,*,#431,.F.);
#127=ORIENTED_EDGE('',*,*,#432,.T.);
#128=ORIENTED_EDGE('',*,*,#433,.T.);
#129=ORIENTED_EDGE('',*,*,#434,.T.);
#130=ORIENTED_EDGE('',*,*,#433,.F.);
#131=ORIENTED_EDGE('',*,*,#435,.T.);
#132=ORIENTED_EDGE('',*,*,#406,.F.);
#133=ORIENTED_EDGE('',*,*,#436,.T.);
#134=ORIENTED_EDGE('',*,*,#427,.T.);
#135=ORIENTED_EDGE('',*,*,#437,.T.);
#136=ORIENTED_EDGE('',*,*,#438,.T.);
#137=ORIENTED_EDGE('',*,*,#425,.T.);
#138=ORIENTED_EDGE('',*,*,#439,.T.);
#139=ORIENTED_EDGE('',*,*,#440,.T.);
#140=ORIENTED_EDGE('',*,*,#441,.F.);
#141=ORIENTED_EDGE('',*,*,#408,.F.);
#142=ORIENTED_EDGE('',*,*,#442,.T.);
#143=ORIENTED_EDGE('',*,*,#431,.T.);
#144=ORIENTED_EDGE('',*,*,#443,.F.);
#145=ORIENTED_EDGE('',*,*,#444,.T.);
#146=ORIENTED_EDGE('',*,*,#423,.F.);
#147=ORIENTED_EDGE('',*,*,#445,.T.);
#148=ORIENTED_EDGE('',*,*,#446,.F.);
#149=ORIENTED_EDGE('',*,*,#429,.F.);
#150=ORIENTED_EDGE('',*,*,#447,.T.);
#151=ORIENTED_EDGE('',*,*,#404,.F.);
#152=ORIENTED_EDGE('',*,*,#448,.T.);
#153=ORIENTED_EDGE('',*,*,#449,.T.);
#154=ORIENTED_EDGE('',*,*,#450,.F.);
#155=ORIENTED_EDGE('',*,*,#450,.T.);
#156=ORIENTED_EDGE('',*,*,#451,.F.);
#157=ORIENTED_EDGE('',*,*,#416,.T.);
#158=ORIENTED_EDGE('',*,*,#452,.T.);
#159=ORIENTED_EDGE('',*,*,#453,.F.);
#160=ORIENTED_EDGE('',*,*,#454,.T.);
#161=ORIENTED_EDGE('',*,*,#452,.F.);
#162=ORIENTED_EDGE('',*,*,#415,.F.);
#163=ORIENTED_EDGE('',*,*,#455,.F.);
#164=ORIENTED_EDGE('',*,*,#456,.F.);
#165=ORIENTED_EDGE('',*,*,#457,.F.);
#166=ORIENTED_EDGE('',*,*,#458,.F.);
#167=ORIENTED_EDGE('',*,*,#459,.F.);
#168=ORIENTED_EDGE('',*,*,#460,.F.);
#169=ORIENTED_EDGE('',*,*,#413,.F.);
#170=ORIENTED_EDGE('',*,*,#454,.F.);
#171=ORIENTED_EDGE('',*,*,#461,.F.);
#172=ORIENTED_EDGE('',*,*,#462,.F.);
#173=ORIENTED_EDGE('',*,*,#458,.T.);
#174=ORIENTED_EDGE('',*,*,#463,.F.);
#175=ORIENTED_EDGE('',*,*,#411,.F.);
#176=ORIENTED_EDGE('',*,*,#464,.F.);
#177=ORIENTED_EDGE('',*,*,#397,.F.);
#178=ORIENTED_EDGE('',*,*,#465,.F.);
#179=ORIENTED_EDGE('',*,*,#456,.T.);
#180=ORIENTED_EDGE('',*,*,#453,.T.);
#181=ORIENTED_EDGE('',*,*,#457,.T.);
#182=ORIENTED_EDGE('',*,*,#465,.T.);
#183=ORIENTED_EDGE('',*,*,#412,.F.);
#184=ORIENTED_EDGE('',*,*,#463,.T.);
#185=ORIENTED_EDGE('',*,*,#461,.T.);
#186=ORIENTED_EDGE('',*,*,#451,.T.);
#187=ORIENTED_EDGE('',*,*,#466,.F.);
#188=ORIENTED_EDGE('',*,*,#459,.T.);
#189=ORIENTED_EDGE('',*,*,#462,.T.);
#190=ORIENTED_EDGE('',*,*,#410,.T.);
#191=ORIENTED_EDGE('',*,*,#467,.T.);
#192=ORIENTED_EDGE('',*,*,#467,.F.);
#193=ORIENTED_EDGE('',*,*,#468,.T.);
#194=ORIENTED_EDGE('',*,*,#421,.F.);
#195=ORIENTED_EDGE('',*,*,#469,.F.);
#196=ORIENTED_EDGE('',*,*,#470,.T.);
#197=ORIENTED_EDGE('',*,*,#471,.F.);
#198=ORIENTED_EDGE('',*,*,#471,.T.);
#199=ORIENTED_EDGE('',*,*,#472,.T.);
#200=ORIENTED_EDGE('',*,*,#473,.T.);
#201=ORIENTED_EDGE('',*,*,#422,.T.);
#202=ORIENTED_EDGE('',*,*,#474,.T.);
#203=ORIENTED_EDGE('',*,*,#475,.T.);
#204=ORIENTED_EDGE('',*,*,#469,.T.);
#205=ORIENTED_EDGE('',*,*,#420,.T.);
#206=ORIENTED_EDGE('',*,*,#476,.T.);
#207=ORIENTED_EDGE('',*,*,#417,.T.);
#208=ORIENTED_EDGE('',*,*,#473,.F.);
#209=ORIENTED_EDGE('',*,*,#477,.T.);
#210=ORIENTED_EDGE('',*,*,#399,.T.);
#211=ORIENTED_EDGE('',*,*,#419,.T.);
#212=ORIENTED_EDGE('',*,*,#401,.T.);
#213=ORIENTED_EDGE('',*,*,#478,.T.);
#214=ORIENTED_EDGE('',*,*,#474,.F.);
#215=ORIENTED_EDGE('',*,*,#470,.F.);
#216=ORIENTED_EDGE('',*,*,#475,.F.);
#217=ORIENTED_EDGE('',*,*,#478,.F.);
#218=ORIENTED_EDGE('',*,*,#400,.T.);
#219=ORIENTED_EDGE('',*,*,#477,.F.);
#220=ORIENTED_EDGE('',*,*,#472,.F.);
#221=ORIENTED_EDGE('',*,*,#468,.F.);
#222=ORIENTED_EDGE('',*,*,#440,.F.);
#223=ORIENTED_EDGE('',*,*,#479,.T.);
#224=ORIENTED_EDGE('',*,*,#443,.T.);
#225=ORIENTED_EDGE('',*,*,#434,.F.);
#226=ORIENTED_EDGE('',*,*,#480,.F.);
#227=ORIENTED_EDGE('',*,*,#437,.F.);
#228=ORIENTED_EDGE('',*,*,#430,.T.);
#229=ORIENTED_EDGE('',*,*,#446,.T.);
#230=ORIENTED_EDGE('',*,*,#439,.F.);
#231=ORIENTED_EDGE('',*,*,#424,.F.);
#232=ORIENTED_EDGE('',*,*,#444,.F.);
#233=ORIENTED_EDGE('',*,*,#479,.F.);
#234=ORIENTED_EDGE('',*,*,#438,.F.);
#235=ORIENTED_EDGE('',*,*,#480,.T.);
#236=ORIENTED_EDGE('',*,*,#445,.F.);
#237=ORIENTED_EDGE('',*,*,#426,.F.);
#238=ORIENTED_EDGE('',*,*,#435,.F.);
#239=ORIENTED_EDGE('',*,*,#432,.F.);
#240=ORIENTED_EDGE('',*,*,#442,.F.);
#241=ORIENTED_EDGE('',*,*,#407,.F.);
#242=ORIENTED_EDGE('',*,*,#436,.F.);
#243=ORIENTED_EDGE('',*,*,#405,.F.);
#244=ORIENTED_EDGE('',*,*,#447,.F.);
#245=ORIENTED_EDGE('',*,*,#428,.F.);
#246=ORIENTED_EDGE('',*,*,#398,.F.);
#247=ORIENTED_EDGE('',*,*,#464,.T.);
#248=ORIENTED_EDGE('',*,*,#455,.T.);
#249=ORIENTED_EDGE('',*,*,#481,.T.);
#250=ORIENTED_EDGE('',*,*,#482,.T.);
#251=ORIENTED_EDGE('',*,*,#476,.F.);
#252=ORIENTED_EDGE('',*,*,#483,.T.);
#253=ORIENTED_EDGE('',*,*,#460,.T.);
#254=ORIENTED_EDGE('',*,*,#484,.F.);
#255=ORIENTED_EDGE('',*,*,#485,.T.);
#256=ORIENTED_EDGE('',*,*,#486,.T.);
#257=ORIENTED_EDGE('',*,*,#487,.F.);
#258=ORIENTED_EDGE('',*,*,#488,.T.);
#259=ORIENTED_EDGE('',*,*,#489,.T.);
#260=ORIENTED_EDGE('',*,*,#490,.T.);
#261=ORIENTED_EDGE('',*,*,#485,.F.);
#262=ORIENTED_EDGE('',*,*,#491,.T.);
#263=ORIENTED_EDGE('',*,*,#492,.T.);
#264=ORIENTED_EDGE('',*,*,#493,.T.);
#265=ORIENTED_EDGE('',*,*,#489,.F.);
#266=ORIENTED_EDGE('',*,*,#494,.T.);
#267=ORIENTED_EDGE('',*,*,#495,.T.);
#268=ORIENTED_EDGE('',*,*,#496,.F.);
#269=ORIENTED_EDGE('',*,*,#497,.T.);
#270=ORIENTED_EDGE('',*,*,#498,.T.);
#271=ORIENTED_EDGE('',*,*,#492,.F.);
#272=ORIENTED_EDGE('',*,*,#487,.T.);
#273=ORIENTED_EDGE('',*,*,#499,.T.);
#274=ORIENTED_EDGE('',*,*,#500,.F.);
#275=ORIENTED_EDGE('',*,*,#501,.F.);
#276=ORIENTED_EDGE('',*,*,#502,.T.);
#277=ORIENTED_EDGE('',*,*,#502,.F.);
#278=ORIENTED_EDGE('',*,*,#503,.F.);
#279=ORIENTED_EDGE('',*,*,#504,.F.);
#280=ORIENTED_EDGE('',*,*,#449,.F.);
#281=ORIENTED_EDGE('',*,*,#505,.F.);
#282=ORIENTED_EDGE('',*,*,#506,.F.);
#283=ORIENTED_EDGE('',*,*,#495,.F.);
#284=ORIENTED_EDGE('',*,*,#494,.F.);
#285=ORIENTED_EDGE('',*,*,#491,.F.);
#286=ORIENTED_EDGE('',*,*,#488,.F.);
#287=ORIENTED_EDGE('',*,*,#504,.T.);
#288=ORIENTED_EDGE('',*,*,#507,.T.);
#289=ORIENTED_EDGE('',*,*,#508,.T.);
#290=ORIENTED_EDGE('',*,*,#509,.F.);
#291=ORIENTED_EDGE('',*,*,#510,.T.);
#292=ORIENTED_EDGE('',*,*,#484,.T.);
#293=ORIENTED_EDGE('',*,*,#466,.T.);
#294=ORIENTED_EDGE('',*,*,#409,.F.);
#295=ORIENTED_EDGE('',*,*,#441,.T.);
#296=ORIENTED_EDGE('',*,*,#448,.F.);
#297=ORIENTED_EDGE('',*,*,#403,.T.);
#298=ORIENTED_EDGE('',*,*,#418,.F.);
#299=ORIENTED_EDGE('',*,*,#482,.F.);
#300=ORIENTED_EDGE('',*,*,#511,.T.);
#301=ORIENTED_EDGE('',*,*,#512,.T.);
#302=ORIENTED_EDGE('',*,*,#513,.T.);
#303=ORIENTED_EDGE('',*,*,#514,.F.);
#304=ORIENTED_EDGE('',*,*,#505,.T.);
#305=ORIENTED_EDGE('',*,*,#515,.F.);
#306=ORIENTED_EDGE('',*,*,#493,.F.);
#307=ORIENTED_EDGE('',*,*,#498,.F.);
#308=ORIENTED_EDGE('',*,*,#516,.F.);
#309=ORIENTED_EDGE('',*,*,#517,.F.);
#310=ORIENTED_EDGE('',*,*,#518,.F.);
#311=ORIENTED_EDGE('',*,*,#499,.F.);
#312=ORIENTED_EDGE('',*,*,#486,.F.);
#313=ORIENTED_EDGE('',*,*,#490,.F.);
#314=ORIENTED_EDGE('',*,*,#519,.T.);
#315=ORIENTED_EDGE('',*,*,#520,.T.);
#316=ORIENTED_EDGE('',*,*,#521,.T.);
#317=ORIENTED_EDGE('',*,*,#522,.T.);
#318=ORIENTED_EDGE('',*,*,#523,.F.);
#319=ORIENTED_EDGE('',*,*,#524,.T.);
#320=ORIENTED_EDGE('',*,*,#525,.F.);
#321=ORIENTED_EDGE('',*,*,#526,.T.);
#322=ORIENTED_EDGE('',*,*,#527,.F.);
#323=ORIENTED_EDGE('',*,*,#528,.T.);
#324=ORIENTED_EDGE('',*,*,#529,.F.);
#325=ORIENTED_EDGE('',*,*,#530,.T.);
#326=ORIENTED_EDGE('',*,*,#531,.F.);
#327=ORIENTED_EDGE('',*,*,#532,.T.);
#328=ORIENTED_EDGE('',*,*,#533,.T.);
#329=ORIENTED_EDGE('',*,*,#534,.T.);
#330=ORIENTED_EDGE('',*,*,#535,.F.);
#331=ORIENTED_EDGE('',*,*,#515,.T.);
#332=ORIENTED_EDGE('',*,*,#533,.F.);
#333=ORIENTED_EDGE('',*,*,#536,.T.);
#334=ORIENTED_EDGE('',*,*,#512,.F.);
#335=ORIENTED_EDGE('',*,*,#537,.T.);
#336=ORIENTED_EDGE('',*,*,#509,.T.);
#337=ORIENTED_EDGE('',*,*,#538,.T.);
#338=ORIENTED_EDGE('',*,*,#530,.F.);
#339=ORIENTED_EDGE('',*,*,#528,.F.);
#340=ORIENTED_EDGE('',*,*,#526,.F.);
#341=ORIENTED_EDGE('',*,*,#524,.F.);
#342=ORIENTED_EDGE('',*,*,#535,.T.);
#343=ORIENTED_EDGE('',*,*,#511,.F.);
#344=ORIENTED_EDGE('',*,*,#481,.F.);
#345=ORIENTED_EDGE('',*,*,#414,.F.);
#346=ORIENTED_EDGE('',*,*,#483,.F.);
#347=ORIENTED_EDGE('',*,*,#510,.F.);
#348=ORIENTED_EDGE('',*,*,#537,.F.);
#349=ORIENTED_EDGE('',*,*,#516,.T.);
#350=ORIENTED_EDGE('',*,*,#497,.F.);
#351=ORIENTED_EDGE('',*,*,#539,.F.);
#352=ORIENTED_EDGE('',*,*,#540,.T.);
#353=ORIENTED_EDGE('',*,*,#517,.T.);
#354=ORIENTED_EDGE('',*,*,#540,.F.);
#355=ORIENTED_EDGE('',*,*,#541,.F.);
#356=ORIENTED_EDGE('',*,*,#542,.T.);
#357=ORIENTED_EDGE('',*,*,#518,.T.);
#358=ORIENTED_EDGE('',*,*,#542,.F.);
#359=ORIENTED_EDGE('',*,*,#543,.F.);
#360=ORIENTED_EDGE('',*,*,#500,.T.);
#361=ORIENTED_EDGE('',*,*,#514,.T.);
#362=ORIENTED_EDGE('',*,*,#544,.T.);
#363=ORIENTED_EDGE('',*,*,#531,.T.);
#364=ORIENTED_EDGE('',*,*,#545,.T.);
#365=ORIENTED_EDGE('',*,*,#507,.F.);
#366=ORIENTED_EDGE('',*,*,#503,.T.);
#367=ORIENTED_EDGE('',*,*,#501,.T.);
#368=ORIENTED_EDGE('',*,*,#543,.T.);
#369=ORIENTED_EDGE('',*,*,#541,.T.);
#370=ORIENTED_EDGE('',*,*,#539,.T.);
#371=ORIENTED_EDGE('',*,*,#496,.T.);
#372=ORIENTED_EDGE('',*,*,#506,.T.);
#373=ORIENTED_EDGE('',*,*,#546,.T.);
#374=ORIENTED_EDGE('',*,*,#519,.F.);
#375=ORIENTED_EDGE('',*,*,#546,.F.);
#376=ORIENTED_EDGE('',*,*,#529,.T.);
#377=ORIENTED_EDGE('',*,*,#547,.T.);
#378=ORIENTED_EDGE('',*,*,#520,.F.);
#379=ORIENTED_EDGE('',*,*,#547,.F.);
#380=ORIENTED_EDGE('',*,*,#527,.T.);
#381=ORIENTED_EDGE('',*,*,#548,.T.);
#382=ORIENTED_EDGE('',*,*,#521,.F.);
#383=ORIENTED_EDGE('',*,*,#548,.F.);
#384=ORIENTED_EDGE('',*,*,#525,.T.);
#385=ORIENTED_EDGE('',*,*,#549,.T.);
#386=ORIENTED_EDGE('',*,*,#522,.F.);
#387=ORIENTED_EDGE('',*,*,#549,.F.);
#388=ORIENTED_EDGE('',*,*,#523,.T.);
#389=ORIENTED_EDGE('',*,*,#536,.F.);
#390=ORIENTED_EDGE('',*,*,#532,.F.);
#391=ORIENTED_EDGE('',*,*,#544,.F.);
#392=ORIENTED_EDGE('',*,*,#513,.F.);
#393=ORIENTED_EDGE('',*,*,#538,.F.);
#394=ORIENTED_EDGE('',*,*,#508,.F.);
#395=ORIENTED_EDGE('',*,*,#545,.F.);
#396=ORIENTED_EDGE('',*,*,#534,.F.);
#397=EDGE_CURVE('',#550,#551,#658,.F.);
#398=EDGE_CURVE('',#551,#552,#659,.T.);
#399=EDGE_CURVE('',#553,#552,#660,.F.);
#400=EDGE_CURVE('',#554,#553,#661,.T.);
#401=EDGE_CURVE('',#555,#554,#662,.T.);
#402=EDGE_CURVE('',#555,#556,#663,.T.);
#403=EDGE_CURVE('',#557,#556,#664,.T.);
#404=EDGE_CURVE('',#557,#558,#665,.T.);
#405=EDGE_CURVE('',#558,#559,#666,.F.);
#406=EDGE_CURVE('',#559,#560,#667,.T.);
#407=EDGE_CURVE('',#560,#561,#668,.T.);
#408=EDGE_CURVE('',#561,#562,#669,.T.);
#409=EDGE_CURVE('',#562,#563,#670,.T.);
#410=EDGE_CURVE('',#564,#563,#671,.T.);
#411=EDGE_CURVE('',#564,#565,#672,.T.);
#412=EDGE_CURVE('',#565,#550,#673,.T.);
#413=EDGE_CURVE('',#566,#567,#37,.T.);
#414=EDGE_CURVE('',#567,#568,#674,.T.);
#415=EDGE_CURVE('',#568,#569,#38,.T.);
#416=EDGE_CURVE('',#566,#569,#675,.T.);
#417=EDGE_CURVE('',#570,#571,#39,.F.);
#418=EDGE_CURVE('',#570,#556,#676,.T.);
#419=EDGE_CURVE('',#572,#555,#40,.F.);
#420=EDGE_CURVE('',#573,#572,#41,.T.);
#421=EDGE_CURVE('',#573,#574,#677,.T.);
#422=EDGE_CURVE('',#571,#574,#42,.T.);
#423=EDGE_CURVE('',#575,#576,#678,.T.);
#424=EDGE_CURVE('',#576,#577,#679,.F.);
#425=EDGE_CURVE('',#578,#577,#680,.T.);
#426=EDGE_CURVE('',#578,#575,#681,.T.);
#427=EDGE_CURVE('',#579,#580,#682,.T.);
#428=EDGE_CURVE('',#579,#581,#683,.T.);
#429=EDGE_CURVE('',#581,#582,#684,.T.);
#430=EDGE_CURVE('',#580,#582,#685,.T.);
#431=EDGE_CURVE('',#583,#584,#686,.F.);
#432=EDGE_CURVE('',#583,#585,#687,.T.);
#433=EDGE_CURVE('',#585,#586,#688,.F.);
#434=EDGE_CURVE('',#586,#584,#689,.F.);
#435=EDGE_CURVE('',#585,#560,#43,.F.);
#436=EDGE_CURVE('',#559,#579,#44,.F.);
#437=EDGE_CURVE('',#580,#587,#690,.T.);
#438=EDGE_CURVE('',#587,#578,#45,.T.);
#439=EDGE_CURVE('',#577,#588,#46,.T.);
#440=EDGE_CURVE('',#588,#586,#691,.T.);
#441=EDGE_CURVE('',#562,#589,#692,.T.);
#442=EDGE_CURVE('',#561,#583,#47,.T.);
#443=EDGE_CURVE('',#590,#584,#693,.T.);
#444=EDGE_CURVE('',#590,#576,#48,.F.);
#445=EDGE_CURVE('',#575,#591,#49,.F.);
#446=EDGE_CURVE('',#582,#591,#694,.T.);
#447=EDGE_CURVE('',#581,#558,#50,.T.);
#448=EDGE_CURVE('',#557,#592,#695,.T.);
#449=EDGE_CURVE('',#592,#589,#696,.T.);
#450=EDGE_CURVE('',#593,#593,#51,.T.);
#451=EDGE_CURVE('',#594,#594,#52,.T.);
#452=EDGE_CURVE('',#569,#595,#697,.T.);
#453=EDGE_CURVE('',#596,#595,#698,.T.);
#454=EDGE_CURVE('',#596,#566,#699,.F.);
#455=EDGE_CURVE('',#597,#568,#53,.T.);
#456=EDGE_CURVE('',#598,#597,#700,.F.);
#457=EDGE_CURVE('',#595,#598,#54,.F.);
#458=EDGE_CURVE('',#599,#600,#701,.T.);
#459=EDGE_CURVE('',#601,#599,#55,.T.);
#460=EDGE_CURVE('',#567,#601,#56,.T.);
#461=EDGE_CURVE('',#600,#596,#57,.F.);
#462=EDGE_CURVE('',#599,#564,#58,.F.);
#463=EDGE_CURVE('',#565,#600,#59,.T.);
#464=EDGE_CURVE('',#551,#597,#60,.F.);
#465=EDGE_CURVE('',#598,#550,#61,.T.);
#466=EDGE_CURVE('',#601,#563,#702,.T.);
#467=EDGE_CURVE('',#602,#602,#62,.T.);
#468=EDGE_CURVE('',#603,#603,#63,.T.);
#469=EDGE_CURVE('',#604,#573,#703,.F.);
#470=EDGE_CURVE('',#604,#605,#704,.T.);
#471=EDGE_CURVE('',#574,#605,#705,.T.);
#472=EDGE_CURVE('',#605,#606,#64,.F.);
#473=EDGE_CURVE('',#606,#571,#706,.F.);
#474=EDGE_CURVE('',#572,#607,#707,.T.);
#475=EDGE_CURVE('',#607,#604,#65,.F.);
#476=EDGE_CURVE('',#552,#570,#66,.F.);
#477=EDGE_CURVE('',#606,#553,#67,.T.);
#478=EDGE_CURVE('',#554,#607,#68,.T.);
#479=EDGE_CURVE('',#588,#590,#708,.T.);
#480=EDGE_CURVE('',#587,#591,#709,.T.);
#481=EDGE_CURVE('',#568,#608,#710,.T.);
#482=EDGE_CURVE('',#608,#570,#711,.T.);
#483=EDGE_CURVE('',#609,#567,#712,.T.);
#484=EDGE_CURVE('',#609,#601,#713,.T.);
#485=EDGE_CURVE('',#610,#611,#714,.T.);
#486=EDGE_CURVE('',#611,#612,#715,.T.);
#487=EDGE_CURVE('',#613,#612,#716,.T.);
#488=EDGE_CURVE('',#613,#610,#717,.T.);
#489=EDGE_CURVE('',#614,#615,#718,.T.);
#490=EDGE_CURVE('',#615,#611,#719,.T.);
#491=EDGE_CURVE('',#610,#614,#720,.T.);
#492=EDGE_CURVE('',#616,#617,#721,.T.);
#493=EDGE_CURVE('',#617,#615,#722,.T.);
#494=EDGE_CURVE('',#614,#616,#723,.T.);
#495=EDGE_CURVE('',#616,#618,#724,.T.);
#496=EDGE_CURVE('',#619,#618,#725,.T.);
#497=EDGE_CURVE('',#619,#620,#726,.T.);
#498=EDGE_CURVE('',#620,#617,#727,.T.);
#499=EDGE_CURVE('',#612,#621,#728,.T.);
#500=EDGE_CURVE('',#622,#621,#729,.T.);
#501=EDGE_CURVE('',#623,#622,#730,.T.);
#502=EDGE_CURVE('',#623,#613,#731,.T.);
#503=EDGE_CURVE('',#624,#623,#732,.T.);
#504=EDGE_CURVE('',#589,#624,#733,.T.);
#505=EDGE_CURVE('',#625,#592,#734,.T.);
#506=EDGE_CURVE('',#618,#625,#735,.T.);
#507=EDGE_CURVE('',#624,#626,#736,.T.);
#508=EDGE_CURVE('',#626,#627,#737,.F.);
#509=EDGE_CURVE('',#628,#627,#738,.T.);
#510=EDGE_CURVE('',#628,#609,#739,.T.);
#511=EDGE_CURVE('',#608,#629,#740,.T.);
#512=EDGE_CURVE('',#629,#630,#741,.T.);
#513=EDGE_CURVE('',#630,#631,#742,.T.);
#514=EDGE_CURVE('',#625,#631,#743,.T.);
#515=EDGE_CURVE('',#632,#632,#69,.T.);
#516=EDGE_CURVE('',#633,#620,#744,.T.);
#517=EDGE_CURVE('',#634,#633,#745,.T.);
#518=EDGE_CURVE('',#621,#634,#746,.T.);
#519=EDGE_CURVE('',#635,#635,#70,.T.);
#520=EDGE_CURVE('',#636,#636,#71,.T.);
#521=EDGE_CURVE('',#637,#637,#72,.T.);
#522=EDGE_CURVE('',#638,#638,#73,.T.);
#523=EDGE_CURVE('',#639,#639,#74,.T.);
#524=EDGE_CURVE('',#640,#640,#75,.T.);
#525=EDGE_CURVE('',#641,#641,#76,.T.);
#526=EDGE_CURVE('',#642,#642,#77,.T.);
#527=EDGE_CURVE('',#643,#643,#78,.T.);
#528=EDGE_CURVE('',#644,#644,#79,.T.);
#529=EDGE_CURVE('',#645,#645,#80,.T.);
#530=EDGE_CURVE('',#646,#646,#81,.T.);
#531=EDGE_CURVE('',#647,#648,#747,.T.);
#532=EDGE_CURVE('',#647,#649,#748,.F.);
#533=EDGE_CURVE('',#649,#650,#749,.T.);
#534=EDGE_CURVE('',#650,#648,#750,.T.);
#535=EDGE_CURVE('',#651,#651,#82,.T.);
#536=EDGE_CURVE('',#649,#630,#83,.T.);
#537=EDGE_CURVE('',#629,#628,#751,.T.);
#538=EDGE_CURVE('',#627,#650,#84,.T.);
#539=EDGE_CURVE('',#652,#619,#752,.T.);
#540=EDGE_CURVE('',#652,#633,#753,.T.);
#541=EDGE_CURVE('',#653,#652,#754,.T.);
#542=EDGE_CURVE('',#653,#634,#755,.T.);
#543=EDGE_CURVE('',#622,#653,#756,.T.);
#544=EDGE_CURVE('',#631,#647,#85,.F.);
#545=EDGE_CURVE('',#648,#626,#86,.F.);
#546=EDGE_CURVE('',#654,#654,#87,.T.);
#547=EDGE_CURVE('',#655,#655,#88,.T.);
#548=EDGE_CURVE('',#656,#656,#89,.T.);
#549=EDGE_CURVE('',#657,#657,#90,.T.);
#550=VERTEX_POINT('',#1612);
#551=VERTEX_POINT('',#1613);
#552=VERTEX_POINT('',#1615);
#553=VERTEX_POINT('',#1617);
#554=VERTEX_POINT('',#1619);
#555=VERTEX_POINT('',#1621);
#556=VERTEX_POINT('',#1623);
#557=VERTEX_POINT('',#1625);
#558=VERTEX_POINT('',#1627);
#559=VERTEX_POINT('',#1629);
#560=VERTEX_POINT('',#1631);
#561=VERTEX_POINT('',#1633);
#562=VERTEX_POINT('',#1635);
#563=VERTEX_POINT('',#1637);
#564=VERTEX_POINT('',#1639);
#565=VERTEX_POINT('',#1641);
#566=VERTEX_POINT('',#1645);
#567=VERTEX_POINT('',#1646);
#568=VERTEX_POINT('',#1648);
#569=VERTEX_POINT('',#1650);
#570=VERTEX_POINT('',#1654);
#571=VERTEX_POINT('',#1655);
#572=VERTEX_POINT('',#1658);
#573=VERTEX_POINT('',#1660);
#574=VERTEX_POINT('',#1662);
#575=VERTEX_POINT('',#1666);
#576=VERTEX_POINT('',#1667);
#577=VERTEX_POINT('',#1669);
#578=VERTEX_POINT('',#1671);
#579=VERTEX_POINT('',#1675);
#580=VERTEX_POINT('',#1676);
#581=VERTEX_POINT('',#1678);
#582=VERTEX_POINT('',#1680);
#583=VERTEX_POINT('',#1684);
#584=VERTEX_POINT('',#1685);
#585=VERTEX_POINT('',#1687);
#586=VERTEX_POINT('',#1689);
#587=VERTEX_POINT('',#1695);
#588=VERTEX_POINT('',#1698);
#589=VERTEX_POINT('',#1702);
#590=VERTEX_POINT('',#1705);
#591=VERTEX_POINT('',#1708);
#592=VERTEX_POINT('',#1712);
#593=VERTEX_POINT('',#1716);
#594=VERTEX_POINT('',#1719);
#595=VERTEX_POINT('',#1722);
#596=VERTEX_POINT('',#1724);
#597=VERTEX_POINT('',#1728);
#598=VERTEX_POINT('',#1730);
#599=VERTEX_POINT('',#1734);
#600=VERTEX_POINT('',#1735);
#601=VERTEX_POINT('',#1737);
#602=VERTEX_POINT('',#1751);
#603=VERTEX_POINT('',#1754);
#604=VERTEX_POINT('',#1757);
#605=VERTEX_POINT('',#1759);
#606=VERTEX_POINT('',#1763);
#607=VERTEX_POINT('',#1767);
#608=VERTEX_POINT('',#1785);
#609=VERTEX_POINT('',#1789);
#610=VERTEX_POINT('',#1793);
#611=VERTEX_POINT('',#1794);
#612=VERTEX_POINT('',#1796);
#613=VERTEX_POINT('',#1798);
#614=VERTEX_POINT('',#1802);
#615=VERTEX_POINT('',#1803);
#616=VERTEX_POINT('',#1808);
#617=VERTEX_POINT('',#1809);
#618=VERTEX_POINT('',#1814);
#619=VERTEX_POINT('',#1816);
#620=VERTEX_POINT('',#1818);
#621=VERTEX_POINT('',#1822);
#622=VERTEX_POINT('',#1824);
#623=VERTEX_POINT('',#1826);
#624=VERTEX_POINT('',#1830);
#625=VERTEX_POINT('',#1833);
#626=VERTEX_POINT('',#1837);
#627=VERTEX_POINT('',#1839);
#628=VERTEX_POINT('',#1841);
#629=VERTEX_POINT('',#1845);
#630=VERTEX_POINT('',#1847);
#631=VERTEX_POINT('',#1849);
#632=VERTEX_POINT('',#1853);
#633=VERTEX_POINT('',#1855);
#634=VERTEX_POINT('',#1857);
#635=VERTEX_POINT('',#1860);
#636=VERTEX_POINT('',#1862);
#637=VERTEX_POINT('',#1864);
#638=VERTEX_POINT('',#1866);
#639=VERTEX_POINT('',#1869);
#640=VERTEX_POINT('',#1871);
#641=VERTEX_POINT('',#1874);
#642=VERTEX_POINT('',#1876);
#643=VERTEX_POINT('',#1879);
#644=VERTEX_POINT('',#1881);
#645=VERTEX_POINT('',#1884);
#646=VERTEX_POINT('',#1886);
#647=VERTEX_POINT('',#1889);
#648=VERTEX_POINT('',#1890);
#649=VERTEX_POINT('',#1892);
#650=VERTEX_POINT('',#1894);
#651=VERTEX_POINT('',#1898);
#652=VERTEX_POINT('',#1906);
#653=VERTEX_POINT('',#1910);
#654=VERTEX_POINT('',#1919);
#655=VERTEX_POINT('',#1923);
#656=VERTEX_POINT('',#1927);
#657=VERTEX_POINT('',#1931);
#658=LINE('',#1611,#757);
#659=LINE('',#1614,#758);
#660=LINE('',#1616,#759);
#661=LINE('',#1618,#760);
#662=LINE('',#1620,#761);
#663=LINE('',#1622,#762);
#664=LINE('',#1624,#763);
#665=LINE('',#1626,#764);
#666=LINE('',#1628,#765);
#667=LINE('',#1630,#766);
#668=LINE('',#1632,#767);
#669=LINE('',#1634,#768);
#670=LINE('',#1636,#769);
#671=LINE('',#1638,#770);
#672=LINE('',#1640,#771);
#673=LINE('',#1642,#772);
#674=LINE('',#1647,#773);
#675=LINE('',#1651,#774);
#676=LINE('',#1656,#775);
#677=LINE('',#1661,#776);
#678=LINE('',#1665,#777);
#679=LINE('',#1668,#778);
#680=LINE('',#1670,#779);
#681=LINE('',#1672,#780);
#682=LINE('',#1674,#781);
#683=LINE('',#1677,#782);
#684=LINE('',#1679,#783);
#685=LINE('',#1681,#784);
#686=LINE('',#1683,#785);
#687=LINE('',#1686,#786);
#688=LINE('',#1688,#787);
#689=LINE('',#1690,#788);
#690=LINE('',#1694,#789);
#691=LINE('',#1699,#790);
#692=LINE('',#1701,#791);
#693=LINE('',#1704,#792);
#694=LINE('',#1709,#793);
#695=LINE('',#1711,#794);
#696=LINE('',#1713,#795);
#697=LINE('',#1721,#796);
#698=LINE('',#1723,#797);
#699=LINE('',#1725,#798);
#700=LINE('',#1729,#799);
#701=LINE('',#1733,#800);
#702=LINE('',#1748,#801);
#703=LINE('',#1756,#802);
#704=LINE('',#1758,#803);
#705=LINE('',#1760,#804);
#706=LINE('',#1764,#805);
#707=LINE('',#1766,#806);
#708=LINE('',#1776,#807);
#709=LINE('',#1778,#808);
#710=LINE('',#1784,#809);
#711=LINE('',#1786,#810);
#712=LINE('',#1788,#811);
#713=LINE('',#1790,#812);
#714=LINE('',#1792,#813);
#715=LINE('',#1795,#814);
#716=LINE('',#1797,#815);
#717=LINE('',#1799,#816);
#718=LINE('',#1801,#817);
#719=LINE('',#1804,#818);
#720=LINE('',#1805,#819);
#721=LINE('',#1807,#820);
#722=LINE('',#1810,#821);
#723=LINE('',#1811,#822);
#724=LINE('',#1813,#823);
#725=LINE('',#1815,#824);
#726=LINE('',#1817,#825);
#727=LINE('',#1819,#826);
#728=LINE('',#1821,#827);
#729=LINE('',#1823,#828);
#730=LINE('',#1825,#829);
#731=LINE('',#1827,#830);
#732=LINE('',#1829,#831);
#733=LINE('',#1831,#832);
#734=LINE('',#1832,#833);
#735=LINE('',#1834,#834);
#736=LINE('',#1836,#835);
#737=LINE('',#1838,#836);
#738=LINE('',#1840,#837);
#739=LINE('',#1842,#838);
#740=LINE('',#1844,#839);
#741=LINE('',#1846,#840);
#742=LINE('',#1848,#841);
#743=LINE('',#1850,#842);
#744=LINE('',#1854,#843);
#745=LINE('',#1856,#844);
#746=LINE('',#1858,#845);
#747=LINE('',#1888,#846);
#748=LINE('',#1891,#847);
#749=LINE('',#1893,#848);
#750=LINE('',#1895,#849);
#751=LINE('',#1901,#850);
#752=LINE('',#1905,#851);
#753=LINE('',#1907,#852);
#754=LINE('',#1909,#853);
#755=LINE('',#1911,#854);
#756=LINE('',#1913,#855);
#757=VECTOR('',#1276,1.);
#758=VECTOR('',#1277,1.);
#759=VECTOR('',#1278,1.);
#760=VECTOR('',#1279,1.);
#761=VECTOR('',#1280,1.);
#762=VECTOR('',#1281,1.);
#763=VECTOR('',#1282,1.);
#764=VECTOR('',#1283,1.);
#765=VECTOR('',#1284,1.);
#766=VECTOR('',#1285,1.);
#767=VECTOR('',#1286,1.);
#768=VECTOR('',#1287,1.);
#769=VECTOR('',#1288,1.);
#770=VECTOR('',#1289,1.);
#771=VECTOR('',#1290,1.);
#772=VECTOR('',#1291,1.);
#773=VECTOR('',#1296,1.);
#774=VECTOR('',#1299,1.);
#775=VECTOR('',#1304,1.);
#776=VECTOR('',#1309,1.);
#777=VECTOR('',#1314,1.);
#778=VECTOR('',#1315,1.);
#779=VECTOR('',#1316,1.);
#780=VECTOR('',#1317,1.);
#781=VECTOR('',#1320,1.);
#782=VECTOR('',#1321,1.);
#783=VECTOR('',#1322,1.);
#784=VECTOR('',#1323,1.);
#785=VECTOR('',#1326,1.);
#786=VECTOR('',#1327,1.);
#787=VECTOR('',#1328,1.);
#788=VECTOR('',#1329,1.);
#789=VECTOR('',#1336,1.);
#790=VECTOR('',#1341,1.);
#791=VECTOR('',#1344,1.);
#792=VECTOR('',#1347,1.);
#793=VECTOR('',#1352,1.);
#794=VECTOR('',#1355,1.);
#795=VECTOR('',#1356,1.);
#796=VECTOR('',#1367,1.);
#797=VECTOR('',#1368,1.);
#798=VECTOR('',#1369,1.);
#799=VECTOR('',#1374,1.);
#800=VECTOR('',#1379,1.);
#801=VECTOR('',#1402,1.);
#802=VECTOR('',#1413,1.);
#803=VECTOR('',#1414,1.);
#804=VECTOR('',#1415,1.);
#805=VECTOR('',#1420,1.);
#806=VECTOR('',#1423,1.);
#807=VECTOR('',#1440,1.);
#808=VECTOR('',#1443,1.);
#809=VECTOR('',#1454,1.);
#810=VECTOR('',#1455,1.);
#811=VECTOR('',#1458,1.);
#812=VECTOR('',#1459,1.);
#813=VECTOR('',#1462,1.);
#814=VECTOR('',#1463,1.);
#815=VECTOR('',#1464,1.);
#816=VECTOR('',#1465,1.);
#817=VECTOR('',#1468,1.);
#818=VECTOR('',#1469,1.);
#819=VECTOR('',#1470,1.);
#820=VECTOR('',#1473,1.);
#821=VECTOR('',#1474,1.);
#822=VECTOR('',#1475,1.);
#823=VECTOR('',#1478,1.);
#824=VECTOR('',#1479,1.);
#825=VECTOR('',#1480,1.);
#826=VECTOR('',#1481,1.);
#827=VECTOR('',#1484,1.);
#828=VECTOR('',#1485,1.);
#829=VECTOR('',#1486,1.);
#830=VECTOR('',#1487,1.);
#831=VECTOR('',#1490,1.);
#832=VECTOR('',#1491,1.);
#833=VECTOR('',#1492,1.);
#834=VECTOR('',#1493,1.);
#835=VECTOR('',#1496,1.);
#836=VECTOR('',#1497,1.);
#837=VECTOR('',#1498,1.);
#838=VECTOR('',#1499,1.);
#839=VECTOR('',#1502,1.);
#840=VECTOR('',#1503,1.);
#841=VECTOR('',#1504,1.);
#842=VECTOR('',#1505,1.);
#843=VECTOR('',#1510,1.);
#844=VECTOR('',#1511,1.);
#845=VECTOR('',#1512,1.);
#846=VECTOR('',#1547,1.);
#847=VECTOR('',#1548,1.);
#848=VECTOR('',#1549,1.);
#849=VECTOR('',#1550,1.);
#850=VECTOR('',#1559,1.);
#851=VECTOR('',#1566,1.);
#852=VECTOR('',#1567,1.);
#853=VECTOR('',#1570,1.);
#854=VECTOR('',#1571,1.);
#855=VECTOR('',#1574,1.);
#856=EDGE_LOOP('',(#91,#92,#93,#94,#95,#96,#97,#98,#99,#100,#101,#102,#103,
#104,#105,#106));
#857=EDGE_LOOP('',(#107,#108,#109,#110));
#858=EDGE_LOOP('',(#111,#112,#113,#114,#115,#116,#117));
#859=EDGE_LOOP('',(#118,#119,#120,#121));
#860=EDGE_LOOP('',(#122,#123,#124,#125));
#861=EDGE_LOOP('',(#126,#127,#128,#129));
#862=EDGE_LOOP('',(#130,#131,#132,#133,#134,#135,#136,#137,#138,#139));
#863=EDGE_LOOP('',(#140,#141,#142,#143,#144,#145,#146,#147,#148,#149,#150,
#151,#152,#153));
#864=EDGE_LOOP('',(#154));
#865=EDGE_LOOP('',(#155));
#866=EDGE_LOOP('',(#156));
#867=EDGE_LOOP('',(#157,#158,#159,#160));
#868=EDGE_LOOP('',(#161,#162,#163,#164,#165));
#869=EDGE_LOOP('',(#166,#167,#168,#169,#170,#171));
#870=EDGE_LOOP('',(#172,#173,#174,#175));
#871=EDGE_LOOP('',(#176,#177,#178,#179));
#872=EDGE_LOOP('',(#180,#181,#182,#183,#184,#185));
#873=EDGE_LOOP('',(#186));
#874=EDGE_LOOP('',(#187,#188,#189,#190));
#875=EDGE_LOOP('',(#191));
#876=EDGE_LOOP('',(#192));
#877=EDGE_LOOP('',(#193));
#878=EDGE_LOOP('',(#194,#195,#196,#197));
#879=EDGE_LOOP('',(#198,#199,#200,#201));
#880=EDGE_LOOP('',(#202,#203,#204,#205));
#881=EDGE_LOOP('',(#206,#207,#208,#209,#210));
#882=EDGE_LOOP('',(#211,#212,#213,#214));
#883=EDGE_LOOP('',(#215,#216,#217,#218,#219,#220));
#884=EDGE_LOOP('',(#221));
#885=EDGE_LOOP('',(#222,#223,#224,#225));
#886=EDGE_LOOP('',(#226,#227,#228,#229));
#887=EDGE_LOOP('',(#230,#231,#232,#233));
#888=EDGE_LOOP('',(#234,#235,#236,#237));
#889=EDGE_LOOP('',(#238,#239,#240,#241));
#890=EDGE_LOOP('',(#242,#243,#244,#245));
#891=EDGE_LOOP('',(#246,#247,#248,#249,#250,#251));
#892=EDGE_LOOP('',(#252,#253,#254));
#893=EDGE_LOOP('',(#255,#256,#257,#258));
#894=EDGE_LOOP('',(#259,#260,#261,#262));
#895=EDGE_LOOP('',(#263,#264,#265,#266));
#896=EDGE_LOOP('',(#267,#268,#269,#270,#271));
#897=EDGE_LOOP('',(#272,#273,#274,#275,#276));
#898=EDGE_LOOP('',(#277,#278,#279,#280,#281,#282,#283,#284,#285,#286));
#899=EDGE_LOOP('',(#287,#288,#289,#290,#291,#292,#293,#294,#295));
#900=EDGE_LOOP('',(#296,#297,#298,#299,#300,#301,#302,#303,#304));
#901=EDGE_LOOP('',(#305));
#902=EDGE_LOOP('',(#306,#307,#308,#309,#310,#311,#312,#313));
#903=EDGE_LOOP('',(#314));
#904=EDGE_LOOP('',(#315));
#905=EDGE_LOOP('',(#316));
#906=EDGE_LOOP('',(#317));
#907=EDGE_LOOP('',(#318));
#908=EDGE_LOOP('',(#319));
#909=EDGE_LOOP('',(#320));
#910=EDGE_LOOP('',(#321));
#911=EDGE_LOOP('',(#322));
#912=EDGE_LOOP('',(#323));
#913=EDGE_LOOP('',(#324));
#914=EDGE_LOOP('',(#325));
#915=EDGE_LOOP('',(#326,#327,#328,#329));
#916=EDGE_LOOP('',(#330));
#917=EDGE_LOOP('',(#331));
#918=EDGE_LOOP('',(#332,#333,#334,#335,#336,#337));
#919=EDGE_LOOP('',(#338));
#920=EDGE_LOOP('',(#339));
#921=EDGE_LOOP('',(#340));
#922=EDGE_LOOP('',(#341));
#923=EDGE_LOOP('',(#342));
#924=EDGE_LOOP('',(#343,#344,#345,#346,#347,#348));
#925=EDGE_LOOP('',(#349,#350,#351,#352));
#926=EDGE_LOOP('',(#353,#354,#355,#356));
#927=EDGE_LOOP('',(#357,#358,#359,#360));
#928=EDGE_LOOP('',(#361,#362,#363,#364,#365,#366,#367,#368,#369,#370,#371,
#372));
#929=EDGE_LOOP('',(#373));
#930=EDGE_LOOP('',(#374));
#931=EDGE_LOOP('',(#375));
#932=EDGE_LOOP('',(#376));
#933=EDGE_LOOP('',(#377));
#934=EDGE_LOOP('',(#378));
#935=EDGE_LOOP('',(#379));
#936=EDGE_LOOP('',(#380));
#937=EDGE_LOOP('',(#381));
#938=EDGE_LOOP('',(#382));
#939=EDGE_LOOP('',(#383));
#940=EDGE_LOOP('',(#384));
#941=EDGE_LOOP('',(#385));
#942=EDGE_LOOP('',(#386));
#943=EDGE_LOOP('',(#387));
#944=EDGE_LOOP('',(#388));
#945=EDGE_LOOP('',(#389,#390,#391,#392));
#946=EDGE_LOOP('',(#393,#394,#395,#396));
#947=FACE_BOUND('',#856,.T.);
#948=FACE_BOUND('',#857,.T.);
#949=FACE_BOUND('',#858,.T.);
#950=FACE_BOUND('',#859,.T.);
#951=FACE_BOUND('',#860,.T.);
#952=FACE_BOUND('',#861,.T.);
#953=FACE_BOUND('',#862,.T.);
#954=FACE_BOUND('',#863,.T.);
#955=FACE_BOUND('',#864,.T.);
#956=FACE_BOUND('',#865,.T.);
#957=FACE_BOUND('',#866,.T.);
#958=FACE_BOUND('',#867,.T.);
#959=FACE_BOUND('',#868,.T.);
#960=FACE_BOUND('',#869,.T.);
#961=FACE_BOUND('',#870,.T.);
#962=FACE_BOUND('',#871,.T.);
#963=FACE_BOUND('',#872,.T.);
#964=FACE_BOUND('',#873,.T.);
#965=FACE_BOUND('',#874,.T.);
#966=FACE_BOUND('',#875,.T.);
#967=FACE_BOUND('',#876,.T.);
#968=FACE_BOUND('',#877,.T.);
#969=FACE_BOUND('',#878,.T.);
#970=FACE_BOUND('',#879,.T.);
#971=FACE_BOUND('',#880,.T.);
#972=FACE_BOUND('',#881,.T.);
#973=FACE_BOUND('',#882,.T.);
#974=FACE_BOUND('',#883,.T.);
#975=FACE_BOUND('',#884,.T.);
#976=FACE_BOUND('',#885,.T.);
#977=FACE_BOUND('',#886,.T.);
#978=FACE_BOUND('',#887,.T.);
#979=FACE_BOUND('',#888,.T.);
#980=FACE_BOUND('',#889,.T.);
#981=FACE_BOUND('',#890,.T.);
#982=FACE_BOUND('',#891,.T.);
#983=FACE_BOUND('',#892,.T.);
#984=FACE_BOUND('',#893,.T.);
#985=FACE_BOUND('',#894,.T.);
#986=FACE_BOUND('',#895,.T.);
#987=FACE_BOUND('',#896,.T.);
#988=FACE_BOUND('',#897,.T.);
#989=FACE_BOUND('',#898,.T.);
#990=FACE_BOUND('',#899,.T.);
#991=FACE_BOUND('',#900,.T.);
#992=FACE_BOUND('',#901,.T.);
#993=FACE_BOUND('',#902,.T.);
#994=FACE_BOUND('',#903,.T.);
#995=FACE_BOUND('',#904,.T.);
#996=FACE_BOUND('',#905,.T.);
#997=FACE_BOUND('',#906,.T.);
#998=FACE_BOUND('',#907,.T.);
#999=FACE_BOUND('',#908,.T.);
#1000=FACE_BOUND('',#909,.T.);
#1001=FACE_BOUND('',#910,.T.);
#1002=FACE_BOUND('',#911,.T.);
#1003=FACE_BOUND('',#912,.T.);
#1004=FACE_BOUND('',#913,.T.);
#1005=FACE_BOUND('',#914,.T.);
#1006=FACE_BOUND('',#915,.T.);
#1007=FACE_BOUND('',#916,.T.);
#1008=FACE_BOUND('',#917,.T.);
#1009=FACE_BOUND('',#918,.T.);
#1010=FACE_BOUND('',#919,.T.);
#1011=FACE_BOUND('',#920,.T.);
#1012=FACE_BOUND('',#921,.T.);
#1013=FACE_BOUND('',#922,.T.);
#1014=FACE_BOUND('',#923,.T.);
#1015=FACE_BOUND('',#924,.T.);
#1016=FACE_BOUND('',#925,.T.);
#1017=FACE_BOUND('',#926,.T.);
#1018=FACE_BOUND('',#927,.T.);
#1019=FACE_BOUND('',#928,.T.);
#1020=FACE_BOUND('',#929,.T.);
#1021=FACE_BOUND('',#930,.T.);
#1022=FACE_BOUND('',#931,.T.);
#1023=FACE_BOUND('',#932,.T.);
#1024=FACE_BOUND('',#933,.T.);
#1025=FACE_BOUND('',#934,.T.);
#1026=FACE_BOUND('',#935,.T.);
#1027=FACE_BOUND('',#936,.T.);
#1028=FACE_BOUND('',#937,.T.);
#1029=FACE_BOUND('',#938,.T.);
#1030=FACE_BOUND('',#939,.T.);
#1031=FACE_BOUND('',#940,.T.);
#1032=FACE_BOUND('',#941,.T.);
#1033=FACE_BOUND('',#942,.T.);
#1034=FACE_BOUND('',#943,.T.);
#1035=FACE_BOUND('',#944,.T.);
#1036=FACE_BOUND('',#945,.T.);
#1037=FACE_BOUND('',#946,.T.);
#1038=PLANE('',#1154);
#1039=PLANE('',#1155);
#1040=PLANE('',#1158);
#1041=PLANE('',#1163);
#1042=PLANE('',#1164);
#1043=PLANE('',#1165);
#1044=PLANE('',#1166);
#1045=PLANE('',#1171);
#1046=PLANE('',#1176);
#1047=PLANE('',#1180);
#1048=PLANE('',#1194);
#1049=PLANE('',#1195);
#1050=PLANE('',#1196);
#1051=PLANE('',#1200);
#1052=PLANE('',#1210);
#1053=PLANE('',#1211);
#1054=PLANE('',#1212);
#1055=PLANE('',#1217);
#1056=PLANE('',#1218);
#1057=PLANE('',#1219);
#1058=PLANE('',#1220);
#1059=PLANE('',#1221);
#1060=PLANE('',#1222);
#1061=PLANE('',#1223);
#1062=PLANE('',#1224);
#1063=PLANE('',#1225);
#1064=PLANE('',#1226);
#1065=PLANE('',#1227);
#1066=PLANE('',#1245);
#1067=PLANE('',#1248);
#1068=PLANE('',#1251);
#1069=PLANE('',#1252);
#1070=PLANE('',#1253);
#1071=PLANE('',#1254);
#1072=PLANE('',#1255);
#1073=PLANE('',#1260);
#1074=PLANE('',#1263);
#1075=PLANE('',#1266);
#1076=PLANE('',#1269);
#1077=ADVANCED_FACE('',(#947),#1038,.T.);
#1078=ADVANCED_FACE('',(#948),#1039,.T.);
#1079=ADVANCED_FACE('',(#949),#1040,.T.);
#1080=ADVANCED_FACE('',(#950),#1041,.F.);
#1081=ADVANCED_FACE('',(#951),#1042,.T.);
#1082=ADVANCED_FACE('',(#952),#1043,.T.);
#1083=ADVANCED_FACE('',(#953),#1044,.F.);
#1084=ADVANCED_FACE('',(#954),#1045,.T.);
#1085=ADVANCED_FACE('',(#955),#1046,.F.);
#1086=ADVANCED_FACE('',(#956,#957),#12,.F.);
#1087=ADVANCED_FACE('',(#958),#1047,.T.);
#1088=ADVANCED_FACE('',(#959),#13,.T.);
#1089=ADVANCED_FACE('',(#960),#14,.T.);
#1090=ADVANCED_FACE('',(#961),#15,.F.);
#1091=ADVANCED_FACE('',(#962),#16,.F.);
#1092=ADVANCED_FACE('',(#963,#964),#1048,.F.);
#1093=ADVANCED_FACE('',(#965),#1049,.T.);
#1094=ADVANCED_FACE('',(#966),#1050,.F.);
#1095=ADVANCED_FACE('',(#967,#968),#17,.F.);
#1096=ADVANCED_FACE('',(#969),#1051,.T.);
#1097=ADVANCED_FACE('',(#970),#18,.T.);
#1098=ADVANCED_FACE('',(#971),#19,.T.);
#1099=ADVANCED_FACE('',(#972),#20,.F.);
#1100=ADVANCED_FACE('',(#973),#21,.F.);
#1101=ADVANCED_FACE('',(#974,#975),#1052,.F.);
#1102=ADVANCED_FACE('',(#976),#1053,.T.);
#1103=ADVANCED_FACE('',(#977),#1054,.T.);
#1104=ADVANCED_FACE('',(#978),#22,.F.);
#1105=ADVANCED_FACE('',(#979),#23,.F.);
#1106=ADVANCED_FACE('',(#980),#24,.T.);
#1107=ADVANCED_FACE('',(#981),#25,.T.);
#1108=ADVANCED_FACE('',(#982),#1055,.F.);
#1109=ADVANCED_FACE('',(#983),#1056,.F.);
#1110=ADVANCED_FACE('',(#984),#1057,.F.);
#1111=ADVANCED_FACE('',(#985),#1058,.F.);
#1112=ADVANCED_FACE('',(#986),#1059,.F.);
#1113=ADVANCED_FACE('',(#987),#1060,.F.);
#1114=ADVANCED_FACE('',(#988),#1061,.F.);
#1115=ADVANCED_FACE('',(#989),#1062,.F.);
#1116=ADVANCED_FACE('',(#990),#1063,.F.);
#1117=ADVANCED_FACE('',(#991),#1064,.T.);
#1118=ADVANCED_FACE('',(#992,#993,#994,#995,#996,#997),#1065,.F.);
#1119=ADVANCED_FACE('',(#998,#999),#26,.F.);
#1120=ADVANCED_FACE('',(#1000,#1001),#27,.F.);
#1121=ADVANCED_FACE('',(#1002,#1003),#28,.F.);
#1122=ADVANCED_FACE('',(#1004,#1005),#29,.F.);
#1123=ADVANCED_FACE('',(#1006),#1066,.T.);
#1124=ADVANCED_FACE('',(#1007,#1008),#30,.F.);
#1125=ADVANCED_FACE('',(#1009,#1010,#1011,#1012,#1013,#1014),#1067,.T.);
#1126=ADVANCED_FACE('',(#1015),#1068,.T.);
#1127=ADVANCED_FACE('',(#1016),#1069,.F.);
#1128=ADVANCED_FACE('',(#1017),#1070,.F.);
#1129=ADVANCED_FACE('',(#1018),#1071,.F.);
#1130=ADVANCED_FACE('',(#1019),#1072,.F.);
#1131=ADVANCED_FACE('',(#1020,#1021),#31,.F.);
#1132=ADVANCED_FACE('',(#1022,#1023),#1073,.T.);
#1133=ADVANCED_FACE('',(#1024,#1025),#32,.F.);
#1134=ADVANCED_FACE('',(#1026,#1027),#1074,.T.);
#1135=ADVANCED_FACE('',(#1028,#1029),#33,.F.);
#1136=ADVANCED_FACE('',(#1030,#1031),#1075,.T.);
#1137=ADVANCED_FACE('',(#1032,#1033),#34,.F.);
#1138=ADVANCED_FACE('',(#1034,#1035),#1076,.T.);
#1139=ADVANCED_FACE('',(#1036),#35,.T.);
#1140=ADVANCED_FACE('',(#1037),#36,.T.);
#1141=CLOSED_SHELL('',(#1077,#1078,#1079,#1080,#1081,#1082,#1083,#1084,
#1085,#1086,#1087,#1088,#1089,#1090,#1091,#1092,#1093,#1094,#1095,#1096,
#1097,#1098,#1099,#1100,#1101,#1102,#1103,#1104,#1105,#1106,#1107,#1108,
#1109,#1110,#1111,#1112,#1113,#1114,#1115,#1116,#1117,#1118,#1119,#1120,
#1121,#1122,#1123,#1124,#1125,#1126,#1127,#1128,#1129,#1130,#1131,#1132,
#1133,#1134,#1135,#1136,#1137,#1138,#1139,#1140));
#1142=STYLED_ITEM('',(#1143),#1150);
#1143=PRESENTATION_STYLE_ASSIGNMENT((#1144));
#1144=SURFACE_STYLE_USAGE(.BOTH.,#1145);
#1145=SURFACE_SIDE_STYLE('',(#1146));
#1146=SURFACE_STYLE_FILL_AREA(#1147);
#1147=FILL_AREA_STYLE('',(#1148));
#1148=FILL_AREA_STYLE_COLOUR('',#1149);
#1149=COLOUR_RGB('',0.615686274509804,0.811764705882353,0.929411764705882);
#1150=MANIFOLD_SOLID_BREP('Part 1',#1141);
#1151=SHAPE_DEFINITION_REPRESENTATION(#1941,#1152);
#1152=SHAPE_REPRESENTATION('Part 1',(#1153),#1936);
#1153=AXIS2_PLACEMENT_3D('',#1609,#1272,#1273);
#1154=AXIS2_PLACEMENT_3D('',#1610,#1274,#1275);
#1155=AXIS2_PLACEMENT_3D('',#1643,#1292,#1293);
#1156=AXIS2_PLACEMENT_3D('',#1644,#1294,#1295);
#1157=AXIS2_PLACEMENT_3D('',#1649,#1297,#1298);
#1158=AXIS2_PLACEMENT_3D('',#1652,#1300,#1301);
#1159=AXIS2_PLACEMENT_3D('',#1653,#1302,#1303);
#1160=AXIS2_PLACEMENT_3D('',#1657,#1305,#1306);
#1161=AXIS2_PLACEMENT_3D('',#1659,#1307,#1308);
#1162=AXIS2_PLACEMENT_3D('',#1663,#1310,#1311);
#1163=AXIS2_PLACEMENT_3D('',#1664,#1312,#1313);
#1164=AXIS2_PLACEMENT_3D('',#1673,#1318,#1319);
#1165=AXIS2_PLACEMENT_3D('',#1682,#1324,#1325);
#1166=AXIS2_PLACEMENT_3D('',#1691,#1330,#1331);
#1167=AXIS2_PLACEMENT_3D('',#1692,#1332,#1333);
#1168=AXIS2_PLACEMENT_3D('',#1693,#1334,#1335);
#1169=AXIS2_PLACEMENT_3D('',#1696,#1337,#1338);
#1170=AXIS2_PLACEMENT_3D('',#1697,#1339,#1340);
#1171=AXIS2_PLACEMENT_3D('',#1700,#1342,#1343);
#1172=AXIS2_PLACEMENT_3D('',#1703,#1345,#1346);
#1173=AXIS2_PLACEMENT_3D('',#1706,#1348,#1349);
#1174=AXIS2_PLACEMENT_3D('',#1707,#1350,#1351);
#1175=AXIS2_PLACEMENT_3D('',#1710,#1353,#1354);
#1176=AXIS2_PLACEMENT_3D('',#1714,#1357,#1358);
#1177=AXIS2_PLACEMENT_3D('',#1715,#1359,#1360);
#1178=AXIS2_PLACEMENT_3D('',#1717,#1361,#1362);
#1179=AXIS2_PLACEMENT_3D('',#1718,#1363,#1364);
#1180=AXIS2_PLACEMENT_3D('',#1720,#1365,#1366);
#1181=AXIS2_PLACEMENT_3D('',#1726,#1370,#1371);
#1182=AXIS2_PLACEMENT_3D('',#1727,#1372,#1373);
#1183=AXIS2_PLACEMENT_3D('',#1731,#1375,#1376);
#1184=AXIS2_PLACEMENT_3D('',#1732,#1377,#1378);
#1185=AXIS2_PLACEMENT_3D('',#1736,#1380,#1381);
#1186=AXIS2_PLACEMENT_3D('',#1738,#1382,#1383);
#1187=AXIS2_PLACEMENT_3D('',#1739,#1384,#1385);
#1188=AXIS2_PLACEMENT_3D('',#1740,#1386,#1387);
#1189=AXIS2_PLACEMENT_3D('',#1741,#1388,#1389);
#1190=AXIS2_PLACEMENT_3D('',#1742,#1390,#1391);
#1191=AXIS2_PLACEMENT_3D('',#1743,#1392,#1393);
#1192=AXIS2_PLACEMENT_3D('',#1744,#1394,#1395);
#1193=AXIS2_PLACEMENT_3D('',#1745,#1396,#1397);
#1194=AXIS2_PLACEMENT_3D('',#1746,#1398,#1399);
#1195=AXIS2_PLACEMENT_3D('',#1747,#1400,#1401);
#1196=AXIS2_PLACEMENT_3D('',#1749,#1403,#1404);
#1197=AXIS2_PLACEMENT_3D('',#1750,#1405,#1406);
#1198=AXIS2_PLACEMENT_3D('',#1752,#1407,#1408);
#1199=AXIS2_PLACEMENT_3D('',#1753,#1409,#1410);
#1200=AXIS2_PLACEMENT_3D('',#1755,#1411,#1412);
#1201=AXIS2_PLACEMENT_3D('',#1761,#1416,#1417);
#1202=AXIS2_PLACEMENT_3D('',#1762,#1418,#1419);
#1203=AXIS2_PLACEMENT_3D('',#1765,#1421,#1422);
#1204=AXIS2_PLACEMENT_3D('',#1768,#1424,#1425);
#1205=AXIS2_PLACEMENT_3D('',#1769,#1426,#1427);
#1206=AXIS2_PLACEMENT_3D('',#1770,#1428,#1429);
#1207=AXIS2_PLACEMENT_3D('',#1771,#1430,#1431);
#1208=AXIS2_PLACEMENT_3D('',#1772,#1432,#1433);
#1209=AXIS2_PLACEMENT_3D('',#1773,#1434,#1435);
#1210=AXIS2_PLACEMENT_3D('',#1774,#1436,#1437);
#1211=AXIS2_PLACEMENT_3D('',#1775,#1438,#1439);
#1212=AXIS2_PLACEMENT_3D('',#1777,#1441,#1442);
#1213=AXIS2_PLACEMENT_3D('',#1779,#1444,#1445);
#1214=AXIS2_PLACEMENT_3D('',#1780,#1446,#1447);
#1215=AXIS2_PLACEMENT_3D('',#1781,#1448,#1449);
#1216=AXIS2_PLACEMENT_3D('',#1782,#1450,#1451);
#1217=AXIS2_PLACEMENT_3D('',#1783,#1452,#1453);
#1218=AXIS2_PLACEMENT_3D('',#1787,#1456,#1457);
#1219=AXIS2_PLACEMENT_3D('',#1791,#1460,#1461);
#1220=AXIS2_PLACEMENT_3D('',#1800,#1466,#1467);
#1221=AXIS2_PLACEMENT_3D('',#1806,#1471,#1472);
#1222=AXIS2_PLACEMENT_3D('',#1812,#1476,#1477);
#1223=AXIS2_PLACEMENT_3D('',#1820,#1482,#1483);
#1224=AXIS2_PLACEMENT_3D('',#1828,#1488,#1489);
#1225=AXIS2_PLACEMENT_3D('',#1835,#1494,#1495);
#1226=AXIS2_PLACEMENT_3D('',#1843,#1500,#1501);
#1227=AXIS2_PLACEMENT_3D('',#1851,#1506,#1507);
#1228=AXIS2_PLACEMENT_3D('',#1852,#1508,#1509);
#1229=AXIS2_PLACEMENT_3D('',#1859,#1513,#1514);
#1230=AXIS2_PLACEMENT_3D('',#1861,#1515,#1516);
#1231=AXIS2_PLACEMENT_3D('',#1863,#1517,#1518);
#1232=AXIS2_PLACEMENT_3D('',#1865,#1519,#1520);
#1233=AXIS2_PLACEMENT_3D('',#1867,#1521,#1522);
#1234=AXIS2_PLACEMENT_3D('',#1868,#1523,#1524);
#1235=AXIS2_PLACEMENT_3D('',#1870,#1525,#1526);
#1236=AXIS2_PLACEMENT_3D('',#1872,#1527,#1528);
#1237=AXIS2_PLACEMENT_3D('',#1873,#1529,#1530);
#1238=AXIS2_PLACEMENT_3D('',#1875,#1531,#1532);
#1239=AXIS2_PLACEMENT_3D('',#1877,#1533,#1534);
#1240=AXIS2_PLACEMENT_3D('',#1878,#1535,#1536);
#1241=AXIS2_PLACEMENT_3D('',#1880,#1537,#1538);
#1242=AXIS2_PLACEMENT_3D('',#1882,#1539,#1540);
#1243=AXIS2_PLACEMENT_3D('',#1883,#1541,#1542);
#1244=AXIS2_PLACEMENT_3D('',#1885,#1543,#1544);
#1245=AXIS2_PLACEMENT_3D('',#1887,#1545,#1546);
#1246=AXIS2_PLACEMENT_3D('',#1896,#1551,#1552);
#1247=AXIS2_PLACEMENT_3D('',#1897,#1553,#1554);
#1248=AXIS2_PLACEMENT_3D('',#1899,#1555,#1556);
#1249=AXIS2_PLACEMENT_3D('',#1900,#1557,#1558);
#1250=AXIS2_PLACEMENT_3D('',#1902,#1560,#1561);
#1251=AXIS2_PLACEMENT_3D('',#1903,#1562,#1563);
#1252=AXIS2_PLACEMENT_3D('',#1904,#1564,#1565);
#1253=AXIS2_PLACEMENT_3D('',#1908,#1568,#1569);
#1254=AXIS2_PLACEMENT_3D('',#1912,#1572,#1573);
#1255=AXIS2_PLACEMENT_3D('',#1914,#1575,#1576);
#1256=AXIS2_PLACEMENT_3D('',#1915,#1577,#1578);
#1257=AXIS2_PLACEMENT_3D('',#1916,#1579,#1580);
#1258=AXIS2_PLACEMENT_3D('',#1917,#1581,#1582);
#1259=AXIS2_PLACEMENT_3D('',#1918,#1583,#1584);
#1260=AXIS2_PLACEMENT_3D('',#1920,#1585,#1586);
#1261=AXIS2_PLACEMENT_3D('',#1921,#1587,#1588);
#1262=AXIS2_PLACEMENT_3D('',#1922,#1589,#1590);
#1263=AXIS2_PLACEMENT_3D('',#1924,#1591,#1592);
#1264=AXIS2_PLACEMENT_3D('',#1925,#1593,#1594);
#1265=AXIS2_PLACEMENT_3D('',#1926,#1595,#1596);
#1266=AXIS2_PLACEMENT_3D('',#1928,#1597,#1598);
#1267=AXIS2_PLACEMENT_3D('',#1929,#1599,#1600);
#1268=AXIS2_PLACEMENT_3D('',#1930,#1601,#1602);
#1269=AXIS2_PLACEMENT_3D('',#1932,#1603,#1604);
#1270=AXIS2_PLACEMENT_3D('',#1933,#1605,#1606);
#1271=AXIS2_PLACEMENT_3D('',#1934,#1607,#1608);
#1272=DIRECTION('',(0.,0.,1.));
#1273=DIRECTION('',(1.,0.,0.));
#1274=DIRECTION('',(0.,0.,1.));
#1275=DIRECTION('',(1.,0.,0.));
#1276=DIRECTION('',(-1.,0.,0.));
#1277=DIRECTION('',(0.,1.,0.));
#1278=DIRECTION('',(-1.,0.,0.));
#1279=DIRECTION('',(0.,-1.,8.5877399800832E-17));
#1280=DIRECTION('',(-1.,0.,0.));
#1281=DIRECTION('',(0.,-1.,8.5877399800832E-17));
#1282=DIRECTION('',(-1.,-3.01167270134862E-16,0.));
#1283=DIRECTION('',(0.,1.,0.));
#1284=DIRECTION('',(1.,0.,0.));
#1285=DIRECTION('',(0.,-1.,0.));
#1286=DIRECTION('',(1.,0.,0.));
#1287=DIRECTION('',(0.,1.,0.));
#1288=DIRECTION('',(-1.,-2.4093381610789E-16,0.));
#1289=DIRECTION('',(0.,1.,8.5877399800832E-17));
#1290=DIRECTION('',(-1.,0.,0.));
#1291=DIRECTION('',(0.,1.,8.5877399800832E-17));
#1292=DIRECTION('',(1.,0.,0.));
#1293=DIRECTION('',(0.,1.,0.));
#1294=DIRECTION('',(1.,0.,0.));
#1295=DIRECTION('',(0.,0.,-1.));
#1296=DIRECTION('',(0.,1.,0.));
#1297=DIRECTION('',(1.,0.,0.));
#1298=DIRECTION('',(0.,0.,-1.));
#1299=DIRECTION('',(0.,1.,0.));
#1300=DIRECTION('',(1.,0.,0.));
#1301=DIRECTION('',(0.,-1.,0.));
#1302=DIRECTION('',(-1.,0.,0.));
#1303=DIRECTION('',(0.,0.,-1.));
#1304=DIRECTION('',(0.,0.,-1.));
#1305=DIRECTION('',(-1.,0.,0.));
#1306=DIRECTION('',(0.,0.,-1.));
#1307=DIRECTION('',(-1.,0.,0.));
#1308=DIRECTION('',(0.,0.,-1.));
#1309=DIRECTION('',(0.,-1.,0.));
#1310=DIRECTION('',(-1.,0.,0.));
#1311=DIRECTION('',(0.,0.,-1.));
#1312=DIRECTION('',(0.,0.,1.));
#1313=DIRECTION('',(1.,0.,0.));
#1314=DIRECTION('',(0.,-1.,0.));
#1315=DIRECTION('',(1.,0.,0.));
#1316=DIRECTION('',(0.,-1.,0.));
#1317=DIRECTION('',(1.,0.,0.));
#1318=DIRECTION('',(0.,1.,0.));
#1319=DIRECTION('',(0.,0.,1.));
#1320=DIRECTION('',(0.,0.,-1.));
#1321=DIRECTION('',(1.,0.,0.));
#1322=DIRECTION('',(0.,0.,-1.));
#1323=DIRECTION('',(1.,0.,0.));
#1324=DIRECTION('',(0.,-0.5,0.866025403784439));
#1325=DIRECTION('',(0.,0.866025403784439,0.5));
#1326=DIRECTION('',(0.,0.866025403784439,0.5));
#1327=DIRECTION('',(-1.,0.,0.));
#1328=DIRECTION('',(0.,0.866025403784439,0.5));
#1329=DIRECTION('',(-1.,0.,0.));
#1330=DIRECTION('',(1.,0.,0.));
#1331=DIRECTION('',(0.,0.,-1.));
#1332=DIRECTION('',(1.,0.,0.));
#1333=DIRECTION('',(0.,0.,-1.));
#1334=DIRECTION('',(1.,0.,0.));
#1335=DIRECTION('',(0.,0.,-1.));
#1336=DIRECTION('',(0.,-1.,0.));
#1337=DIRECTION('',(1.,0.,0.));
#1338=DIRECTION('',(0.,0.,-1.));
#1339=DIRECTION('',(1.,0.,0.));
#1340=DIRECTION('',(0.,0.,-1.));
#1341=DIRECTION('',(0.,-1.,0.));
#1342=DIRECTION('',(1.,0.,0.));
#1343=DIRECTION('',(0.,0.,-1.));
#1344=DIRECTION('',(0.,0.,-1.));
#1345=DIRECTION('',(1.,0.,0.));
#1346=DIRECTION('',(0.,0.,-1.));
#1347=DIRECTION('',(0.,-1.,0.));
#1348=DIRECTION('',(1.,0.,0.));
#1349=DIRECTION('',(0.,0.,-1.));
#1350=DIRECTION('',(1.,0.,0.));
#1351=DIRECTION('',(0.,0.,-1.));
#1352=DIRECTION('',(0.,-1.,0.));
#1353=DIRECTION('',(1.,0.,0.));
#1354=DIRECTION('',(0.,0.,-1.));
#1355=DIRECTION('',(0.,0.,-1.));
#1356=DIRECTION('',(0.,-1.,0.));
#1357=DIRECTION('',(1.,0.,0.));
#1358=DIRECTION('',(0.,1.,0.));
#1359=DIRECTION('',(1.,0.,0.));
#1360=DIRECTION('',(0.,1.,0.));
#1361=DIRECTION('',(-1.,0.,0.));
#1362=DIRECTION('',(0.,0.,1.));
#1363=DIRECTION('',(1.,0.,0.));
#1364=DIRECTION('',(0.,1.,0.));
#1365=DIRECTION('',(0.,0.,1.));
#1366=DIRECTION('',(1.,0.,0.));
#1367=DIRECTION('',(-1.,0.,0.));
#1368=DIRECTION('',(0.,1.,0.));
#1369=DIRECTION('',(-1.,0.,0.));
#1370=DIRECTION('',(1.,0.,0.));
#1371=DIRECTION('',(0.,0.,-1.));
#1372=DIRECTION('',(1.,0.,0.));
#1373=DIRECTION('',(0.,0.,-1.));
#1374=DIRECTION('',(-1.,0.,0.));
#1375=DIRECTION('',(1.,0.,0.));
#1376=DIRECTION('',(0.,0.,-1.));
#1377=DIRECTION('',(-1.,0.,0.));
#1378=DIRECTION('',(0.,0.,1.));
#1379=DIRECTION('',(-1.,0.,0.));
#1380=DIRECTION('',(1.,0.,0.));
#1381=DIRECTION('',(0.,0.,-1.));
#1382=DIRECTION('',(1.,0.,0.));
#1383=DIRECTION('',(0.,0.,-1.));
#1384=DIRECTION('',(1.,0.,0.));
#1385=DIRECTION('',(0.,0.,-1.));
#1386=DIRECTION('',(1.,0.,0.));
#1387=DIRECTION('',(0.,0.,-1.));
#1388=DIRECTION('',(1.,0.,0.));
#1389=DIRECTION('',(0.,0.,-1.));
#1390=DIRECTION('',(1.,0.,0.));
#1391=DIRECTION('',(0.,0.,-1.));
#1392=DIRECTION('',(-1.,0.,0.));
#1393=DIRECTION('',(0.,0.,1.));
#1394=DIRECTION('',(1.,0.,0.));
#1395=DIRECTION('',(0.,0.,-1.));
#1396=DIRECTION('',(1.,0.,0.));
#1397=DIRECTION('',(0.,0.,-1.));
#1398=DIRECTION('',(1.,0.,0.));
#1399=DIRECTION('',(0.,1.,0.));
#1400=DIRECTION('',(1.,0.,0.));
#1401=DIRECTION('',(0.,1.,0.));
#1402=DIRECTION('',(0.,0.,-1.));
#1403=DIRECTION('',(1.,0.,0.));
#1404=DIRECTION('',(0.,-1.,0.));
#1405=DIRECTION('',(-1.,0.,0.));
#1406=DIRECTION('',(0.,-1.,0.));
#1407=DIRECTION('',(-1.,0.,0.));
#1408=DIRECTION('',(0.,0.,1.));
#1409=DIRECTION('',(-1.,0.,0.));
#1410=DIRECTION('',(0.,-1.,0.));
#1411=DIRECTION('',(0.,0.,1.));
#1412=DIRECTION('',(1.,0.,0.));
#1413=DIRECTION('',(-1.,0.,0.));
#1414=DIRECTION('',(0.,-1.,0.));
#1415=DIRECTION('',(-1.,0.,0.));
#1416=DIRECTION('',(1.,0.,0.));
#1417=DIRECTION('',(0.,0.,-1.));
#1418=DIRECTION('',(-1.,0.,0.));
#1419=DIRECTION('',(0.,0.,-1.));
#1420=DIRECTION('',(-1.,0.,0.));
#1421=DIRECTION('',(-1.,0.,0.));
#1422=DIRECTION('',(0.,0.,1.));
#1423=DIRECTION('',(-1.,0.,0.));
#1424=DIRECTION('',(-1.,0.,0.));
#1425=DIRECTION('',(0.,0.,-1.));
#1426=DIRECTION('',(-1.,0.,0.));
#1427=DIRECTION('',(0.,0.,1.));
#1428=DIRECTION('',(-1.,0.,0.));
#1429=DIRECTION('',(0.,0.,-1.));
#1430=DIRECTION('',(-1.,0.,0.));
#1431=DIRECTION('',(0.,0.,-1.));
#1432=DIRECTION('',(1.,0.,0.));
#1433=DIRECTION('',(0.,0.,-1.));
#1434=DIRECTION('',(-1.,0.,0.));
#1435=DIRECTION('',(0.,0.,-1.));
#1436=DIRECTION('',(1.,0.,0.));
#1437=DIRECTION('',(0.,-1.,0.));
#1438=DIRECTION('',(0.,0.,-1.));
#1439=DIRECTION('',(1.,0.,0.));
#1440=DIRECTION('',(1.,0.,0.));
#1441=DIRECTION('',(0.,0.,-1.));
#1442=DIRECTION('',(1.,0.,0.));
#1443=DIRECTION('',(1.,0.,0.));
#1444=DIRECTION('',(-1.,0.,0.));
#1445=DIRECTION('',(0.,0.,1.));
#1446=DIRECTION('',(1.,0.,0.));
#1447=DIRECTION('',(0.,0.,-1.));
#1448=DIRECTION('',(-1.,0.,0.));
#1449=DIRECTION('',(0.,0.,1.));
#1450=DIRECTION('',(1.,0.,0.));
#1451=DIRECTION('',(0.,0.,-1.));
#1452=DIRECTION('',(1.,0.,0.));
#1453=DIRECTION('',(0.,0.,-1.));
#1454=DIRECTION('',(0.,1.,0.));
#1455=DIRECTION('',(0.,0.,-1.));
#1456=DIRECTION('',(1.,0.,0.));
#1457=DIRECTION('',(0.,0.,-1.));
#1458=DIRECTION('',(0.,1.,0.));
#1459=DIRECTION('',(0.,0.,-1.));
#1460=DIRECTION('',(-0.707106781186548,-0.707106781186548,0.));
#1461=DIRECTION('',(0.707106781186548,-0.707106781186548,0.));
#1462=DIRECTION('',(0.,0.,1.));
#1463=DIRECTION('',(0.707106781186548,-0.707106781186548,0.));
#1464=DIRECTION('',(0.,0.,1.));
#1465=DIRECTION('',(-0.577350269189626,0.577350269189626,-0.577350269189626));
#1466=DIRECTION('',(-1.,0.,0.));
#1467=DIRECTION('',(0.,0.,1.));
#1468=DIRECTION('',(0.,0.,1.));
#1469=DIRECTION('',(0.,-1.,0.));
#1470=DIRECTION('',(0.,1.,0.));
#1471=DIRECTION('',(-0.707106781186548,0.707106781186547,0.));
#1472=DIRECTION('',(-0.707106781186547,-0.707106781186548,0.));
#1473=DIRECTION('',(0.,0.,1.));
#1474=DIRECTION('',(-0.707106781186547,-0.707106781186548,0.));
#1475=DIRECTION('',(0.577350269189626,0.577350269189626,0.577350269189626));
#1476=DIRECTION('',(-4.39825521387076E-16,1.,0.));
#1477=DIRECTION('',(-1.,-4.39825521387076E-16,0.));
#1478=DIRECTION('',(0.707106781186548,3.1100360871171E-16,0.707106781186548));
#1479=DIRECTION('',(-1.,-4.39825521387076E-16,0.));
#1480=DIRECTION('',(0.,0.,1.));
#1481=DIRECTION('',(-1.,-4.39825521387076E-16,0.));
#1482=DIRECTION('',(3.90956019010734E-16,-1.,0.));
#1483=DIRECTION('',(1.,3.90956019010734E-16,0.));
#1484=DIRECTION('',(1.,3.90956019010734E-16,0.));
#1485=DIRECTION('',(0.,0.,1.));
#1486=DIRECTION('',(1.,3.90956019010734E-16,0.));
#1487=DIRECTION('',(-0.707106781186548,-2.76447652188187E-16,-0.707106781186548));
#1488=DIRECTION('',(-0.707106781186548,0.,0.707106781186548));
#1489=DIRECTION('',(0.,-1.,0.));
#1490=DIRECTION('',(0.,1.,0.));
#1491=DIRECTION('',(0.707106781186548,0.,0.707106781186548));
#1492=DIRECTION('',(-0.707106781186548,0.,-0.707106781186548));
#1493=DIRECTION('',(0.,1.,0.));
#1494=DIRECTION('',(0.,1.,0.));
#1495=DIRECTION('',(0.,0.,1.));
#1496=DIRECTION('',(1.,2.4093381610789E-16,0.));
#1497=DIRECTION('',(0.,0.,-1.));
#1498=DIRECTION('',(1.,2.4093381610789E-16,0.));
#1499=DIRECTION('',(-0.707106781186548,-1.70365935187041E-16,-0.707106781186548));
#1500=DIRECTION('',(0.,1.,0.));
#1501=DIRECTION('',(0.,0.,1.));
#1502=DIRECTION('',(0.707106781186548,2.12957418983802E-16,0.707106781186548));
#1503=DIRECTION('',(1.,3.01167270134862E-16,0.));
#1504=DIRECTION('',(0.,0.,-1.));
#1505=DIRECTION('',(1.,3.01167270134862E-16,0.));
#1506=DIRECTION('',(0.,0.,1.));
#1507=DIRECTION('',(1.,0.,0.));
#1508=DIRECTION('',(0.,0.,-1.));
#1509=DIRECTION('',(1.,0.,0.));
#1510=DIRECTION('',(-0.707106781186548,0.707106781186548,0.));
#1511=DIRECTION('',(0.,1.,0.));
#1512=DIRECTION('',(0.707106781186549,0.707106781186546,0.));
#1513=DIRECTION('',(0.,0.,1.));
#1514=DIRECTION('',(1.,0.,0.));
#1515=DIRECTION('',(0.,0.,1.));
#1516=DIRECTION('',(1.,0.,0.));
#1517=DIRECTION('',(0.,0.,1.));
#1518=DIRECTION('',(1.,0.,0.));
#1519=DIRECTION('',(0.,0.,1.));
#1520=DIRECTION('',(1.,0.,0.));
#1521=DIRECTION('',(0.,0.,-1.));
#1522=DIRECTION('',(-1.,0.,0.));
#1523=DIRECTION('',(0.,0.,1.));
#1524=DIRECTION('',(1.,0.,0.));
#1525=DIRECTION('',(0.,0.,1.));
#1526=DIRECTION('',(1.,0.,0.));
#1527=DIRECTION('',(0.,0.,-1.));
#1528=DIRECTION('',(-1.,0.,0.));
#1529=DIRECTION('',(0.,0.,1.));
#1530=DIRECTION('',(1.,0.,0.));
#1531=DIRECTION('',(0.,0.,1.));
#1532=DIRECTION('',(1.,0.,0.));
#1533=DIRECTION('',(0.,0.,-1.));
#1534=DIRECTION('',(-1.,0.,0.));
#1535=DIRECTION('',(0.,0.,1.));
#1536=DIRECTION('',(1.,0.,0.));
#1537=DIRECTION('',(0.,0.,1.));
#1538=DIRECTION('',(1.,0.,0.));
#1539=DIRECTION('',(0.,0.,-1.));
#1540=DIRECTION('',(-1.,0.,0.));
#1541=DIRECTION('',(0.,0.,1.));
#1542=DIRECTION('',(1.,0.,0.));
#1543=DIRECTION('',(0.,0.,1.));
#1544=DIRECTION('',(1.,0.,0.));
#1545=DIRECTION('',(1.,0.,0.));
#1546=DIRECTION('',(0.,0.,-1.));
#1547=DIRECTION('',(0.,-1.,0.));
#1548=DIRECTION('',(0.,0.,-1.));
#1549=DIRECTION('',(0.,-1.,0.));
#1550=DIRECTION('',(0.,0.,-1.));
#1551=DIRECTION('',(0.,0.,-1.));
#1552=DIRECTION('',(-1.,0.,0.));
#1553=DIRECTION('',(0.,0.,-1.));
#1554=DIRECTION('',(1.,0.,0.));
#1555=DIRECTION('',(0.,0.,1.));
#1556=DIRECTION('',(1.,0.,0.));
#1557=DIRECTION('',(0.,0.,1.));
#1558=DIRECTION('',(1.,0.,0.));
#1559=DIRECTION('',(0.,-1.,0.));
#1560=DIRECTION('',(0.,0.,1.));
#1561=DIRECTION('',(1.,0.,0.));
#1562=DIRECTION('',(-0.707106781186548,0.,0.707106781186548));
#1563=DIRECTION('',(0.,1.,0.));
#1564=DIRECTION('',(0.707106781186548,0.707106781186548,0.));
#1565=DIRECTION('',(-0.707106781186548,0.707106781186548,0.));
#1566=DIRECTION('',(-0.707106781186548,0.707106781186548,0.));
#1567=DIRECTION('',(0.,0.,1.));
#1568=DIRECTION('',(1.,0.,0.));
#1569=DIRECTION('',(0.,0.,-1.));
#1570=DIRECTION('',(0.,1.,0.));
#1571=DIRECTION('',(0.,0.,1.));
#1572=DIRECTION('',(0.707106781186546,-0.707106781186549,0.));
#1573=DIRECTION('',(0.707106781186549,0.707106781186546,0.));
#1574=DIRECTION('',(0.707106781186549,0.707106781186546,0.));
#1575=DIRECTION('',(0.,0.,1.));
#1576=DIRECTION('',(1.,0.,0.));
#1577=DIRECTION('',(0.,0.,1.));
#1578=DIRECTION('',(1.,0.,0.));
#1579=DIRECTION('',(0.,0.,1.));
#1580=DIRECTION('',(1.,0.,0.));
#1581=DIRECTION('',(0.,0.,-1.));
#1582=DIRECTION('',(-1.,0.,0.));
#1583=DIRECTION('',(0.,0.,1.));
#1584=DIRECTION('',(1.,0.,0.));
#1585=DIRECTION('',(0.,0.,1.));
#1586=DIRECTION('',(1.,0.,0.));
#1587=DIRECTION('',(0.,0.,-1.));
#1588=DIRECTION('',(-1.,0.,0.));
#1589=DIRECTION('',(0.,0.,1.));
#1590=DIRECTION('',(1.,0.,0.));
#1591=DIRECTION('',(0.,0.,1.));
#1592=DIRECTION('',(1.,0.,0.));
#1593=DIRECTION('',(0.,0.,-1.));
#1594=DIRECTION('',(-1.,0.,0.));
#1595=DIRECTION('',(0.,0.,1.));
#1596=DIRECTION('',(1.,0.,0.));
#1597=DIRECTION('',(0.,0.,1.));
#1598=DIRECTION('',(1.,0.,0.));
#1599=DIRECTION('',(0.,0.,-1.));
#1600=DIRECTION('',(-1.,0.,0.));
#1601=DIRECTION('',(0.,0.,1.));
#1602=DIRECTION('',(1.,0.,0.));
#1603=DIRECTION('',(0.,0.,1.));
#1604=DIRECTION('',(1.,0.,0.));
#1605=DIRECTION('',(0.,0.,-1.));
#1606=DIRECTION('',(-1.,0.,0.));
#1607=DIRECTION('',(0.,0.,1.));
#1608=DIRECTION('',(1.,0.,0.));
#1609=CARTESIAN_POINT('',(0.,0.,0.));
#1610=CARTESIAN_POINT('',(0.,0.17,0.015));
#1611=CARTESIAN_POINT('',(0.,0.1541,0.015));
#1612=CARTESIAN_POINT('',(-0.01,0.1541,0.015));
#1613=CARTESIAN_POINT('',(0.015,0.1541,0.015));
#1614=CARTESIAN_POINT('',(0.015,0.159,0.015));
#1615=CARTESIAN_POINT('',(0.015,0.1859,0.015));
#1616=CARTESIAN_POINT('',(0.,0.1859,0.015));
#1617=CARTESIAN_POINT('',(-0.01,0.1859,0.015));
#1618=CARTESIAN_POINT('',(-0.01,0.206,0.015));
#1619=CARTESIAN_POINT('',(-0.01,0.2261,0.015));
#1620=CARTESIAN_POINT('',(-0.01,0.2261,0.015));
#1621=CARTESIAN_POINT('',(0.015,0.2261,0.015));
#1622=CARTESIAN_POINT('',(0.015,0.206,0.015));
#1623=CARTESIAN_POINT('',(0.015,0.1906,0.015));
#1624=CARTESIAN_POINT('',(0.0563,0.1906,0.015));
#1625=CARTESIAN_POINT('',(0.0275,0.1906,0.015));
#1626=CARTESIAN_POINT('',(0.0275,0.17,0.015));
#1627=CARTESIAN_POINT('',(0.0275,0.2305,0.015));
#1628=CARTESIAN_POINT('',(0.,0.2305,0.015));
#1629=CARTESIAN_POINT('',(-0.0275,0.2305,0.015));
#1630=CARTESIAN_POINT('',(-0.0275,0.17,0.015));
#1631=CARTESIAN_POINT('',(-0.0275,0.104375644347018,0.015));
#1632=CARTESIAN_POINT('',(-0.15,0.104375644347018,0.015));
#1633=CARTESIAN_POINT('',(0.0275,0.104375644347018,0.015));
#1634=CARTESIAN_POINT('',(0.0275,0.17,0.015));
#1635=CARTESIAN_POINT('',(0.0275,0.1274,0.015));
#1636=CARTESIAN_POINT('',(0.0563,0.1274,0.015));
#1637=CARTESIAN_POINT('',(0.015,0.1274,0.015));
#1638=CARTESIAN_POINT('',(0.015,0.134,0.015));
#1639=CARTESIAN_POINT('',(0.015,0.1139,0.015));
#1640=CARTESIAN_POINT('',(-0.01,0.1139,0.015));
#1641=CARTESIAN_POINT('',(-0.01,0.1139,0.015));
#1642=CARTESIAN_POINT('',(-0.01,0.134,0.015));
#1643=CARTESIAN_POINT('',(0.015,0.17,0.0337443535029888));
#1644=CARTESIAN_POINT('',(0.015,0.1339,0.025));
#1645=CARTESIAN_POINT('',(0.015,0.1339,0.035));
#1646=CARTESIAN_POINT('',(0.015,0.129541101056459,0.034));
#1647=CARTESIAN_POINT('',(0.015,0.1906,0.034));
#1648=CARTESIAN_POINT('',(0.015,0.138458898943541,0.034));
#1649=CARTESIAN_POINT('',(0.015,0.1341,0.025));
#1650=CARTESIAN_POINT('',(0.015,0.1341,0.035));
#1651=CARTESIAN_POINT('',(0.015,0.134,0.035));
#1652=CARTESIAN_POINT('',(0.015,0.17,0.0337443535029888));
#1653=CARTESIAN_POINT('',(0.015,0.1859,0.025));
#1654=CARTESIAN_POINT('',(0.015,0.1906,0.0161733358509571));
#1655=CARTESIAN_POINT('',(0.015,0.1959,0.025));
#1656=CARTESIAN_POINT('',(0.015,0.1906,0.039));
#1657=CARTESIAN_POINT('',(0.015,0.2261,0.025));
#1658=CARTESIAN_POINT('',(0.015,0.2161,0.025));
#1659=CARTESIAN_POINT('',(0.015,0.2061,0.025));
#1660=CARTESIAN_POINT('',(0.015,0.2061,0.035));
#1661=CARTESIAN_POINT('',(0.015,0.206,0.035));
#1662=CARTESIAN_POINT('',(0.015,0.2059,0.035));
#1663=CARTESIAN_POINT('',(0.015,0.2059,0.025));
#1664=CARTESIAN_POINT('',(0.,0.17,0.));
#1665=CARTESIAN_POINT('',(0.0275,0.17,0.));
#1666=CARTESIAN_POINT('',(0.0275,0.2025,0.));
#1667=CARTESIAN_POINT('',(0.0275,0.1375,0.));
#1668=CARTESIAN_POINT('',(-0.0275,0.1375,0.));
#1669=CARTESIAN_POINT('',(-0.0275,0.1375,0.));
#1670=CARTESIAN_POINT('',(-0.0275,0.17,0.));
#1671=CARTESIAN_POINT('',(-0.0275,0.2025,0.));
#1672=CARTESIAN_POINT('',(0.,0.2025,0.));
#1673=CARTESIAN_POINT('',(0.,0.2375,0.015));
#1674=CARTESIAN_POINT('',(-0.0275,0.2375,0.015));
#1675=CARTESIAN_POINT('',(-0.0275,0.2375,0.008));
#1676=CARTESIAN_POINT('',(-0.0275,0.2375,-0.015));
#1677=CARTESIAN_POINT('',(0.,0.2375,0.008));
#1678=CARTESIAN_POINT('',(0.0275,0.2375,0.008));
#1679=CARTESIAN_POINT('',(0.0275,0.2375,0.015));
#1680=CARTESIAN_POINT('',(0.0275,0.2375,-0.015));
#1681=CARTESIAN_POINT('',(0.,0.2375,-0.015));
#1682=CARTESIAN_POINT('',(-0.15,0.1025,0.015));
#1683=CARTESIAN_POINT('',(0.0275,0.1025,0.015));
#1684=CARTESIAN_POINT('',(0.0275,0.100875644347018,0.0140621778264911));
#1685=CARTESIAN_POINT('',(0.0275,0.0505384757729337,-0.015));
#1686=CARTESIAN_POINT('',(-0.15,0.100875644347018,0.0140621778264911));
#1687=CARTESIAN_POINT('',(-0.0275,0.100875644347018,0.0140621778264911));
#1688=CARTESIAN_POINT('',(-0.0275,0.1025,0.015));
#1689=CARTESIAN_POINT('',(-0.0275,0.0505384757729337,-0.015));
#1690=CARTESIAN_POINT('',(6.93889390390723E-18,0.0505384757729337,-0.015));
#1691=CARTESIAN_POINT('',(-0.0275,0.17,0.015));
#1692=CARTESIAN_POINT('',(-0.0275,0.104375644347018,0.008));
#1693=CARTESIAN_POINT('',(-0.0275,0.2305,0.008));
#1694=CARTESIAN_POINT('',(-0.0275,0.17,-0.015));
#1695=CARTESIAN_POINT('',(-0.0275,0.2175,-0.015));
#1696=CARTESIAN_POINT('',(-0.0275,0.2025,-0.015));
#1697=CARTESIAN_POINT('',(-0.0275,0.1375,-0.015));
#1698=CARTESIAN_POINT('',(-0.0275,0.1225,-0.015));
#1699=CARTESIAN_POINT('',(-0.0275,0.17,-0.015));
#1700=CARTESIAN_POINT('',(0.0275,0.17,0.015));
#1701=CARTESIAN_POINT('',(0.0275,0.1274,0.015));
#1702=CARTESIAN_POINT('',(0.0275,0.1274,0.006));
#1703=CARTESIAN_POINT('',(0.0275,0.104375644347018,0.008));
#1704=CARTESIAN_POINT('',(0.0275,0.17,-0.015));
#1705=CARTESIAN_POINT('',(0.0275,0.1225,-0.015));
#1706=CARTESIAN_POINT('',(0.0275,0.1375,-0.015));
#1707=CARTESIAN_POINT('',(0.0275,0.2025,-0.015));
#1708=CARTESIAN_POINT('',(0.0275,0.2175,-0.015));
#1709=CARTESIAN_POINT('',(0.0275,0.17,-0.015));
#1710=CARTESIAN_POINT('',(0.0275,0.2305,0.008));
#1711=CARTESIAN_POINT('',(0.0275,0.1906,0.015));
#1712=CARTESIAN_POINT('',(0.0275,0.1906,0.006));
#1713=CARTESIAN_POINT('',(0.0275,0.17,0.006));
#1714=CARTESIAN_POINT('',(0.01,0.17,0.0337443535029888));
#1715=CARTESIAN_POINT('',(0.01,0.134,0.025));
#1716=CARTESIAN_POINT('',(0.01,0.1391,0.025));
#1717=CARTESIAN_POINT('',(0.01,0.134,0.025));
#1718=CARTESIAN_POINT('',(-0.01,0.134,0.025));
#1719=CARTESIAN_POINT('',(-0.01,0.1391,0.025));
#1720=CARTESIAN_POINT('',(0.015,0.134,0.035));
#1721=CARTESIAN_POINT('',(-0.01,0.1341,0.035));
#1722=CARTESIAN_POINT('',(-0.01,0.1341,0.035));
#1723=CARTESIAN_POINT('',(-0.01,0.134,0.035));
#1724=CARTESIAN_POINT('',(-0.01,0.1339,0.035));
#1725=CARTESIAN_POINT('',(0.015,0.1339,0.035));
#1726=CARTESIAN_POINT('',(0.015,0.1341,0.025));
#1727=CARTESIAN_POINT('',(0.015,0.1341,0.025));
#1728=CARTESIAN_POINT('',(0.015,0.1441,0.025));
#1729=CARTESIAN_POINT('',(0.015,0.1441,0.025));
#1730=CARTESIAN_POINT('',(-0.01,0.1441,0.025));
#1731=CARTESIAN_POINT('',(-0.01,0.1341,0.025));
#1732=CARTESIAN_POINT('',(0.015,0.1339,0.025));
#1733=CARTESIAN_POINT('',(0.015,0.1239,0.025));
#1734=CARTESIAN_POINT('',(0.015,0.1239,0.025));
#1735=CARTESIAN_POINT('',(-0.01,0.1239,0.025));
#1736=CARTESIAN_POINT('',(0.015,0.1339,0.025));
#1737=CARTESIAN_POINT('',(0.015,0.1274,0.0325993420767854));
#1738=CARTESIAN_POINT('',(0.015,0.1339,0.025));
#1739=CARTESIAN_POINT('',(-0.01,0.1339,0.025));
#1740=CARTESIAN_POINT('',(0.,0.1139,0.025));
#1741=CARTESIAN_POINT('',(0.015,0.1139,0.025));
#1742=CARTESIAN_POINT('',(-0.01,0.1139,0.025));
#1743=CARTESIAN_POINT('',(0.015,0.1541,0.025));
#1744=CARTESIAN_POINT('',(0.015,0.1541,0.025));
#1745=CARTESIAN_POINT('',(-0.01,0.1541,0.025));
#1746=CARTESIAN_POINT('',(-0.01,0.17,0.0337443535029888));
#1747=CARTESIAN_POINT('',(0.015,0.17,0.0337443535029888));
#1748=CARTESIAN_POINT('',(0.015,0.1274,0.039));
#1749=CARTESIAN_POINT('',(0.01,0.17,0.0337443535029888));
#1750=CARTESIAN_POINT('',(0.01,0.206,0.025));
#1751=CARTESIAN_POINT('',(0.01,0.2009,0.025));
#1752=CARTESIAN_POINT('',(0.01,0.206,0.025));
#1753=CARTESIAN_POINT('',(-0.01,0.206,0.025));
#1754=CARTESIAN_POINT('',(-0.01,0.2009,0.025));
#1755=CARTESIAN_POINT('',(0.015,0.206,0.035));
#1756=CARTESIAN_POINT('',(0.015,0.2061,0.035));
#1757=CARTESIAN_POINT('',(-0.01,0.2061,0.035));
#1758=CARTESIAN_POINT('',(-0.01,0.206,0.035));
#1759=CARTESIAN_POINT('',(-0.01,0.2059,0.035));
#1760=CARTESIAN_POINT('',(-0.01,0.2059,0.035));
#1761=CARTESIAN_POINT('',(0.015,0.2059,0.025));
#1762=CARTESIAN_POINT('',(-0.01,0.2059,0.025));
#1763=CARTESIAN_POINT('',(-0.01,0.1959,0.025));
#1764=CARTESIAN_POINT('',(0.015,0.1959,0.025));
#1765=CARTESIAN_POINT('',(0.015,0.2061,0.025));
#1766=CARTESIAN_POINT('',(0.015,0.2161,0.025));
#1767=CARTESIAN_POINT('',(-0.01,0.2161,0.025));
#1768=CARTESIAN_POINT('',(-0.01,0.2061,0.025));
#1769=CARTESIAN_POINT('',(0.015,0.1859,0.025));
#1770=CARTESIAN_POINT('',(0.015,0.1859,0.025));
#1771=CARTESIAN_POINT('',(-0.01,0.1859,0.025));
#1772=CARTESIAN_POINT('',(0.,0.2261,0.025));
#1773=CARTESIAN_POINT('',(-0.01,0.2261,0.025));
#1774=CARTESIAN_POINT('',(-0.01,0.17,0.0337443535029888));
#1775=CARTESIAN_POINT('',(6.93889390390723E-18,0.17,-0.015));
#1776=CARTESIAN_POINT('',(0.,0.1225,-0.015));
#1777=CARTESIAN_POINT('',(6.93889390390723E-18,0.17,-0.015));
#1778=CARTESIAN_POINT('',(1.7347234759768E-17,0.2175,-0.015));
#1779=CARTESIAN_POINT('',(0.,0.1375,-0.015));
#1780=CARTESIAN_POINT('',(0.,0.2025,-0.015));
#1781=CARTESIAN_POINT('',(-0.15,0.104375644347018,0.008));
#1782=CARTESIAN_POINT('',(0.,0.2305,0.008));
#1783=CARTESIAN_POINT('',(0.015,0.159,0.039));
#1784=CARTESIAN_POINT('',(0.015,0.1906,0.034));
#1785=CARTESIAN_POINT('',(0.015,0.1906,0.034));
#1786=CARTESIAN_POINT('',(0.015,0.1906,0.039));
#1787=CARTESIAN_POINT('',(0.015,0.159,0.039));
#1788=CARTESIAN_POINT('',(0.015,0.1906,0.034));
#1789=CARTESIAN_POINT('',(0.015,0.1274,0.034));
#1790=CARTESIAN_POINT('',(0.015,0.1274,0.039));
#1791=CARTESIAN_POINT('',(0.0338257359312881,0.139325735931288,0.024));
#1792=CARTESIAN_POINT('',(0.0319,0.141251471862576,0.024));
#1793=CARTESIAN_POINT('',(0.0319,0.141251471862576,0.0104));
#1794=CARTESIAN_POINT('',(0.0319,0.141251471862576,0.034));
#1795=CARTESIAN_POINT('',(0.0338257359312881,0.139325735931288,0.034));
#1796=CARTESIAN_POINT('',(0.0357514718625761,0.1374,0.034));
#1797=CARTESIAN_POINT('',(0.0357514718625761,0.1374,0.024));
#1798=CARTESIAN_POINT('',(0.0357514718625761,0.1374,0.0142514718625761));
#1799=CARTESIAN_POINT('',(0.0377171572875254,0.135434314575051,0.0162171572875254));
#1800=CARTESIAN_POINT('',(0.0319,0.159,0.024));
#1801=CARTESIAN_POINT('',(0.0319,0.176748528137424,0.024));
#1802=CARTESIAN_POINT('',(0.0319,0.176748528137424,0.0104));
#1803=CARTESIAN_POINT('',(0.0319,0.176748528137424,0.034));
#1804=CARTESIAN_POINT('',(0.0319,0.159,0.034));
#1805=CARTESIAN_POINT('',(0.0319,0.159,0.0104));
#1806=CARTESIAN_POINT('',(0.0338257359312881,0.178674264068712,0.024));
#1807=CARTESIAN_POINT('',(0.0357514718625761,0.1806,0.024));
#1808=CARTESIAN_POINT('',(0.0357514718625761,0.1806,0.0142514718625761));
#1809=CARTESIAN_POINT('',(0.0357514718625761,0.1806,0.034));
#1810=CARTESIAN_POINT('',(0.0338257359312881,0.178674264068712,0.034));
#1811=CARTESIAN_POINT('',(0.0377171572875254,0.182565685424949,0.0162171572875254));
#1812=CARTESIAN_POINT('',(0.0535,0.1806,0.024));
#1813=CARTESIAN_POINT('',(0.0495,0.1806,0.028));
#1814=CARTESIAN_POINT('',(0.0455,0.1806,0.024));
#1815=CARTESIAN_POINT('',(0.0535,0.1806,0.024));
#1816=CARTESIAN_POINT('',(0.0712485281374239,0.1806,0.024));
#1817=CARTESIAN_POINT('',(0.0712485281374239,0.1806,0.024));
#1818=CARTESIAN_POINT('',(0.0712485281374239,0.1806,0.034));
#1819=CARTESIAN_POINT('',(0.0535,0.1806,0.034));
#1820=CARTESIAN_POINT('',(0.0535,0.1374,0.024));
#1821=CARTESIAN_POINT('',(0.0535,0.1374,0.034));
#1822=CARTESIAN_POINT('',(0.0712485281374239,0.1374,0.034));
#1823=CARTESIAN_POINT('',(0.0712485281374239,0.1374,0.024));
#1824=CARTESIAN_POINT('',(0.0712485281374239,0.1374,0.024));
#1825=CARTESIAN_POINT('',(0.0535,0.1374,0.024));
#1826=CARTESIAN_POINT('',(0.0455,0.1374,0.024));
#1827=CARTESIAN_POINT('',(0.0495,0.1374,0.028));
#1828=CARTESIAN_POINT('',(0.0275,0.17,0.006));
#1829=CARTESIAN_POINT('',(0.0455,0.159,0.024));
#1830=CARTESIAN_POINT('',(0.0455,0.1274,0.024));
#1831=CARTESIAN_POINT('',(-0.00175,0.1274,-0.02325));
#1832=CARTESIAN_POINT('',(0.0275,0.1906,0.006));
#1833=CARTESIAN_POINT('',(0.0455,0.1906,0.024));
#1834=CARTESIAN_POINT('',(0.0455,0.159,0.024));
#1835=CARTESIAN_POINT('',(-0.04,0.1274,0.015));
#1836=CARTESIAN_POINT('',(0.0563,0.1274,0.024));
#1837=CARTESIAN_POINT('',(0.0751,0.1274,0.024));
#1838=CARTESIAN_POINT('',(0.0751,0.1274,0.039));
#1839=CARTESIAN_POINT('',(0.0751,0.1274,0.039));
#1840=CARTESIAN_POINT('',(0.0563,0.1274,0.039));
#1841=CARTESIAN_POINT('',(0.02,0.1274,0.039));
#1842=CARTESIAN_POINT('',(0.02,0.1274,0.039));
#1843=CARTESIAN_POINT('',(-0.04,0.1906,0.015));
#1844=CARTESIAN_POINT('',(0.03815,0.1906,0.05715));
#1845=CARTESIAN_POINT('',(0.02,0.1906,0.039));
#1846=CARTESIAN_POINT('',(0.0563,0.1906,0.039));
#1847=CARTESIAN_POINT('',(0.0751,0.1906,0.039));
#1848=CARTESIAN_POINT('',(0.0751,0.1906,0.039));
#1849=CARTESIAN_POINT('',(0.0751,0.1906,0.024));
#1850=CARTESIAN_POINT('',(0.0563,0.1906,0.024));
#1851=CARTESIAN_POINT('',(0.0563,0.159,0.034));
#1852=CARTESIAN_POINT('',(0.0535,0.159,0.034));
#1853=CARTESIAN_POINT('',(0.0648,0.159,0.034));
#1854=CARTESIAN_POINT('',(0.0731742640687119,0.178674264068712,0.034));
#1855=CARTESIAN_POINT('',(0.0751,0.176748528137424,0.034));
#1856=CARTESIAN_POINT('',(0.0751,0.159,0.034));
#1857=CARTESIAN_POINT('',(0.0751,0.141251471862576,0.034));
#1858=CARTESIAN_POINT('',(0.0731742640687119,0.139325735931288,0.034));
#1859=CARTESIAN_POINT('',(0.069,0.1745,0.034));
#1860=CARTESIAN_POINT('',(0.0707,0.1745,0.034));
#1861=CARTESIAN_POINT('',(0.038,0.1745,0.034));
#1862=CARTESIAN_POINT('',(0.0397,0.1745,0.034));
#1863=CARTESIAN_POINT('',(0.038,0.1435,0.034));
#1864=CARTESIAN_POINT('',(0.0397,0.1435,0.034));
#1865=CARTESIAN_POINT('',(0.069,0.1435,0.034));
#1866=CARTESIAN_POINT('',(0.0707,0.1435,0.034));
#1867=CARTESIAN_POINT('',(0.069,0.1435,0.039));
#1868=CARTESIAN_POINT('',(0.069,0.1435,0.037));
#1869=CARTESIAN_POINT('',(0.072,0.1435,0.037));
#1870=CARTESIAN_POINT('',(0.069,0.1435,0.039));
#1871=CARTESIAN_POINT('',(0.072,0.1435,0.039));
#1872=CARTESIAN_POINT('',(0.038,0.1435,0.039));
#1873=CARTESIAN_POINT('',(0.038,0.1435,0.037));
#1874=CARTESIAN_POINT('',(0.041,0.1435,0.037));
#1875=CARTESIAN_POINT('',(0.038,0.1435,0.039));
#1876=CARTESIAN_POINT('',(0.041,0.1435,0.039));
#1877=CARTESIAN_POINT('',(0.038,0.1745,0.039));
#1878=CARTESIAN_POINT('',(0.038,0.1745,0.037));
#1879=CARTESIAN_POINT('',(0.041,0.1745,0.037));
#1880=CARTESIAN_POINT('',(0.038,0.1745,0.039));
#1881=CARTESIAN_POINT('',(0.041,0.1745,0.039));
#1882=CARTESIAN_POINT('',(0.069,0.1745,0.039));
#1883=CARTESIAN_POINT('',(0.069,0.1745,0.037));
#1884=CARTESIAN_POINT('',(0.072,0.1745,0.037));
#1885=CARTESIAN_POINT('',(0.069,0.1745,0.039));
#1886=CARTESIAN_POINT('',(0.072,0.1745,0.039));
#1887=CARTESIAN_POINT('',(0.0851,0.159,0.039));
#1888=CARTESIAN_POINT('',(0.0851,0.159,0.024));
#1889=CARTESIAN_POINT('',(0.0851,0.1806,0.024));
#1890=CARTESIAN_POINT('',(0.0851,0.1374,0.024));
#1891=CARTESIAN_POINT('',(0.0851,0.1806,0.039));
#1892=CARTESIAN_POINT('',(0.0851,0.1806,0.039));
#1893=CARTESIAN_POINT('',(0.0851,0.159,0.039));
#1894=CARTESIAN_POINT('',(0.0851,0.1374,0.039));
#1895=CARTESIAN_POINT('',(0.0851,0.1374,0.024));
#1896=CARTESIAN_POINT('',(0.0535,0.159,0.039));
#1897=CARTESIAN_POINT('',(0.0535,0.159,0.039));
#1898=CARTESIAN_POINT('',(0.0648,0.159,0.039));
#1899=CARTESIAN_POINT('',(0.0563,0.159,0.039));
#1900=CARTESIAN_POINT('',(0.0751,0.1806,0.039));
#1901=CARTESIAN_POINT('',(0.02,0.1274,0.039));
#1902=CARTESIAN_POINT('',(0.0751,0.1374,0.039));
#1903=CARTESIAN_POINT('',(0.02,0.159,0.039));
#1904=CARTESIAN_POINT('',(0.0731742640687119,0.178674264068712,0.024));
#1905=CARTESIAN_POINT('',(0.0731742640687119,0.178674264068712,0.024));
#1906=CARTESIAN_POINT('',(0.0751,0.176748528137424,0.024));
#1907=CARTESIAN_POINT('',(0.0751,0.176748528137424,0.024));
#1908=CARTESIAN_POINT('',(0.0751,0.159,0.024));
#1909=CARTESIAN_POINT('',(0.0751,0.159,0.024));
#1910=CARTESIAN_POINT('',(0.0751,0.141251471862576,0.024));
#1911=CARTESIAN_POINT('',(0.0751,0.141251471862576,0.024));
#1912=CARTESIAN_POINT('',(0.0731742640687119,0.139325735931288,0.024));
#1913=CARTESIAN_POINT('',(0.0731742640687119,0.139325735931288,0.024));
#1914=CARTESIAN_POINT('',(0.0563,0.159,0.024));
#1915=CARTESIAN_POINT('',(0.0751,0.1806,0.024));
#1916=CARTESIAN_POINT('',(0.0751,0.1374,0.024));
#1917=CARTESIAN_POINT('',(0.069,0.1745,0.037));
#1918=CARTESIAN_POINT('',(0.069,0.1745,0.037));
#1919=CARTESIAN_POINT('',(0.0707,0.1745,0.037));
#1920=CARTESIAN_POINT('',(0.0563,0.159,0.037));
#1921=CARTESIAN_POINT('',(0.038,0.1745,0.037));
#1922=CARTESIAN_POINT('',(0.038,0.1745,0.037));
#1923=CARTESIAN_POINT('',(0.0397,0.1745,0.037));
#1924=CARTESIAN_POINT('',(0.0563,0.159,0.037));
#1925=CARTESIAN_POINT('',(0.038,0.1435,0.037));
#1926=CARTESIAN_POINT('',(0.038,0.1435,0.037));
#1927=CARTESIAN_POINT('',(0.0397,0.1435,0.037));
#1928=CARTESIAN_POINT('',(0.0563,0.159,0.037));
#1929=CARTESIAN_POINT('',(0.069,0.1435,0.037));
#1930=CARTESIAN_POINT('',(0.069,0.1435,0.037));
#1931=CARTESIAN_POINT('',(0.0707,0.1435,0.037));
#1932=CARTESIAN_POINT('',(0.0563,0.159,0.037));
#1933=CARTESIAN_POINT('',(0.0751,0.1806,0.039));
#1934=CARTESIAN_POINT('',(0.0751,0.1374,0.039));
#1935=MECHANICAL_DESIGN_GEOMETRIC_PRESENTATION_REPRESENTATION('',(#1142),
#1936);
#1936=(
GEOMETRIC_REPRESENTATION_CONTEXT(3)
GLOBAL_UNCERTAINTY_ASSIGNED_CONTEXT((#1937))
GLOBAL_UNIT_ASSIGNED_CONTEXT((#1940,#1939,#1938))
REPRESENTATION_CONTEXT('Part 1','TOP_LEVEL_ASSEMBLY_PART')
);
#1937=UNCERTAINTY_MEASURE_WITH_UNIT(LENGTH_MEASURE(1.E-8),#1940,
'DISTANCE_ACCURACY_VALUE','Maximum Tolerance applied to model');
#1938=(
NAMED_UNIT(*)
SI_UNIT($,.STERADIAN.)
SOLID_ANGLE_UNIT()
);
#1939=(
NAMED_UNIT(*)
PLANE_ANGLE_UNIT()
SI_UNIT($,.RADIAN.)
);
#1940=(
LENGTH_UNIT()
NAMED_UNIT(*)
SI_UNIT($,.METRE.)
);
#1941=PRODUCT_DEFINITION_SHAPE('','',#1942);
#1942=PRODUCT_DEFINITION('','',#1944,#1943);
#1943=PRODUCT_DEFINITION_CONTEXT('',#1950,'design');
#1944=PRODUCT_DEFINITION_FORMATION_WITH_SPECIFIED_SOURCE('','',#1946,
 .NOT_KNOWN.);
#1945=PRODUCT_RELATED_PRODUCT_CATEGORY('','',(#1946));
#1946=PRODUCT('Part 1','Part 1','Part 1',(#1948));
#1947=PRODUCT_CATEGORY('','');
#1948=PRODUCT_CONTEXT('',#1950,'mechanical');
#1949=APPLICATION_PROTOCOL_DEFINITION('international standard',
'ap242_managed_model_based_3d_engineering',2020,#1950);
#1950=APPLICATION_CONTEXT('managed model based 3d engineering');
ENDSEC;
END-ISO-10303-21;
