ISO-10303-21;
HEADER;
/* Generated by software containing ST-Developer
 * from STEP Tools, Inc. (www.steptools.com) 
 */
/* OPTION: using custom renumber hook */

FILE_DESCRIPTION(
/* description */ ('STEP AP242 Edition 2',
'CAx-IF Rec.Pracs.---Representation and Presentation of Product Manufa
cturing Information (PMI)---4.0---2014-10-13',
'CAx-IF Rec.Pracs.---3D Tessellated Geometry---0.4---2014-09-14','2;1',
'CAx-IF Rec.Pracs.---User Defined Attributes---1.5---2016-08-15'),
/* implementation_level */ '2;1');

FILE_NAME(
/* name */ 'Rack Gear - Part 3',
/* time_stamp */ '2026-10-04T09:38:18Z',
/* author */ (''),
/* organization */ (''),
/* preprocessor_version */ 'ST-DEVELOPER v20',
/* originating_system */ 'ONSHAPE BY PTC INC, 1.221',
/* authorisation */ '  ');

FILE_SCHEMA (('AP242_MANAGED_MODEL_BASED_3D_ENGINEERING_MIM_LF { 1 0 10303 442 3 1 4 }'));
ENDSEC;

DATA;
#10=SHAPE_REPRESENTATION_RELATIONSHIP('','',#987,#11);
#11=ADVANCED_BREP_SHAPE_REPRESENTATION('',(#985),#1735);
#12=PLANE('',#1010);
#13=PLANE('',#1041);
#14=PLANE('',#1072);
#15=PLANE('',#1074);
#16=PLANE('',#1079);
#17=PLANE('',#1081);
#18=PLANE('',#1086);
#19=PLANE('',#1088);
#20=PLANE('',#1093);
#21=PLANE('',#1095);
#22=PLANE('',#1100);
#23=PLANE('',#1102);
#24=PLANE('',#1107);
#25=PLANE('',#1109);
#26=LINE('',#1443,#98);
#27=LINE('',#1447,#99);
#28=LINE('',#1452,#100);
#29=LINE('',#1456,#101);
#30=LINE('',#1461,#102);
#31=LINE('',#1465,#103);
#32=LINE('',#1470,#104);
#33=LINE('',#1474,#105);
#34=LINE('',#1479,#106);
#35=LINE('',#1483,#107);
#36=LINE('',#1488,#108);
#37=LINE('',#1492,#109);
#38=LINE('',#1499,#110);
#39=LINE('',#1508,#111);
#40=LINE('',#1513,#112);
#41=LINE('',#1521,#113);
#42=LINE('',#1526,#114);
#43=LINE('',#1534,#115);
#44=LINE('',#1539,#116);
#45=LINE('',#1547,#117);
#46=LINE('',#1552,#118);
#47=LINE('',#1560,#119);
#48=LINE('',#1565,#120);
#49=LINE('',#1573,#121);
#50=LINE('',#1583,#122);
#51=LINE('',#1588,#123);
#52=LINE('',#1596,#124);
#53=LINE('',#1601,#125);
#54=LINE('',#1609,#126);
#55=LINE('',#1614,#127);
#56=LINE('',#1622,#128);
#57=LINE('',#1627,#129);
#58=LINE('',#1635,#130);
#59=LINE('',#1640,#131);
#60=LINE('',#1648,#132);
#61=LINE('',#1653,#133);
#62=LINE('',#1657,#134);
#63=LINE('',#1658,#135);
#64=LINE('',#1660,#136);
#65=LINE('',#1661,#137);
#66=LINE('',#1663,#138);
#67=LINE('',#1664,#139);
#68=LINE('',#1670,#140);
#69=LINE('',#1671,#141);
#70=LINE('',#1673,#142);
#71=LINE('',#1674,#143);
#72=LINE('',#1676,#144);
#73=LINE('',#1677,#145);
#74=LINE('',#1683,#146);
#75=LINE('',#1684,#147);
#76=LINE('',#1686,#148);
#77=LINE('',#1687,#149);
#78=LINE('',#1689,#150);
#79=LINE('',#1690,#151);
#80=LINE('',#1696,#152);
#81=LINE('',#1697,#153);
#82=LINE('',#1699,#154);
#83=LINE('',#1700,#155);
#84=LINE('',#1702,#156);
#85=LINE('',#1703,#157);
#86=LINE('',#1709,#158);
#87=LINE('',#1710,#159);
#88=LINE('',#1712,#160);
#89=LINE('',#1713,#161);
#90=LINE('',#1715,#162);
#91=LINE('',#1716,#163);
#92=LINE('',#1722,#164);
#93=LINE('',#1723,#165);
#94=LINE('',#1725,#166);
#95=LINE('',#1726,#167);
#96=LINE('',#1728,#168);
#97=LINE('',#1729,#169);
#98=VECTOR('',#1120,1.);
#99=VECTOR('',#1123,1.);
#100=VECTOR('',#1128,1.);
#101=VECTOR('',#1131,1.);
#102=VECTOR('',#1136,1.);
#103=VECTOR('',#1139,1.);
#104=VECTOR('',#1144,1.);
#105=VECTOR('',#1147,1.);
#106=VECTOR('',#1152,1.);
#107=VECTOR('',#1155,1.);
#108=VECTOR('',#1160,1.);
#109=VECTOR('',#1163,1.);
#110=VECTOR('',#1172,1.);
#111=VECTOR('',#1179,1.);
#112=VECTOR('',#1184,1.);
#113=VECTOR('',#1191,1.);
#114=VECTOR('',#1196,1.);
#115=VECTOR('',#1203,1.);
#116=VECTOR('',#1208,1.);
#117=VECTOR('',#1215,1.);
#118=VECTOR('',#1220,1.);
#119=VECTOR('',#1227,1.);
#120=VECTOR('',#1232,1.);
#121=VECTOR('',#1239,1.);
#122=VECTOR('',#1250,1.);
#123=VECTOR('',#1255,1.);
#124=VECTOR('',#1262,1.);
#125=VECTOR('',#1267,1.);
#126=VECTOR('',#1274,1.);
#127=VECTOR('',#1279,1.);
#128=VECTOR('',#1286,1.);
#129=VECTOR('',#1291,1.);
#130=VECTOR('',#1298,1.);
#131=VECTOR('',#1303,1.);
#132=VECTOR('',#1310,1.);
#133=VECTOR('',#1315,1.);
#134=VECTOR('',#1320,1.);
#135=VECTOR('',#1321,1.);
#136=VECTOR('',#1324,1.);
#137=VECTOR('',#1325,1.);
#138=VECTOR('',#1328,1.);
#139=VECTOR('',#1329,1.);
#140=VECTOR('',#1340,1.);
#141=VECTOR('',#1341,1.);
#142=VECTOR('',#1344,1.);
#143=VECTOR('',#1345,1.);
#144=VECTOR('',#1348,1.);
#145=VECTOR('',#1349,1.);
#146=VECTOR('',#1360,1.);
#147=VECTOR('',#1361,1.);
#148=VECTOR('',#1364,1.);
#149=VECTOR('',#1365,1.);
#150=VECTOR('',#1368,1.);
#151=VECTOR('',#1369,1.);
#152=VECTOR('',#1380,1.);
#153=VECTOR('',#1381,1.);
#154=VECTOR('',#1384,1.);
#155=VECTOR('',#1385,1.);
#156=VECTOR('',#1388,1.);
#157=VECTOR('',#1389,1.);
#158=VECTOR('',#1400,1.);
#159=VECTOR('',#1401,1.);
#160=VECTOR('',#1404,1.);
#161=VECTOR('',#1405,1.);
#162=VECTOR('',#1408,1.);
#163=VECTOR('',#1409,1.);
#164=VECTOR('',#1420,1.);
#165=VECTOR('',#1421,1.);
#166=VECTOR('',#1424,1.);
#167=VECTOR('',#1425,1.);
#168=VECTOR('',#1428,1.);
#169=VECTOR('',#1429,1.);
#170=ORIENTED_EDGE('',*,*,#462,.T.);
#171=ORIENTED_EDGE('',*,*,#463,.T.);
#172=ORIENTED_EDGE('',*,*,#464,.F.);
#173=ORIENTED_EDGE('',*,*,#465,.T.);
#174=ORIENTED_EDGE('',*,*,#466,.T.);
#175=ORIENTED_EDGE('',*,*,#467,.T.);
#176=ORIENTED_EDGE('',*,*,#468,.F.);
#177=ORIENTED_EDGE('',*,*,#469,.T.);
#178=ORIENTED_EDGE('',*,*,#470,.T.);
#179=ORIENTED_EDGE('',*,*,#471,.T.);
#180=ORIENTED_EDGE('',*,*,#472,.F.);
#181=ORIENTED_EDGE('',*,*,#473,.T.);
#182=ORIENTED_EDGE('',*,*,#474,.T.);
#183=ORIENTED_EDGE('',*,*,#475,.T.);
#184=ORIENTED_EDGE('',*,*,#476,.F.);
#185=ORIENTED_EDGE('',*,*,#477,.T.);
#186=ORIENTED_EDGE('',*,*,#478,.T.);
#187=ORIENTED_EDGE('',*,*,#479,.T.);
#188=ORIENTED_EDGE('',*,*,#480,.F.);
#189=ORIENTED_EDGE('',*,*,#481,.T.);
#190=ORIENTED_EDGE('',*,*,#482,.F.);
#191=ORIENTED_EDGE('',*,*,#483,.T.);
#192=ORIENTED_EDGE('',*,*,#484,.T.);
#193=ORIENTED_EDGE('',*,*,#485,.T.);
#194=ORIENTED_EDGE('',*,*,#486,.T.);
#195=ORIENTED_EDGE('',*,*,#487,.F.);
#196=ORIENTED_EDGE('',*,*,#486,.F.);
#197=ORIENTED_EDGE('',*,*,#488,.T.);
#198=ORIENTED_EDGE('',*,*,#489,.T.);
#199=ORIENTED_EDGE('',*,*,#490,.T.);
#200=ORIENTED_EDGE('',*,*,#491,.T.);
#201=ORIENTED_EDGE('',*,*,#492,.F.);
#202=ORIENTED_EDGE('',*,*,#493,.T.);
#203=ORIENTED_EDGE('',*,*,#482,.T.);
#204=ORIENTED_EDGE('',*,*,#494,.T.);
#205=ORIENTED_EDGE('',*,*,#495,.T.);
#206=ORIENTED_EDGE('',*,*,#496,.T.);
#207=ORIENTED_EDGE('',*,*,#497,.T.);
#208=ORIENTED_EDGE('',*,*,#498,.T.);
#209=ORIENTED_EDGE('',*,*,#499,.F.);
#210=ORIENTED_EDGE('',*,*,#500,.T.);
#211=ORIENTED_EDGE('',*,*,#480,.T.);
#212=ORIENTED_EDGE('',*,*,#501,.T.);
#213=ORIENTED_EDGE('',*,*,#502,.T.);
#214=ORIENTED_EDGE('',*,*,#503,.T.);
#215=ORIENTED_EDGE('',*,*,#504,.T.);
#216=ORIENTED_EDGE('',*,*,#505,.T.);
#217=ORIENTED_EDGE('',*,*,#506,.F.);
#218=ORIENTED_EDGE('',*,*,#507,.T.);
#219=ORIENTED_EDGE('',*,*,#476,.T.);
#220=ORIENTED_EDGE('',*,*,#508,.T.);
#221=ORIENTED_EDGE('',*,*,#509,.T.);
#222=ORIENTED_EDGE('',*,*,#510,.T.);
#223=ORIENTED_EDGE('',*,*,#511,.T.);
#224=ORIENTED_EDGE('',*,*,#512,.T.);
#225=ORIENTED_EDGE('',*,*,#513,.F.);
#226=ORIENTED_EDGE('',*,*,#514,.T.);
#227=ORIENTED_EDGE('',*,*,#472,.T.);
#228=ORIENTED_EDGE('',*,*,#515,.T.);
#229=ORIENTED_EDGE('',*,*,#516,.T.);
#230=ORIENTED_EDGE('',*,*,#517,.T.);
#231=ORIENTED_EDGE('',*,*,#518,.T.);
#232=ORIENTED_EDGE('',*,*,#519,.T.);
#233=ORIENTED_EDGE('',*,*,#520,.F.);
#234=ORIENTED_EDGE('',*,*,#521,.T.);
#235=ORIENTED_EDGE('',*,*,#468,.T.);
#236=ORIENTED_EDGE('',*,*,#522,.T.);
#237=ORIENTED_EDGE('',*,*,#523,.T.);
#238=ORIENTED_EDGE('',*,*,#524,.T.);
#239=ORIENTED_EDGE('',*,*,#525,.T.);
#240=ORIENTED_EDGE('',*,*,#526,.T.);
#241=ORIENTED_EDGE('',*,*,#527,.F.);
#242=ORIENTED_EDGE('',*,*,#528,.T.);
#243=ORIENTED_EDGE('',*,*,#464,.T.);
#244=ORIENTED_EDGE('',*,*,#529,.T.);
#245=ORIENTED_EDGE('',*,*,#487,.T.);
#246=ORIENTED_EDGE('',*,*,#530,.F.);
#247=ORIENTED_EDGE('',*,*,#531,.T.);
#248=ORIENTED_EDGE('',*,*,#532,.F.);
#249=ORIENTED_EDGE('',*,*,#533,.T.);
#250=ORIENTED_EDGE('',*,*,#462,.F.);
#251=ORIENTED_EDGE('',*,*,#534,.T.);
#252=ORIENTED_EDGE('',*,*,#535,.T.);
#253=ORIENTED_EDGE('',*,*,#536,.T.);
#254=ORIENTED_EDGE('',*,*,#537,.F.);
#255=ORIENTED_EDGE('',*,*,#538,.T.);
#256=ORIENTED_EDGE('',*,*,#539,.F.);
#257=ORIENTED_EDGE('',*,*,#540,.T.);
#258=ORIENTED_EDGE('',*,*,#466,.F.);
#259=ORIENTED_EDGE('',*,*,#541,.T.);
#260=ORIENTED_EDGE('',*,*,#542,.T.);
#261=ORIENTED_EDGE('',*,*,#543,.T.);
#262=ORIENTED_EDGE('',*,*,#544,.F.);
#263=ORIENTED_EDGE('',*,*,#545,.T.);
#264=ORIENTED_EDGE('',*,*,#546,.F.);
#265=ORIENTED_EDGE('',*,*,#547,.T.);
#266=ORIENTED_EDGE('',*,*,#470,.F.);
#267=ORIENTED_EDGE('',*,*,#548,.T.);
#268=ORIENTED_EDGE('',*,*,#549,.T.);
#269=ORIENTED_EDGE('',*,*,#550,.T.);
#270=ORIENTED_EDGE('',*,*,#551,.F.);
#271=ORIENTED_EDGE('',*,*,#552,.T.);
#272=ORIENTED_EDGE('',*,*,#553,.F.);
#273=ORIENTED_EDGE('',*,*,#554,.T.);
#274=ORIENTED_EDGE('',*,*,#474,.F.);
#275=ORIENTED_EDGE('',*,*,#555,.T.);
#276=ORIENTED_EDGE('',*,*,#556,.T.);
#277=ORIENTED_EDGE('',*,*,#557,.T.);
#278=ORIENTED_EDGE('',*,*,#558,.F.);
#279=ORIENTED_EDGE('',*,*,#559,.T.);
#280=ORIENTED_EDGE('',*,*,#560,.F.);
#281=ORIENTED_EDGE('',*,*,#561,.T.);
#282=ORIENTED_EDGE('',*,*,#478,.F.);
#283=ORIENTED_EDGE('',*,*,#562,.T.);
#284=ORIENTED_EDGE('',*,*,#563,.T.);
#285=ORIENTED_EDGE('',*,*,#564,.T.);
#286=ORIENTED_EDGE('',*,*,#565,.F.);
#287=ORIENTED_EDGE('',*,*,#566,.T.);
#288=ORIENTED_EDGE('',*,*,#567,.F.);
#289=ORIENTED_EDGE('',*,*,#568,.T.);
#290=ORIENTED_EDGE('',*,*,#484,.F.);
#291=ORIENTED_EDGE('',*,*,#569,.T.);
#292=ORIENTED_EDGE('',*,*,#570,.T.);
#293=ORIENTED_EDGE('',*,*,#571,.T.);
#294=ORIENTED_EDGE('',*,*,#567,.T.);
#295=ORIENTED_EDGE('',*,*,#572,.T.);
#296=ORIENTED_EDGE('',*,*,#495,.F.);
#297=ORIENTED_EDGE('',*,*,#573,.T.);
#298=ORIENTED_EDGE('',*,*,#497,.F.);
#299=ORIENTED_EDGE('',*,*,#574,.T.);
#300=ORIENTED_EDGE('',*,*,#565,.T.);
#301=ORIENTED_EDGE('',*,*,#575,.T.);
#302=ORIENTED_EDGE('',*,*,#499,.T.);
#303=ORIENTED_EDGE('',*,*,#576,.T.);
#304=ORIENTED_EDGE('',*,*,#563,.F.);
#305=ORIENTED_EDGE('',*,*,#577,.T.);
#306=ORIENTED_EDGE('',*,*,#496,.F.);
#307=ORIENTED_EDGE('',*,*,#572,.F.);
#308=ORIENTED_EDGE('',*,*,#566,.F.);
#309=ORIENTED_EDGE('',*,*,#574,.F.);
#310=ORIENTED_EDGE('',*,*,#498,.F.);
#311=ORIENTED_EDGE('',*,*,#575,.F.);
#312=ORIENTED_EDGE('',*,*,#564,.F.);
#313=ORIENTED_EDGE('',*,*,#576,.F.);
#314=ORIENTED_EDGE('',*,*,#494,.F.);
#315=ORIENTED_EDGE('',*,*,#485,.F.);
#316=ORIENTED_EDGE('',*,*,#568,.F.);
#317=ORIENTED_EDGE('',*,*,#573,.F.);
#318=ORIENTED_EDGE('',*,*,#500,.F.);
#319=ORIENTED_EDGE('',*,*,#577,.F.);
#320=ORIENTED_EDGE('',*,*,#562,.F.);
#321=ORIENTED_EDGE('',*,*,#481,.F.);
#322=ORIENTED_EDGE('',*,*,#560,.T.);
#323=ORIENTED_EDGE('',*,*,#578,.T.);
#324=ORIENTED_EDGE('',*,*,#502,.F.);
#325=ORIENTED_EDGE('',*,*,#579,.T.);
#326=ORIENTED_EDGE('',*,*,#504,.F.);
#327=ORIENTED_EDGE('',*,*,#580,.T.);
#328=ORIENTED_EDGE('',*,*,#558,.T.);
#329=ORIENTED_EDGE('',*,*,#581,.T.);
#330=ORIENTED_EDGE('',*,*,#506,.T.);
#331=ORIENTED_EDGE('',*,*,#582,.T.);
#332=ORIENTED_EDGE('',*,*,#556,.F.);
#333=ORIENTED_EDGE('',*,*,#583,.T.);
#334=ORIENTED_EDGE('',*,*,#503,.F.);
#335=ORIENTED_EDGE('',*,*,#578,.F.);
#336=ORIENTED_EDGE('',*,*,#559,.F.);
#337=ORIENTED_EDGE('',*,*,#580,.F.);
#338=ORIENTED_EDGE('',*,*,#505,.F.);
#339=ORIENTED_EDGE('',*,*,#581,.F.);
#340=ORIENTED_EDGE('',*,*,#557,.F.);
#341=ORIENTED_EDGE('',*,*,#582,.F.);
#342=ORIENTED_EDGE('',*,*,#501,.F.);
#343=ORIENTED_EDGE('',*,*,#479,.F.);
#344=ORIENTED_EDGE('',*,*,#561,.F.);
#345=ORIENTED_EDGE('',*,*,#579,.F.);
#346=ORIENTED_EDGE('',*,*,#507,.F.);
#347=ORIENTED_EDGE('',*,*,#583,.F.);
#348=ORIENTED_EDGE('',*,*,#555,.F.);
#349=ORIENTED_EDGE('',*,*,#477,.F.);
#350=ORIENTED_EDGE('',*,*,#553,.T.);
#351=ORIENTED_EDGE('',*,*,#584,.T.);
#352=ORIENTED_EDGE('',*,*,#509,.F.);
#353=ORIENTED_EDGE('',*,*,#585,.T.);
#354=ORIENTED_EDGE('',*,*,#511,.F.);
#355=ORIENTED_EDGE('',*,*,#586,.T.);
#356=ORIENTED_EDGE('',*,*,#551,.T.);
#357=ORIENTED_EDGE('',*,*,#587,.T.);
#358=ORIENTED_EDGE('',*,*,#513,.T.);
#359=ORIENTED_EDGE('',*,*,#588,.T.);
#360=ORIENTED_EDGE('',*,*,#549,.F.);
#361=ORIENTED_EDGE('',*,*,#589,.T.);
#362=ORIENTED_EDGE('',*,*,#510,.F.);
#363=ORIENTED_EDGE('',*,*,#584,.F.);
#364=ORIENTED_EDGE('',*,*,#552,.F.);
#365=ORIENTED_EDGE('',*,*,#586,.F.);
#366=ORIENTED_EDGE('',*,*,#512,.F.);
#367=ORIENTED_EDGE('',*,*,#587,.F.);
#368=ORIENTED_EDGE('',*,*,#550,.F.);
#369=ORIENTED_EDGE('',*,*,#588,.F.);
#370=ORIENTED_EDGE('',*,*,#508,.F.);
#371=ORIENTED_EDGE('',*,*,#475,.F.);
#372=ORIENTED_EDGE('',*,*,#554,.F.);
#373=ORIENTED_EDGE('',*,*,#585,.F.);
#374=ORIENTED_EDGE('',*,*,#514,.F.);
#375=ORIENTED_EDGE('',*,*,#589,.F.);
#376=ORIENTED_EDGE('',*,*,#548,.F.);
#377=ORIENTED_EDGE('',*,*,#473,.F.);
#378=ORIENTED_EDGE('',*,*,#546,.T.);
#379=ORIENTED_EDGE('',*,*,#590,.T.);
#380=ORIENTED_EDGE('',*,*,#516,.F.);
#381=ORIENTED_EDGE('',*,*,#591,.T.);
#382=ORIENTED_EDGE('',*,*,#518,.F.);
#383=ORIENTED_EDGE('',*,*,#592,.T.);
#384=ORIENTED_EDGE('',*,*,#544,.T.);
#385=ORIENTED_EDGE('',*,*,#593,.T.);
#386=ORIENTED_EDGE('',*,*,#520,.T.);
#387=ORIENTED_EDGE('',*,*,#594,.T.);
#388=ORIENTED_EDGE('',*,*,#542,.F.);
#389=ORIENTED_EDGE('',*,*,#595,.T.);
#390=ORIENTED_EDGE('',*,*,#517,.F.);
#391=ORIENTED_EDGE('',*,*,#590,.F.);
#392=ORIENTED_EDGE('',*,*,#545,.F.);
#393=ORIENTED_EDGE('',*,*,#592,.F.);
#394=ORIENTED_EDGE('',*,*,#519,.F.);
#395=ORIENTED_EDGE('',*,*,#593,.F.);
#396=ORIENTED_EDGE('',*,*,#543,.F.);
#397=ORIENTED_EDGE('',*,*,#594,.F.);
#398=ORIENTED_EDGE('',*,*,#515,.F.);
#399=ORIENTED_EDGE('',*,*,#471,.F.);
#400=ORIENTED_EDGE('',*,*,#547,.F.);
#401=ORIENTED_EDGE('',*,*,#591,.F.);
#402=ORIENTED_EDGE('',*,*,#521,.F.);
#403=ORIENTED_EDGE('',*,*,#595,.F.);
#404=ORIENTED_EDGE('',*,*,#541,.F.);
#405=ORIENTED_EDGE('',*,*,#469,.F.);
#406=ORIENTED_EDGE('',*,*,#539,.T.);
#407=ORIENTED_EDGE('',*,*,#596,.T.);
#408=ORIENTED_EDGE('',*,*,#523,.F.);
#409=ORIENTED_EDGE('',*,*,#597,.T.);
#410=ORIENTED_EDGE('',*,*,#525,.F.);
#411=ORIENTED_EDGE('',*,*,#598,.T.);
#412=ORIENTED_EDGE('',*,*,#537,.T.);
#413=ORIENTED_EDGE('',*,*,#599,.T.);
#414=ORIENTED_EDGE('',*,*,#527,.T.);
#415=ORIENTED_EDGE('',*,*,#600,.T.);
#416=ORIENTED_EDGE('',*,*,#535,.F.);
#417=ORIENTED_EDGE('',*,*,#601,.T.);
#418=ORIENTED_EDGE('',*,*,#524,.F.);
#419=ORIENTED_EDGE('',*,*,#596,.F.);
#420=ORIENTED_EDGE('',*,*,#538,.F.);
#421=ORIENTED_EDGE('',*,*,#598,.F.);
#422=ORIENTED_EDGE('',*,*,#526,.F.);
#423=ORIENTED_EDGE('',*,*,#599,.F.);
#424=ORIENTED_EDGE('',*,*,#536,.F.);
#425=ORIENTED_EDGE('',*,*,#600,.F.);
#426=ORIENTED_EDGE('',*,*,#522,.F.);
#427=ORIENTED_EDGE('',*,*,#467,.F.);
#428=ORIENTED_EDGE('',*,*,#540,.F.);
#429=ORIENTED_EDGE('',*,*,#597,.F.);
#430=ORIENTED_EDGE('',*,*,#528,.F.);
#431=ORIENTED_EDGE('',*,*,#601,.F.);
#432=ORIENTED_EDGE('',*,*,#534,.F.);
#433=ORIENTED_EDGE('',*,*,#465,.F.);
#434=ORIENTED_EDGE('',*,*,#532,.T.);
#435=ORIENTED_EDGE('',*,*,#602,.T.);
#436=ORIENTED_EDGE('',*,*,#488,.F.);
#437=ORIENTED_EDGE('',*,*,#603,.T.);
#438=ORIENTED_EDGE('',*,*,#490,.F.);
#439=ORIENTED_EDGE('',*,*,#604,.T.);
#440=ORIENTED_EDGE('',*,*,#530,.T.);
#441=ORIENTED_EDGE('',*,*,#605,.T.);
#442=ORIENTED_EDGE('',*,*,#492,.T.);
#443=ORIENTED_EDGE('',*,*,#606,.T.);
#444=ORIENTED_EDGE('',*,*,#570,.F.);
#445=ORIENTED_EDGE('',*,*,#607,.T.);
#446=ORIENTED_EDGE('',*,*,#489,.F.);
#447=ORIENTED_EDGE('',*,*,#602,.F.);
#448=ORIENTED_EDGE('',*,*,#531,.F.);
#449=ORIENTED_EDGE('',*,*,#604,.F.);
#450=ORIENTED_EDGE('',*,*,#491,.F.);
#451=ORIENTED_EDGE('',*,*,#605,.F.);
#452=ORIENTED_EDGE('',*,*,#571,.F.);
#453=ORIENTED_EDGE('',*,*,#606,.F.);
#454=ORIENTED_EDGE('',*,*,#529,.F.);
#455=ORIENTED_EDGE('',*,*,#463,.F.);
#456=ORIENTED_EDGE('',*,*,#533,.F.);
#457=ORIENTED_EDGE('',*,*,#603,.F.);
#458=ORIENTED_EDGE('',*,*,#493,.F.);
#459=ORIENTED_EDGE('',*,*,#607,.F.);
#460=ORIENTED_EDGE('',*,*,#569,.F.);
#461=ORIENTED_EDGE('',*,*,#483,.F.);
#462=EDGE_CURVE('',#608,#609,#706,.T.);
#463=EDGE_CURVE('',#609,#610,#26,.F.);
#464=EDGE_CURVE('',#611,#610,#707,.T.);
#465=EDGE_CURVE('',#611,#608,#27,.T.);
#466=EDGE_CURVE('',#612,#613,#708,.T.);
#467=EDGE_CURVE('',#613,#614,#28,.F.);
#468=EDGE_CURVE('',#615,#614,#709,.T.);
#469=EDGE_CURVE('',#615,#612,#29,.T.);
#470=EDGE_CURVE('',#616,#617,#710,.T.);
#471=EDGE_CURVE('',#617,#618,#30,.F.);
#472=EDGE_CURVE('',#619,#618,#711,.T.);
#473=EDGE_CURVE('',#619,#616,#31,.T.);
#474=EDGE_CURVE('',#620,#621,#712,.T.);
#475=EDGE_CURVE('',#621,#622,#32,.F.);
#476=EDGE_CURVE('',#623,#622,#713,.T.);
#477=EDGE_CURVE('',#623,#620,#33,.T.);
#478=EDGE_CURVE('',#624,#625,#714,.T.);
#479=EDGE_CURVE('',#625,#626,#34,.F.);
#480=EDGE_CURVE('',#627,#626,#715,.T.);
#481=EDGE_CURVE('',#627,#624,#35,.T.);
#482=EDGE_CURVE('',#628,#629,#716,.T.);
#483=EDGE_CURVE('',#628,#630,#36,.T.);
#484=EDGE_CURVE('',#630,#631,#717,.T.);
#485=EDGE_CURVE('',#631,#629,#37,.F.);
#486=EDGE_CURVE('',#632,#632,#718,.T.);
#487=EDGE_CURVE('',#633,#633,#719,.T.);
#488=EDGE_CURVE('',#634,#635,#38,.T.);
#489=EDGE_CURVE('',#635,#636,#720,.T.);
#490=EDGE_CURVE('',#636,#637,#721,.T.);
#491=EDGE_CURVE('',#637,#638,#722,.T.);
#492=EDGE_CURVE('',#639,#638,#39,.T.);
#493=EDGE_CURVE('',#639,#628,#723,.F.);
#494=EDGE_CURVE('',#629,#640,#724,.F.);
#495=EDGE_CURVE('',#640,#641,#40,.T.);
#496=EDGE_CURVE('',#641,#642,#725,.T.);
#497=EDGE_CURVE('',#642,#643,#726,.T.);
#498=EDGE_CURVE('',#643,#644,#727,.T.);
#499=EDGE_CURVE('',#645,#644,#41,.T.);
#500=EDGE_CURVE('',#645,#627,#728,.F.);
#501=EDGE_CURVE('',#626,#646,#729,.F.);
#502=EDGE_CURVE('',#646,#647,#42,.T.);
#503=EDGE_CURVE('',#647,#648,#730,.T.);
#504=EDGE_CURVE('',#648,#649,#731,.T.);
#505=EDGE_CURVE('',#649,#650,#732,.T.);
#506=EDGE_CURVE('',#651,#650,#43,.T.);
#507=EDGE_CURVE('',#651,#623,#733,.F.);
#508=EDGE_CURVE('',#622,#652,#734,.F.);
#509=EDGE_CURVE('',#652,#653,#44,.T.);
#510=EDGE_CURVE('',#653,#654,#735,.T.);
#511=EDGE_CURVE('',#654,#655,#736,.T.);
#512=EDGE_CURVE('',#655,#656,#737,.T.);
#513=EDGE_CURVE('',#657,#656,#45,.T.);
#514=EDGE_CURVE('',#657,#619,#738,.F.);
#515=EDGE_CURVE('',#618,#658,#739,.F.);
#516=EDGE_CURVE('',#658,#659,#46,.T.);
#517=EDGE_CURVE('',#659,#660,#740,.T.);
#518=EDGE_CURVE('',#660,#661,#741,.T.);
#519=EDGE_CURVE('',#661,#662,#742,.T.);
#520=EDGE_CURVE('',#663,#662,#47,.T.);
#521=EDGE_CURVE('',#663,#615,#743,.F.);
#522=EDGE_CURVE('',#614,#664,#744,.F.);
#523=EDGE_CURVE('',#664,#665,#48,.T.);
#524=EDGE_CURVE('',#665,#666,#745,.T.);
#525=EDGE_CURVE('',#666,#667,#746,.T.);
#526=EDGE_CURVE('',#667,#668,#747,.T.);
#527=EDGE_CURVE('',#669,#668,#49,.T.);
#528=EDGE_CURVE('',#669,#611,#748,.F.);
#529=EDGE_CURVE('',#610,#634,#749,.F.);
#530=EDGE_CURVE('',#670,#671,#750,.T.);
#531=EDGE_CURVE('',#670,#672,#751,.F.);
#532=EDGE_CURVE('',#673,#672,#50,.T.);
#533=EDGE_CURVE('',#673,#609,#752,.T.);
#534=EDGE_CURVE('',#608,#674,#753,.T.);
#535=EDGE_CURVE('',#674,#675,#51,.T.);
#536=EDGE_CURVE('',#675,#676,#754,.F.);
#537=EDGE_CURVE('',#677,#676,#755,.T.);
#538=EDGE_CURVE('',#677,#678,#756,.F.);
#539=EDGE_CURVE('',#679,#678,#52,.T.);
#540=EDGE_CURVE('',#679,#613,#757,.T.);
#541=EDGE_CURVE('',#612,#680,#758,.T.);
#542=EDGE_CURVE('',#680,#681,#53,.T.);
#543=EDGE_CURVE('',#681,#682,#759,.F.);
#544=EDGE_CURVE('',#683,#682,#760,.T.);
#545=EDGE_CURVE('',#683,#684,#761,.F.);
#546=EDGE_CURVE('',#685,#684,#54,.T.);
#547=EDGE_CURVE('',#685,#617,#762,.T.);
#548=EDGE_CURVE('',#616,#686,#763,.T.);
#549=EDGE_CURVE('',#686,#687,#55,.T.);
#550=EDGE_CURVE('',#687,#688,#764,.F.);
#551=EDGE_CURVE('',#689,#688,#765,.T.);
#552=EDGE_CURVE('',#689,#690,#766,.F.);
#553=EDGE_CURVE('',#691,#690,#56,.T.);
#554=EDGE_CURVE('',#691,#621,#767,.T.);
#555=EDGE_CURVE('',#620,#692,#768,.T.);
#556=EDGE_CURVE('',#692,#693,#57,.T.);
#557=EDGE_CURVE('',#693,#694,#769,.F.);
#558=EDGE_CURVE('',#695,#694,#770,.T.);
#559=EDGE_CURVE('',#695,#696,#771,.F.);
#560=EDGE_CURVE('',#697,#696,#58,.T.);
#561=EDGE_CURVE('',#697,#625,#772,.T.);
#562=EDGE_CURVE('',#624,#698,#773,.T.);
#563=EDGE_CURVE('',#698,#699,#59,.T.);
#564=EDGE_CURVE('',#699,#700,#774,.F.);
#565=EDGE_CURVE('',#701,#700,#775,.T.);
#566=EDGE_CURVE('',#701,#702,#776,.F.);
#567=EDGE_CURVE('',#703,#702,#60,.T.);
#568=EDGE_CURVE('',#703,#631,#777,.T.);
#569=EDGE_CURVE('',#630,#704,#778,.T.);
#570=EDGE_CURVE('',#704,#705,#61,.T.);
#571=EDGE_CURVE('',#705,#671,#779,.F.);
#572=EDGE_CURVE('',#702,#641,#62,.F.);
#573=EDGE_CURVE('',#640,#703,#63,.F.);
#574=EDGE_CURVE('',#642,#701,#64,.T.);
#575=EDGE_CURVE('',#700,#643,#65,.F.);
#576=EDGE_CURVE('',#644,#699,#66,.F.);
#577=EDGE_CURVE('',#698,#645,#67,.F.);
#578=EDGE_CURVE('',#696,#647,#68,.F.);
#579=EDGE_CURVE('',#646,#697,#69,.F.);
#580=EDGE_CURVE('',#648,#695,#70,.T.);
#581=EDGE_CURVE('',#694,#649,#71,.F.);
#582=EDGE_CURVE('',#650,#693,#72,.F.);
#583=EDGE_CURVE('',#692,#651,#73,.F.);
#584=EDGE_CURVE('',#690,#653,#74,.F.);
#585=EDGE_CURVE('',#652,#691,#75,.F.);
#586=EDGE_CURVE('',#654,#689,#76,.T.);
#587=EDGE_CURVE('',#688,#655,#77,.F.);
#588=EDGE_CURVE('',#656,#687,#78,.F.);
#589=EDGE_CURVE('',#686,#657,#79,.F.);
#590=EDGE_CURVE('',#684,#659,#80,.F.);
#591=EDGE_CURVE('',#658,#685,#81,.F.);
#592=EDGE_CURVE('',#660,#683,#82,.T.);
#593=EDGE_CURVE('',#682,#661,#83,.F.);
#594=EDGE_CURVE('',#662,#681,#84,.F.);
#595=EDGE_CURVE('',#680,#663,#85,.F.);
#596=EDGE_CURVE('',#678,#665,#86,.F.);
#597=EDGE_CURVE('',#664,#679,#87,.F.);
#598=EDGE_CURVE('',#666,#677,#88,.T.);
#599=EDGE_CURVE('',#676,#667,#89,.F.);
#600=EDGE_CURVE('',#668,#675,#90,.F.);
#601=EDGE_CURVE('',#674,#669,#91,.F.);
#602=EDGE_CURVE('',#672,#635,#92,.F.);
#603=EDGE_CURVE('',#634,#673,#93,.F.);
#604=EDGE_CURVE('',#636,#670,#94,.T.);
#605=EDGE_CURVE('',#671,#637,#95,.F.);
#606=EDGE_CURVE('',#638,#705,#96,.F.);
#607=EDGE_CURVE('',#704,#639,#97,.F.);
#608=VERTEX_POINT('',#1441);
#609=VERTEX_POINT('',#1442);
#610=VERTEX_POINT('',#1444);
#611=VERTEX_POINT('',#1446);
#612=VERTEX_POINT('',#1450);
#613=VERTEX_POINT('',#1451);
#614=VERTEX_POINT('',#1453);
#615=VERTEX_POINT('',#1455);
#616=VERTEX_POINT('',#1459);
#617=VERTEX_POINT('',#1460);
#618=VERTEX_POINT('',#1462);
#619=VERTEX_POINT('',#1464);
#620=VERTEX_POINT('',#1468);
#621=VERTEX_POINT('',#1469);
#622=VERTEX_POINT('',#1471);
#623=VERTEX_POINT('',#1473);
#624=VERTEX_POINT('',#1477);
#625=VERTEX_POINT('',#1478);
#626=VERTEX_POINT('',#1480);
#627=VERTEX_POINT('',#1482);
#628=VERTEX_POINT('',#1486);
#629=VERTEX_POINT('',#1487);
#630=VERTEX_POINT('',#1489);
#631=VERTEX_POINT('',#1491);
#632=VERTEX_POINT('',#1495);
#633=VERTEX_POINT('',#1497);
#634=VERTEX_POINT('',#1500);
#635=VERTEX_POINT('',#1501);
#636=VERTEX_POINT('',#1503);
#637=VERTEX_POINT('',#1505);
#638=VERTEX_POINT('',#1507);
#639=VERTEX_POINT('',#1509);
#640=VERTEX_POINT('',#1512);
#641=VERTEX_POINT('',#1514);
#642=VERTEX_POINT('',#1516);
#643=VERTEX_POINT('',#1518);
#644=VERTEX_POINT('',#1520);
#645=VERTEX_POINT('',#1522);
#646=VERTEX_POINT('',#1525);
#647=VERTEX_POINT('',#1527);
#648=VERTEX_POINT('',#1529);
#649=VERTEX_POINT('',#1531);
#650=VERTEX_POINT('',#1533);
#651=VERTEX_POINT('',#1535);
#652=VERTEX_POINT('',#1538);
#653=VERTEX_POINT('',#1540);
#654=VERTEX_POINT('',#1542);
#655=VERTEX_POINT('',#1544);
#656=VERTEX_POINT('',#1546);
#657=VERTEX_POINT('',#1548);
#658=VERTEX_POINT('',#1551);
#659=VERTEX_POINT('',#1553);
#660=VERTEX_POINT('',#1555);
#661=VERTEX_POINT('',#1557);
#662=VERTEX_POINT('',#1559);
#663=VERTEX_POINT('',#1561);
#664=VERTEX_POINT('',#1564);
#665=VERTEX_POINT('',#1566);
#666=VERTEX_POINT('',#1568);
#667=VERTEX_POINT('',#1570);
#668=VERTEX_POINT('',#1572);
#669=VERTEX_POINT('',#1574);
#670=VERTEX_POINT('',#1579);
#671=VERTEX_POINT('',#1580);
#672=VERTEX_POINT('',#1582);
#673=VERTEX_POINT('',#1584);
#674=VERTEX_POINT('',#1587);
#675=VERTEX_POINT('',#1589);
#676=VERTEX_POINT('',#1591);
#677=VERTEX_POINT('',#1593);
#678=VERTEX_POINT('',#1595);
#679=VERTEX_POINT('',#1597);
#680=VERTEX_POINT('',#1600);
#681=VERTEX_POINT('',#1602);
#682=VERTEX_POINT('',#1604);
#683=VERTEX_POINT('',#1606);
#684=VERTEX_POINT('',#1608);
#685=VERTEX_POINT('',#1610);
#686=VERTEX_POINT('',#1613);
#687=VERTEX_POINT('',#1615);
#688=VERTEX_POINT('',#1617);
#689=VERTEX_POINT('',#1619);
#690=VERTEX_POINT('',#1621);
#691=VERTEX_POINT('',#1623);
#692=VERTEX_POINT('',#1626);
#693=VERTEX_POINT('',#1628);
#694=VERTEX_POINT('',#1630);
#695=VERTEX_POINT('',#1632);
#696=VERTEX_POINT('',#1634);
#697=VERTEX_POINT('',#1636);
#698=VERTEX_POINT('',#1639);
#699=VERTEX_POINT('',#1641);
#700=VERTEX_POINT('',#1643);
#701=VERTEX_POINT('',#1645);
#702=VERTEX_POINT('',#1647);
#703=VERTEX_POINT('',#1649);
#704=VERTEX_POINT('',#1652);
#705=VERTEX_POINT('',#1654);
#706=CIRCLE('',#990,0.0075);
#707=CIRCLE('',#991,0.0075);
#708=CIRCLE('',#993,0.0075);
#709=CIRCLE('',#994,0.0075);
#710=CIRCLE('',#996,0.0075);
#711=CIRCLE('',#997,0.0075);
#712=CIRCLE('',#999,0.0075);
#713=CIRCLE('',#1000,0.0075);
#714=CIRCLE('',#1002,0.0075);
#715=CIRCLE('',#1003,0.0075);
#716=CIRCLE('',#1005,0.0075);
#717=CIRCLE('',#1006,0.0075);
#718=CIRCLE('',#1008,0.002);
#719=CIRCLE('',#1009,0.002);
#720=CIRCLE('',#1011,0.0015);
#721=CIRCLE('',#1012,0.0115);
#722=CIRCLE('',#1013,0.0015);
#723=CIRCLE('',#1014,0.0015);
#724=CIRCLE('',#1015,0.0015);
#725=CIRCLE('',#1016,0.0015);
#726=CIRCLE('',#1017,0.0115);
#727=CIRCLE('',#1018,0.0015);
#728=CIRCLE('',#1019,0.0015);
#729=CIRCLE('',#1020,0.0015);
#730=CIRCLE('',#1021,0.0015);
#731=CIRCLE('',#1022,0.0115);
#732=CIRCLE('',#1023,0.0015);
#733=CIRCLE('',#1024,0.0015);
#734=CIRCLE('',#1025,0.0015);
#735=CIRCLE('',#1026,0.0015);
#736=CIRCLE('',#1027,0.0115);
#737=CIRCLE('',#1028,0.0015);
#738=CIRCLE('',#1029,0.0015);
#739=CIRCLE('',#1030,0.0015);
#740=CIRCLE('',#1031,0.0015);
#741=CIRCLE('',#1032,0.0115);
#742=CIRCLE('',#1033,0.0015);
#743=CIRCLE('',#1034,0.0015);
#744=CIRCLE('',#1035,0.0015);
#745=CIRCLE('',#1036,0.0015);
#746=CIRCLE('',#1037,0.0115);
#747=CIRCLE('',#1038,0.0015);
#748=CIRCLE('',#1039,0.0015);
#749=CIRCLE('',#1040,0.0015);
#750=CIRCLE('',#1042,0.0115);
#751=CIRCLE('',#1043,0.0015);
#752=CIRCLE('',#1044,0.0015);
#753=CIRCLE('',#1045,0.0015);
#754=CIRCLE('',#1046,0.0015);
#755=CIRCLE('',#1047,0.0115);
#756=CIRCLE('',#1048,0.0015);
#757=CIRCLE('',#1049,0.0015);
#758=CIRCLE('',#1050,0.0015);
#759=CIRCLE('',#1051,0.0015);
#760=CIRCLE('',#1052,0.0115);
#761=CIRCLE('',#1053,0.0015);
#762=CIRCLE('',#1054,0.0015);
#763=CIRCLE('',#1055,0.0015);
#764=CIRCLE('',#1056,0.0015);
#765=CIRCLE('',#1057,0.0115);
#766=CIRCLE('',#1058,0.0015);
#767=CIRCLE('',#1059,0.0015);
#768=CIRCLE('',#1060,0.0015);
#769=CIRCLE('',#1061,0.0015);
#770=CIRCLE('',#1062,0.0115);
#771=CIRCLE('',#1063,0.0015);
#772=CIRCLE('',#1064,0.0015);
#773=CIRCLE('',#1065,0.0015);
#774=CIRCLE('',#1066,0.0015);
#775=CIRCLE('',#1067,0.0115);
#776=CIRCLE('',#1068,0.0015);
#777=CIRCLE('',#1069,0.0015);
#778=CIRCLE('',#1070,0.0015);
#779=CIRCLE('',#1071,0.0015);
#780=EDGE_LOOP('',(#170,#171,#172,#173));
#781=EDGE_LOOP('',(#174,#175,#176,#177));
#782=EDGE_LOOP('',(#178,#179,#180,#181));
#783=EDGE_LOOP('',(#182,#183,#184,#185));
#784=EDGE_LOOP('',(#186,#187,#188,#189));
#785=EDGE_LOOP('',(#190,#191,#192,#193));
#786=EDGE_LOOP('',(#194));
#787=EDGE_LOOP('',(#195));
#788=EDGE_LOOP('',(#196));
#789=EDGE_LOOP('',(#197,#198,#199,#200,#201,#202,#203,#204,#205,#206,#207,
#208,#209,#210,#211,#212,#213,#214,#215,#216,#217,#218,#219,#220,#221,#222,
#223,#224,#225,#226,#227,#228,#229,#230,#231,#232,#233,#234,#235,#236,#237,
#238,#239,#240,#241,#242,#243,#244));
#790=EDGE_LOOP('',(#245));
#791=EDGE_LOOP('',(#246,#247,#248,#249,#250,#251,#252,#253,#254,#255,#256,
#257,#258,#259,#260,#261,#262,#263,#264,#265,#266,#267,#268,#269,#270,#271,
#272,#273,#274,#275,#276,#277,#278,#279,#280,#281,#282,#283,#284,#285,#286,
#287,#288,#289,#290,#291,#292,#293));
#792=EDGE_LOOP('',(#294,#295,#296,#297));
#793=EDGE_LOOP('',(#298,#299,#300,#301));
#794=EDGE_LOOP('',(#302,#303,#304,#305));
#795=EDGE_LOOP('',(#306,#307,#308,#309));
#796=EDGE_LOOP('',(#310,#311,#312,#313));
#797=EDGE_LOOP('',(#314,#315,#316,#317));
#798=EDGE_LOOP('',(#318,#319,#320,#321));
#799=EDGE_LOOP('',(#322,#323,#324,#325));
#800=EDGE_LOOP('',(#326,#327,#328,#329));
#801=EDGE_LOOP('',(#330,#331,#332,#333));
#802=EDGE_LOOP('',(#334,#335,#336,#337));
#803=EDGE_LOOP('',(#338,#339,#340,#341));
#804=EDGE_LOOP('',(#342,#343,#344,#345));
#805=EDGE_LOOP('',(#346,#347,#348,#349));
#806=EDGE_LOOP('',(#350,#351,#352,#353));
#807=EDGE_LOOP('',(#354,#355,#356,#357));
#808=EDGE_LOOP('',(#358,#359,#360,#361));
#809=EDGE_LOOP('',(#362,#363,#364,#365));
#810=EDGE_LOOP('',(#366,#367,#368,#369));
#811=EDGE_LOOP('',(#370,#371,#372,#373));
#812=EDGE_LOOP('',(#374,#375,#376,#377));
#813=EDGE_LOOP('',(#378,#379,#380,#381));
#814=EDGE_LOOP('',(#382,#383,#384,#385));
#815=EDGE_LOOP('',(#386,#387,#388,#389));
#816=EDGE_LOOP('',(#390,#391,#392,#393));
#817=EDGE_LOOP('',(#394,#395,#396,#397));
#818=EDGE_LOOP('',(#398,#399,#400,#401));
#819=EDGE_LOOP('',(#402,#403,#404,#405));
#820=EDGE_LOOP('',(#406,#407,#408,#409));
#821=EDGE_LOOP('',(#410,#411,#412,#413));
#822=EDGE_LOOP('',(#414,#415,#416,#417));
#823=EDGE_LOOP('',(#418,#419,#420,#421));
#824=EDGE_LOOP('',(#422,#423,#424,#425));
#825=EDGE_LOOP('',(#426,#427,#428,#429));
#826=EDGE_LOOP('',(#430,#431,#432,#433));
#827=EDGE_LOOP('',(#434,#435,#436,#437));
#828=EDGE_LOOP('',(#438,#439,#440,#441));
#829=EDGE_LOOP('',(#442,#443,#444,#445));
#830=EDGE_LOOP('',(#446,#447,#448,#449));
#831=EDGE_LOOP('',(#450,#451,#452,#453));
#832=EDGE_LOOP('',(#454,#455,#456,#457));
#833=EDGE_LOOP('',(#458,#459,#460,#461));
#834=FACE_BOUND('',#780,.T.);
#835=FACE_BOUND('',#781,.T.);
#836=FACE_BOUND('',#782,.T.);
#837=FACE_BOUND('',#783,.T.);
#838=FACE_BOUND('',#784,.T.);
#839=FACE_BOUND('',#785,.T.);
#840=FACE_BOUND('',#786,.T.);
#841=FACE_BOUND('',#787,.T.);
#842=FACE_BOUND('',#788,.T.);
#843=FACE_BOUND('',#789,.T.);
#844=FACE_BOUND('',#790,.T.);
#845=FACE_BOUND('',#791,.T.);
#846=FACE_BOUND('',#792,.T.);
#847=FACE_BOUND('',#793,.T.);
#848=FACE_BOUND('',#794,.T.);
#849=FACE_BOUND('',#795,.T.);
#850=FACE_BOUND('',#796,.T.);
#851=FACE_BOUND('',#797,.T.);
#852=FACE_BOUND('',#798,.T.);
#853=FACE_BOUND('',#799,.T.);
#854=FACE_BOUND('',#800,.T.);
#855=FACE_BOUND('',#801,.T.);
#856=FACE_BOUND('',#802,.T.);
#857=FACE_BOUND('',#803,.T.);
#858=FACE_BOUND('',#804,.T.);
#859=FACE_BOUND('',#805,.T.);
#860=FACE_BOUND('',#806,.T.);
#861=FACE_BOUND('',#807,.T.);
#862=FACE_BOUND('',#808,.T.);
#863=FACE_BOUND('',#809,.T.);
#864=FACE_BOUND('',#810,.T.);
#865=FACE_BOUND('',#811,.T.);
#866=FACE_BOUND('',#812,.T.);
#867=FACE_BOUND('',#813,.T.);
#868=FACE_BOUND('',#814,.T.);
#869=FACE_BOUND('',#815,.T.);
#870=FACE_BOUND('',#816,.T.);
#871=FACE_BOUND('',#817,.T.);
#872=FACE_BOUND('',#818,.T.);
#873=FACE_BOUND('',#819,.T.);
#874=FACE_BOUND('',#820,.T.);
#875=FACE_BOUND('',#821,.T.);
#876=FACE_BOUND('',#822,.T.);
#877=FACE_BOUND('',#823,.T.);
#878=FACE_BOUND('',#824,.T.);
#879=FACE_BOUND('',#825,.T.);
#880=FACE_BOUND('',#826,.T.);
#881=FACE_BOUND('',#827,.T.);
#882=FACE_BOUND('',#828,.T.);
#883=FACE_BOUND('',#829,.T.);
#884=FACE_BOUND('',#830,.T.);
#885=FACE_BOUND('',#831,.T.);
#886=FACE_BOUND('',#832,.T.);
#887=FACE_BOUND('',#833,.T.);
#888=CYLINDRICAL_SURFACE('',#989,0.0075);
#889=CYLINDRICAL_SURFACE('',#992,0.0075);
#890=CYLINDRICAL_SURFACE('',#995,0.0075);
#891=CYLINDRICAL_SURFACE('',#998,0.0075);
#892=CYLINDRICAL_SURFACE('',#1001,0.0075);
#893=CYLINDRICAL_SURFACE('',#1004,0.0075);
#894=CYLINDRICAL_SURFACE('',#1007,0.002);
#895=CYLINDRICAL_SURFACE('',#1073,0.0115);
#896=CYLINDRICAL_SURFACE('',#1075,0.0015);
#897=CYLINDRICAL_SURFACE('',#1076,0.0015);
#898=CYLINDRICAL_SURFACE('',#1077,0.0015);
#899=CYLINDRICAL_SURFACE('',#1078,0.0015);
#900=CYLINDRICAL_SURFACE('',#1080,0.0115);
#901=CYLINDRICAL_SURFACE('',#1082,0.0015);
#902=CYLINDRICAL_SURFACE('',#1083,0.0015);
#903=CYLINDRICAL_SURFACE('',#1084,0.0015);
#904=CYLINDRICAL_SURFACE('',#1085,0.0015);
#905=CYLINDRICAL_SURFACE('',#1087,0.0115);
#906=CYLINDRICAL_SURFACE('',#1089,0.0015);
#907=CYLINDRICAL_SURFACE('',#1090,0.0015);
#908=CYLINDRICAL_SURFACE('',#1091,0.0015);
#909=CYLINDRICAL_SURFACE('',#1092,0.0015);
#910=CYLINDRICAL_SURFACE('',#1094,0.0115);
#911=CYLINDRICAL_SURFACE('',#1096,0.0015);
#912=CYLINDRICAL_SURFACE('',#1097,0.0015);
#913=CYLINDRICAL_SURFACE('',#1098,0.0015);
#914=CYLINDRICAL_SURFACE('',#1099,0.0015);
#915=CYLINDRICAL_SURFACE('',#1101,0.0115);
#916=CYLINDRICAL_SURFACE('',#1103,0.0015);
#917=CYLINDRICAL_SURFACE('',#1104,0.0015);
#918=CYLINDRICAL_SURFACE('',#1105,0.0015);
#919=CYLINDRICAL_SURFACE('',#1106,0.0015);
#920=CYLINDRICAL_SURFACE('',#1108,0.0115);
#921=CYLINDRICAL_SURFACE('',#1110,0.0015);
#922=CYLINDRICAL_SURFACE('',#1111,0.0015);
#923=CYLINDRICAL_SURFACE('',#1112,0.0015);
#924=CYLINDRICAL_SURFACE('',#1113,0.0015);
#925=ADVANCED_FACE('',(#834),#888,.T.);
#926=ADVANCED_FACE('',(#835),#889,.T.);
#927=ADVANCED_FACE('',(#836),#890,.T.);
#928=ADVANCED_FACE('',(#837),#891,.T.);
#929=ADVANCED_FACE('',(#838),#892,.T.);
#930=ADVANCED_FACE('',(#839),#893,.T.);
#931=ADVANCED_FACE('',(#840,#841),#894,.F.);
#932=ADVANCED_FACE('',(#842,#843),#12,.T.);
#933=ADVANCED_FACE('',(#844,#845),#13,.F.);
#934=ADVANCED_FACE('',(#846),#14,.F.);
#935=ADVANCED_FACE('',(#847),#895,.T.);
#936=ADVANCED_FACE('',(#848),#15,.T.);
#937=ADVANCED_FACE('',(#849),#896,.T.);
#938=ADVANCED_FACE('',(#850),#897,.T.);
#939=ADVANCED_FACE('',(#851),#898,.F.);
#940=ADVANCED_FACE('',(#852),#899,.F.);
#941=ADVANCED_FACE('',(#853),#16,.F.);
#942=ADVANCED_FACE('',(#854),#900,.T.);
#943=ADVANCED_FACE('',(#855),#17,.T.);
#944=ADVANCED_FACE('',(#856),#901,.T.);
#945=ADVANCED_FACE('',(#857),#902,.T.);
#946=ADVANCED_FACE('',(#858),#903,.F.);
#947=ADVANCED_FACE('',(#859),#904,.F.);
#948=ADVANCED_FACE('',(#860),#18,.F.);
#949=ADVANCED_FACE('',(#861),#905,.T.);
#950=ADVANCED_FACE('',(#862),#19,.T.);
#951=ADVANCED_FACE('',(#863),#906,.T.);
#952=ADVANCED_FACE('',(#864),#907,.T.);
#953=ADVANCED_FACE('',(#865),#908,.F.);
#954=ADVANCED_FACE('',(#866),#909,.F.);
#955=ADVANCED_FACE('',(#867),#20,.F.);
#956=ADVANCED_FACE('',(#868),#910,.T.);
#957=ADVANCED_FACE('',(#869),#21,.T.);
#958=ADVANCED_FACE('',(#870),#911,.T.);
#959=ADVANCED_FACE('',(#871),#912,.T.);
#960=ADVANCED_FACE('',(#872),#913,.F.);
#961=ADVANCED_FACE('',(#873),#914,.F.);
#962=ADVANCED_FACE('',(#874),#22,.F.);
#963=ADVANCED_FACE('',(#875),#915,.T.);
#964=ADVANCED_FACE('',(#876),#23,.T.);
#965=ADVANCED_FACE('',(#877),#916,.T.);
#966=ADVANCED_FACE('',(#878),#917,.T.);
#967=ADVANCED_FACE('',(#879),#918,.F.);
#968=ADVANCED_FACE('',(#880),#919,.F.);
#969=ADVANCED_FACE('',(#881),#24,.F.);
#970=ADVANCED_FACE('',(#882),#920,.T.);
#971=ADVANCED_FACE('',(#883),#25,.T.);
#972=ADVANCED_FACE('',(#884),#921,.T.);
#973=ADVANCED_FACE('',(#885),#922,.T.);
#974=ADVANCED_FACE('',(#886),#923,.F.);
#975=ADVANCED_FACE('',(#887),#924,.F.);
#976=CLOSED_SHELL('',(#925,#926,#927,#928,#929,#930,#931,#932,#933,#934,
#935,#936,#937,#938,#939,#940,#941,#942,#943,#944,#945,#946,#947,#948,#949,
#950,#951,#952,#953,#954,#955,#956,#957,#958,#959,#960,#961,#962,#963,#964,
#965,#966,#967,#968,#969,#970,#971,#972,#973,#974,#975));
#977=STYLED_ITEM('',(#978),#985);
#978=PRESENTATION_STYLE_ASSIGNMENT((#979));
#979=SURFACE_STYLE_USAGE(.BOTH.,#980);
#980=SURFACE_SIDE_STYLE('',(#981));
#981=SURFACE_STYLE_FILL_AREA(#982);
#982=FILL_AREA_STYLE('',(#983));
#983=FILL_AREA_STYLE_COLOUR('',#984);
#984=COLOUR_RGB('',0.231372549019608,0.380392156862745,0.705882352941177);
#985=MANIFOLD_SOLID_BREP('Part 3',#976);
#986=SHAPE_DEFINITION_REPRESENTATION(#1740,#987);
#987=SHAPE_REPRESENTATION('Part 3',(#988),#1735);
#988=AXIS2_PLACEMENT_3D('',#1438,#1114,#1115);
#989=AXIS2_PLACEMENT_3D('',#1439,#1116,#1117);
#990=AXIS2_PLACEMENT_3D('',#1440,#1118,#1119);
#991=AXIS2_PLACEMENT_3D('',#1445,#1121,#1122);
#992=AXIS2_PLACEMENT_3D('',#1448,#1124,#1125);
#993=AXIS2_PLACEMENT_3D('',#1449,#1126,#1127);
#994=AXIS2_PLACEMENT_3D('',#1454,#1129,#1130);
#995=AXIS2_PLACEMENT_3D('',#1457,#1132,#1133);
#996=AXIS2_PLACEMENT_3D('',#1458,#1134,#1135);
#997=AXIS2_PLACEMENT_3D('',#1463,#1137,#1138);
#998=AXIS2_PLACEMENT_3D('',#1466,#1140,#1141);
#999=AXIS2_PLACEMENT_3D('',#1467,#1142,#1143);
#1000=AXIS2_PLACEMENT_3D('',#1472,#1145,#1146);
#1001=AXIS2_PLACEMENT_3D('',#1475,#1148,#1149);
#1002=AXIS2_PLACEMENT_3D('',#1476,#1150,#1151);
#1003=AXIS2_PLACEMENT_3D('',#1481,#1153,#1154);
#1004=AXIS2_PLACEMENT_3D('',#1484,#1156,#1157);
#1005=AXIS2_PLACEMENT_3D('',#1485,#1158,#1159);
#1006=AXIS2_PLACEMENT_3D('',#1490,#1161,#1162);
#1007=AXIS2_PLACEMENT_3D('',#1493,#1164,#1165);
#1008=AXIS2_PLACEMENT_3D('',#1494,#1166,#1167);
#1009=AXIS2_PLACEMENT_3D('',#1496,#1168,#1169);
#1010=AXIS2_PLACEMENT_3D('',#1498,#1170,#1171);
#1011=AXIS2_PLACEMENT_3D('',#1502,#1173,#1174);
#1012=AXIS2_PLACEMENT_3D('',#1504,#1175,#1176);
#1013=AXIS2_PLACEMENT_3D('',#1506,#1177,#1178);
#1014=AXIS2_PLACEMENT_3D('',#1510,#1180,#1181);
#1015=AXIS2_PLACEMENT_3D('',#1511,#1182,#1183);
#1016=AXIS2_PLACEMENT_3D('',#1515,#1185,#1186);
#1017=AXIS2_PLACEMENT_3D('',#1517,#1187,#1188);
#1018=AXIS2_PLACEMENT_3D('',#1519,#1189,#1190);
#1019=AXIS2_PLACEMENT_3D('',#1523,#1192,#1193);
#1020=AXIS2_PLACEMENT_3D('',#1524,#1194,#1195);
#1021=AXIS2_PLACEMENT_3D('',#1528,#1197,#1198);
#1022=AXIS2_PLACEMENT_3D('',#1530,#1199,#1200);
#1023=AXIS2_PLACEMENT_3D('',#1532,#1201,#1202);
#1024=AXIS2_PLACEMENT_3D('',#1536,#1204,#1205);
#1025=AXIS2_PLACEMENT_3D('',#1537,#1206,#1207);
#1026=AXIS2_PLACEMENT_3D('',#1541,#1209,#1210);
#1027=AXIS2_PLACEMENT_3D('',#1543,#1211,#1212);
#1028=AXIS2_PLACEMENT_3D('',#1545,#1213,#1214);
#1029=AXIS2_PLACEMENT_3D('',#1549,#1216,#1217);
#1030=AXIS2_PLACEMENT_3D('',#1550,#1218,#1219);
#1031=AXIS2_PLACEMENT_3D('',#1554,#1221,#1222);
#1032=AXIS2_PLACEMENT_3D('',#1556,#1223,#1224);
#1033=AXIS2_PLACEMENT_3D('',#1558,#1225,#1226);
#1034=AXIS2_PLACEMENT_3D('',#1562,#1228,#1229);
#1035=AXIS2_PLACEMENT_3D('',#1563,#1230,#1231);
#1036=AXIS2_PLACEMENT_3D('',#1567,#1233,#1234);
#1037=AXIS2_PLACEMENT_3D('',#1569,#1235,#1236);
#1038=AXIS2_PLACEMENT_3D('',#1571,#1237,#1238);
#1039=AXIS2_PLACEMENT_3D('',#1575,#1240,#1241);
#1040=AXIS2_PLACEMENT_3D('',#1576,#1242,#1243);
#1041=AXIS2_PLACEMENT_3D('',#1577,#1244,#1245);
#1042=AXIS2_PLACEMENT_3D('',#1578,#1246,#1247);
#1043=AXIS2_PLACEMENT_3D('',#1581,#1248,#1249);
#1044=AXIS2_PLACEMENT_3D('',#1585,#1251,#1252);
#1045=AXIS2_PLACEMENT_3D('',#1586,#1253,#1254);
#1046=AXIS2_PLACEMENT_3D('',#1590,#1256,#1257);
#1047=AXIS2_PLACEMENT_3D('',#1592,#1258,#1259);
#1048=AXIS2_PLACEMENT_3D('',#1594,#1260,#1261);
#1049=AXIS2_PLACEMENT_3D('',#1598,#1263,#1264);
#1050=AXIS2_PLACEMENT_3D('',#1599,#1265,#1266);
#1051=AXIS2_PLACEMENT_3D('',#1603,#1268,#1269);
#1052=AXIS2_PLACEMENT_3D('',#1605,#1270,#1271);
#1053=AXIS2_PLACEMENT_3D('',#1607,#1272,#1273);
#1054=AXIS2_PLACEMENT_3D('',#1611,#1275,#1276);
#1055=AXIS2_PLACEMENT_3D('',#1612,#1277,#1278);
#1056=AXIS2_PLACEMENT_3D('',#1616,#1280,#1281);
#1057=AXIS2_PLACEMENT_3D('',#1618,#1282,#1283);
#1058=AXIS2_PLACEMENT_3D('',#1620,#1284,#1285);
#1059=AXIS2_PLACEMENT_3D('',#1624,#1287,#1288);
#1060=AXIS2_PLACEMENT_3D('',#1625,#1289,#1290);
#1061=AXIS2_PLACEMENT_3D('',#1629,#1292,#1293);
#1062=AXIS2_PLACEMENT_3D('',#1631,#1294,#1295);
#1063=AXIS2_PLACEMENT_3D('',#1633,#1296,#1297);
#1064=AXIS2_PLACEMENT_3D('',#1637,#1299,#1300);
#1065=AXIS2_PLACEMENT_3D('',#1638,#1301,#1302);
#1066=AXIS2_PLACEMENT_3D('',#1642,#1304,#1305);
#1067=AXIS2_PLACEMENT_3D('',#1644,#1306,#1307);
#1068=AXIS2_PLACEMENT_3D('',#1646,#1308,#1309);
#1069=AXIS2_PLACEMENT_3D('',#1650,#1311,#1312);
#1070=AXIS2_PLACEMENT_3D('',#1651,#1313,#1314);
#1071=AXIS2_PLACEMENT_3D('',#1655,#1316,#1317);
#1072=AXIS2_PLACEMENT_3D('',#1656,#1318,#1319);
#1073=AXIS2_PLACEMENT_3D('',#1659,#1322,#1323);
#1074=AXIS2_PLACEMENT_3D('',#1662,#1326,#1327);
#1075=AXIS2_PLACEMENT_3D('',#1665,#1330,#1331);
#1076=AXIS2_PLACEMENT_3D('',#1666,#1332,#1333);
#1077=AXIS2_PLACEMENT_3D('',#1667,#1334,#1335);
#1078=AXIS2_PLACEMENT_3D('',#1668,#1336,#1337);
#1079=AXIS2_PLACEMENT_3D('',#1669,#1338,#1339);
#1080=AXIS2_PLACEMENT_3D('',#1672,#1342,#1343);
#1081=AXIS2_PLACEMENT_3D('',#1675,#1346,#1347);
#1082=AXIS2_PLACEMENT_3D('',#1678,#1350,#1351);
#1083=AXIS2_PLACEMENT_3D('',#1679,#1352,#1353);
#1084=AXIS2_PLACEMENT_3D('',#1680,#1354,#1355);
#1085=AXIS2_PLACEMENT_3D('',#1681,#1356,#1357);
#1086=AXIS2_PLACEMENT_3D('',#1682,#1358,#1359);
#1087=AXIS2_PLACEMENT_3D('',#1685,#1362,#1363);
#1088=AXIS2_PLACEMENT_3D('',#1688,#1366,#1367);
#1089=AXIS2_PLACEMENT_3D('',#1691,#1370,#1371);
#1090=AXIS2_PLACEMENT_3D('',#1692,#1372,#1373);
#1091=AXIS2_PLACEMENT_3D('',#1693,#1374,#1375);
#1092=AXIS2_PLACEMENT_3D('',#1694,#1376,#1377);
#1093=AXIS2_PLACEMENT_3D('',#1695,#1378,#1379);
#1094=AXIS2_PLACEMENT_3D('',#1698,#1382,#1383);
#1095=AXIS2_PLACEMENT_3D('',#1701,#1386,#1387);
#1096=AXIS2_PLACEMENT_3D('',#1704,#1390,#1391);
#1097=AXIS2_PLACEMENT_3D('',#1705,#1392,#1393);
#1098=AXIS2_PLACEMENT_3D('',#1706,#1394,#1395);
#1099=AXIS2_PLACEMENT_3D('',#1707,#1396,#1397);
#1100=AXIS2_PLACEMENT_3D('',#1708,#1398,#1399);
#1101=AXIS2_PLACEMENT_3D('',#1711,#1402,#1403);
#1102=AXIS2_PLACEMENT_3D('',#1714,#1406,#1407);
#1103=AXIS2_PLACEMENT_3D('',#1717,#1410,#1411);
#1104=AXIS2_PLACEMENT_3D('',#1718,#1412,#1413);
#1105=AXIS2_PLACEMENT_3D('',#1719,#1414,#1415);
#1106=AXIS2_PLACEMENT_3D('',#1720,#1416,#1417);
#1107=AXIS2_PLACEMENT_3D('',#1721,#1418,#1419);
#1108=AXIS2_PLACEMENT_3D('',#1724,#1422,#1423);
#1109=AXIS2_PLACEMENT_3D('',#1727,#1426,#1427);
#1110=AXIS2_PLACEMENT_3D('',#1730,#1430,#1431);
#1111=AXIS2_PLACEMENT_3D('',#1731,#1432,#1433);
#1112=AXIS2_PLACEMENT_3D('',#1732,#1434,#1435);
#1113=AXIS2_PLACEMENT_3D('',#1733,#1436,#1437);
#1114=DIRECTION('',(0.,0.,1.));
#1115=DIRECTION('',(1.,0.,0.));
#1116=DIRECTION('',(-1.,0.,0.));
#1117=DIRECTION('',(0.,0.,1.));
#1118=DIRECTION('',(1.,0.,0.));
#1119=DIRECTION('',(0.,-0.866025403784439,-0.5));
#1120=DIRECTION('',(-1.,0.,0.));
#1121=DIRECTION('',(1.,0.,0.));
#1122=DIRECTION('',(0.,-0.866025403784439,-0.5));
#1123=DIRECTION('',(-1.,0.,0.));
#1124=DIRECTION('',(-1.,0.,0.));
#1125=DIRECTION('',(0.,0.,1.));
#1126=DIRECTION('',(1.,0.,0.));
#1127=DIRECTION('',(0.,-0.866025403784439,-0.5));
#1128=DIRECTION('',(-1.,0.,0.));
#1129=DIRECTION('',(1.,0.,0.));
#1130=DIRECTION('',(0.,-0.866025403784439,-0.5));
#1131=DIRECTION('',(-1.,0.,0.));
#1132=DIRECTION('',(-1.,0.,0.));
#1133=DIRECTION('',(0.,0.,1.));
#1134=DIRECTION('',(1.,0.,0.));
#1135=DIRECTION('',(0.,-0.866025403784439,-0.5));
#1136=DIRECTION('',(-1.,0.,0.));
#1137=DIRECTION('',(1.,0.,0.));
#1138=DIRECTION('',(0.,-0.866025403784439,-0.5));
#1139=DIRECTION('',(-1.,0.,0.));
#1140=DIRECTION('',(-1.,0.,0.));
#1141=DIRECTION('',(0.,0.,1.));
#1142=DIRECTION('',(1.,0.,0.));
#1143=DIRECTION('',(0.,-0.866025403784439,-0.5));
#1144=DIRECTION('',(-1.,0.,0.));
#1145=DIRECTION('',(1.,0.,0.));
#1146=DIRECTION('',(0.,-0.866025403784439,-0.5));
#1147=DIRECTION('',(-1.,0.,0.));
#1148=DIRECTION('',(-1.,0.,0.));
#1149=DIRECTION('',(0.,0.,1.));
#1150=DIRECTION('',(1.,0.,0.));
#1151=DIRECTION('',(0.,-0.866025403784439,-0.5));
#1152=DIRECTION('',(-1.,0.,0.));
#1153=DIRECTION('',(1.,0.,0.));
#1154=DIRECTION('',(0.,-0.866025403784439,-0.5));
#1155=DIRECTION('',(-1.,0.,0.));
#1156=DIRECTION('',(-1.,0.,0.));
#1157=DIRECTION('',(0.,0.,1.));
#1158=DIRECTION('',(1.,0.,0.));
#1159=DIRECTION('',(0.,-0.866025403784439,-0.5));
#1160=DIRECTION('',(-1.,0.,0.));
#1161=DIRECTION('',(1.,0.,0.));
#1162=DIRECTION('',(0.,-0.866025403784439,-0.5));
#1163=DIRECTION('',(-1.,0.,0.));
#1164=DIRECTION('',(-1.,0.,0.));
#1165=DIRECTION('',(0.,0.,1.));
#1166=DIRECTION('',(1.,0.,0.));
#1167=DIRECTION('',(0.,1.,0.));
#1168=DIRECTION('',(1.,0.,0.));
#1169=DIRECTION('',(0.,1.,0.));
#1170=DIRECTION('',(1.,0.,0.));
#1171=DIRECTION('',(0.,1.,0.));
#1172=DIRECTION('',(0.,-0.5,0.866025403784439));
#1173=DIRECTION('',(1.,0.,0.));
#1174=DIRECTION('',(0.,0.,-1.));
#1175=DIRECTION('',(1.,0.,0.));
#1176=DIRECTION('',(0.,-0.5,0.866025403784439));
#1177=DIRECTION('',(1.,0.,0.));
#1178=DIRECTION('',(0.,0.,-1.));
#1179=DIRECTION('',(0.,-0.866025403784439,0.5));
#1180=DIRECTION('',(1.,0.,0.));
#1181=DIRECTION('',(0.,0.,-1.));
#1182=DIRECTION('',(1.,0.,0.));
#1183=DIRECTION('',(0.,0.,-1.));
#1184=DIRECTION('',(0.,-1.,0.));
#1185=DIRECTION('',(1.,0.,0.));
#1186=DIRECTION('',(0.,0.,-1.));
#1187=DIRECTION('',(1.,0.,0.));
#1188=DIRECTION('',(0.,-1.,6.03382078600628E-16));
#1189=DIRECTION('',(1.,0.,0.));
#1190=DIRECTION('',(0.,0.,-1.));
#1191=DIRECTION('',(0.,-0.866025403784438,-0.5));
#1192=DIRECTION('',(1.,0.,0.));
#1193=DIRECTION('',(0.,0.,-1.));
#1194=DIRECTION('',(1.,0.,0.));
#1195=DIRECTION('',(0.,0.,-1.));
#1196=DIRECTION('',(0.,-0.5,-0.866025403784439));
#1197=DIRECTION('',(1.,0.,0.));
#1198=DIRECTION('',(0.,0.,-1.));
#1199=DIRECTION('',(1.,0.,0.));
#1200=DIRECTION('',(0.,-0.5,-0.866025403784438));
#1201=DIRECTION('',(1.,0.,0.));
#1202=DIRECTION('',(0.,0.,-1.));
#1203=DIRECTION('',(0.,5.55111512312578E-16,-1.));
#1204=DIRECTION('',(1.,0.,0.));
#1205=DIRECTION('',(0.,0.,-1.));
#1206=DIRECTION('',(1.,0.,0.));
#1207=DIRECTION('',(0.,0.,-1.));
#1208=DIRECTION('',(0.,0.5,-0.866025403784439));
#1209=DIRECTION('',(1.,0.,0.));
#1210=DIRECTION('',(0.,0.,-1.));
#1211=DIRECTION('',(1.,0.,0.));
#1212=DIRECTION('',(0.,0.5,-0.866025403784439));
#1213=DIRECTION('',(1.,0.,0.));
#1214=DIRECTION('',(0.,0.,-1.));
#1215=DIRECTION('',(0.,0.866025403784439,-0.5));
#1216=DIRECTION('',(1.,0.,0.));
#1217=DIRECTION('',(0.,0.,-1.));
#1218=DIRECTION('',(1.,0.,0.));
#1219=DIRECTION('',(0.,0.,-1.));
#1220=DIRECTION('',(0.,1.,-1.22464679914735E-16));
#1221=DIRECTION('',(1.,0.,0.));
#1222=DIRECTION('',(0.,0.,-1.));
#1223=DIRECTION('',(1.,0.,0.));
#1224=DIRECTION('',(0.,1.,-7.25846758515364E-16));
#1225=DIRECTION('',(1.,0.,0.));
#1226=DIRECTION('',(0.,0.,-1.));
#1227=DIRECTION('',(0.,0.866025403784438,0.5));
#1228=DIRECTION('',(1.,0.,0.));
#1229=DIRECTION('',(0.,0.,-1.));
#1230=DIRECTION('',(1.,0.,0.));
#1231=DIRECTION('',(0.,0.,-1.));
#1232=DIRECTION('',(0.,0.5,0.866025403784438));
#1233=DIRECTION('',(1.,0.,0.));
#1234=DIRECTION('',(0.,0.,-1.));
#1235=DIRECTION('',(1.,0.,0.));
#1236=DIRECTION('',(0.,0.5,0.866025403784438));
#1237=DIRECTION('',(1.,0.,0.));
#1238=DIRECTION('',(0.,0.,-1.));
#1239=DIRECTION('',(0.,-1.66533453693773E-16,1.));
#1240=DIRECTION('',(1.,0.,0.));
#1241=DIRECTION('',(0.,0.,-1.));
#1242=DIRECTION('',(1.,0.,0.));
#1243=DIRECTION('',(0.,0.,-1.));
#1244=DIRECTION('',(1.,0.,0.));
#1245=DIRECTION('',(0.,1.,0.));
#1246=DIRECTION('',(1.,0.,0.));
#1247=DIRECTION('',(0.,-0.5,0.866025403784439));
#1248=DIRECTION('',(1.,0.,0.));
#1249=DIRECTION('',(0.,0.,-1.));
#1250=DIRECTION('',(0.,-0.5,0.866025403784439));
#1251=DIRECTION('',(1.,0.,0.));
#1252=DIRECTION('',(0.,0.,-1.));
#1253=DIRECTION('',(1.,0.,0.));
#1254=DIRECTION('',(0.,0.,-1.));
#1255=DIRECTION('',(0.,-1.66533453693773E-16,1.));
#1256=DIRECTION('',(1.,0.,0.));
#1257=DIRECTION('',(0.,0.,-1.));
#1258=DIRECTION('',(1.,0.,0.));
#1259=DIRECTION('',(0.,0.5,0.866025403784438));
#1260=DIRECTION('',(1.,0.,0.));
#1261=DIRECTION('',(0.,0.,-1.));
#1262=DIRECTION('',(0.,0.5,0.866025403784438));
#1263=DIRECTION('',(1.,0.,0.));
#1264=DIRECTION('',(0.,0.,-1.));
#1265=DIRECTION('',(1.,0.,0.));
#1266=DIRECTION('',(0.,0.,-1.));
#1267=DIRECTION('',(0.,0.866025403784438,0.5));
#1268=DIRECTION('',(1.,0.,0.));
#1269=DIRECTION('',(0.,0.,-1.));
#1270=DIRECTION('',(1.,0.,0.));
#1271=DIRECTION('',(0.,1.,-7.25846758515364E-16));
#1272=DIRECTION('',(1.,0.,0.));
#1273=DIRECTION('',(0.,0.,-1.));
#1274=DIRECTION('',(0.,1.,-1.22464679914735E-16));
#1275=DIRECTION('',(1.,0.,0.));
#1276=DIRECTION('',(0.,0.,-1.));
#1277=DIRECTION('',(1.,0.,0.));
#1278=DIRECTION('',(0.,0.,-1.));
#1279=DIRECTION('',(0.,0.866025403784439,-0.5));
#1280=DIRECTION('',(1.,0.,0.));
#1281=DIRECTION('',(0.,0.,-1.));
#1282=DIRECTION('',(1.,0.,0.));
#1283=DIRECTION('',(0.,0.5,-0.866025403784439));
#1284=DIRECTION('',(1.,0.,0.));
#1285=DIRECTION('',(0.,0.,-1.));
#1286=DIRECTION('',(0.,0.5,-0.866025403784439));
#1287=DIRECTION('',(1.,0.,0.));
#1288=DIRECTION('',(0.,0.,-1.));
#1289=DIRECTION('',(1.,0.,0.));
#1290=DIRECTION('',(0.,0.,-1.));
#1291=DIRECTION('',(0.,5.55111512312578E-16,-1.));
#1292=DIRECTION('',(1.,0.,0.));
#1293=DIRECTION('',(0.,0.,-1.));
#1294=DIRECTION('',(1.,0.,0.));
#1295=DIRECTION('',(0.,-0.5,-0.866025403784438));
#1296=DIRECTION('',(1.,0.,0.));
#1297=DIRECTION('',(0.,0.,-1.));
#1298=DIRECTION('',(0.,-0.5,-0.866025403784439));
#1299=DIRECTION('',(1.,0.,0.));
#1300=DIRECTION('',(0.,0.,-1.));
#1301=DIRECTION('',(1.,0.,0.));
#1302=DIRECTION('',(0.,0.,-1.));
#1303=DIRECTION('',(0.,-0.866025403784438,-0.5));
#1304=DIRECTION('',(1.,0.,0.));
#1305=DIRECTION('',(0.,0.,-1.));
#1306=DIRECTION('',(1.,0.,0.));
#1307=DIRECTION('',(0.,-1.,6.03382078600628E-16));
#1308=DIRECTION('',(1.,0.,0.));
#1309=DIRECTION('',(0.,0.,-1.));
#1310=DIRECTION('',(0.,-1.,0.));
#1311=DIRECTION('',(1.,0.,0.));
#1312=DIRECTION('',(0.,0.,-1.));
#1313=DIRECTION('',(1.,0.,0.));
#1314=DIRECTION('',(0.,0.,-1.));
#1315=DIRECTION('',(0.,-0.866025403784439,0.5));
#1316=DIRECTION('',(1.,0.,0.));
#1317=DIRECTION('',(0.,0.,-1.));
#1318=DIRECTION('',(0.,0.,-1.));
#1319=DIRECTION('',(-1.,0.,0.));
#1320=DIRECTION('',(-1.,0.,0.));
#1321=DIRECTION('',(1.,0.,0.));
#1322=DIRECTION('',(-1.,0.,0.));
#1323=DIRECTION('',(0.,0.,1.));
#1324=DIRECTION('',(-1.,0.,0.));
#1325=DIRECTION('',(-1.,0.,0.));
#1326=DIRECTION('',(0.,0.5,-0.866025403784438));
#1327=DIRECTION('',(0.,0.866025403784439,0.5));
#1328=DIRECTION('',(1.,0.,0.));
#1329=DIRECTION('',(-1.,0.,0.));
#1330=DIRECTION('',(-1.,0.,0.));
#1331=DIRECTION('',(0.,0.,1.));
#1332=DIRECTION('',(-1.,0.,0.));
#1333=DIRECTION('',(0.,0.,1.));
#1334=DIRECTION('',(-1.,0.,0.));
#1335=DIRECTION('',(0.,0.,1.));
#1336=DIRECTION('',(-1.,0.,0.));
#1337=DIRECTION('',(0.,0.,1.));
#1338=DIRECTION('',(0.,0.866025403784439,-0.5));
#1339=DIRECTION('',(0.,0.5,0.866025403784439));
#1340=DIRECTION('',(-1.,0.,0.));
#1341=DIRECTION('',(1.,0.,0.));
#1342=DIRECTION('',(-1.,0.,0.));
#1343=DIRECTION('',(0.,0.,1.));
#1344=DIRECTION('',(-1.,0.,0.));
#1345=DIRECTION('',(-1.,0.,0.));
#1346=DIRECTION('',(0.,1.,5.55111512312578E-16));
#1347=DIRECTION('',(0.,-5.55111512312578E-16,1.));
#1348=DIRECTION('',(1.,0.,0.));
#1349=DIRECTION('',(-1.,0.,0.));
#1350=DIRECTION('',(-1.,0.,0.));
#1351=DIRECTION('',(0.,0.,1.));
#1352=DIRECTION('',(-1.,0.,0.));
#1353=DIRECTION('',(0.,0.,1.));
#1354=DIRECTION('',(-1.,0.,0.));
#1355=DIRECTION('',(0.,0.,1.));
#1356=DIRECTION('',(-1.,0.,0.));
#1357=DIRECTION('',(0.,0.,1.));
#1358=DIRECTION('',(0.,0.866025403784439,0.5));
#1359=DIRECTION('',(0.,-0.5,0.866025403784439));
#1360=DIRECTION('',(-1.,0.,0.));
#1361=DIRECTION('',(1.,0.,0.));
#1362=DIRECTION('',(-1.,0.,0.));
#1363=DIRECTION('',(0.,0.,1.));
#1364=DIRECTION('',(-1.,0.,0.));
#1365=DIRECTION('',(-1.,0.,0.));
#1366=DIRECTION('',(0.,0.5,0.866025403784439));
#1367=DIRECTION('',(0.,-0.866025403784439,0.5));
#1368=DIRECTION('',(1.,0.,0.));
#1369=DIRECTION('',(-1.,0.,0.));
#1370=DIRECTION('',(-1.,0.,0.));
#1371=DIRECTION('',(0.,0.,1.));
#1372=DIRECTION('',(-1.,0.,0.));
#1373=DIRECTION('',(0.,0.,1.));
#1374=DIRECTION('',(-1.,0.,0.));
#1375=DIRECTION('',(0.,0.,1.));
#1376=DIRECTION('',(-1.,0.,0.));
#1377=DIRECTION('',(0.,0.,1.));
#1378=DIRECTION('',(0.,1.22464679914735E-16,1.));
#1379=DIRECTION('',(0.,-1.,1.22464679914735E-16));
#1380=DIRECTION('',(-1.,0.,0.));
#1381=DIRECTION('',(1.,0.,0.));
#1382=DIRECTION('',(-1.,0.,0.));
#1383=DIRECTION('',(0.,0.,1.));
#1384=DIRECTION('',(-1.,0.,0.));
#1385=DIRECTION('',(-1.,0.,0.));
#1386=DIRECTION('',(0.,-0.5,0.866025403784439));
#1387=DIRECTION('',(0.,-0.866025403784439,-0.5));
#1388=DIRECTION('',(1.,0.,0.));
#1389=DIRECTION('',(-1.,0.,0.));
#1390=DIRECTION('',(-1.,0.,0.));
#1391=DIRECTION('',(0.,0.,1.));
#1392=DIRECTION('',(-1.,0.,0.));
#1393=DIRECTION('',(0.,0.,1.));
#1394=DIRECTION('',(-1.,0.,0.));
#1395=DIRECTION('',(0.,0.,1.));
#1396=DIRECTION('',(-1.,0.,0.));
#1397=DIRECTION('',(0.,0.,1.));
#1398=DIRECTION('',(0.,-0.866025403784439,0.5));
#1399=DIRECTION('',(0.,-0.5,-0.866025403784439));
#1400=DIRECTION('',(-1.,0.,0.));
#1401=DIRECTION('',(1.,0.,0.));
#1402=DIRECTION('',(-1.,0.,0.));
#1403=DIRECTION('',(0.,0.,1.));
#1404=DIRECTION('',(-1.,0.,0.));
#1405=DIRECTION('',(-1.,0.,0.));
#1406=DIRECTION('',(0.,-1.,-1.66533453693773E-16));
#1407=DIRECTION('',(0.,1.66533453693773E-16,-1.));
#1408=DIRECTION('',(1.,0.,0.));
#1409=DIRECTION('',(-1.,0.,0.));
#1410=DIRECTION('',(-1.,0.,0.));
#1411=DIRECTION('',(0.,0.,1.));
#1412=DIRECTION('',(-1.,0.,0.));
#1413=DIRECTION('',(0.,0.,1.));
#1414=DIRECTION('',(-1.,0.,0.));
#1415=DIRECTION('',(0.,0.,1.));
#1416=DIRECTION('',(-1.,0.,0.));
#1417=DIRECTION('',(0.,0.,1.));
#1418=DIRECTION('',(0.,-0.866025403784439,-0.5));
#1419=DIRECTION('',(0.,0.5,-0.866025403784439));
#1420=DIRECTION('',(-1.,0.,0.));
#1421=DIRECTION('',(1.,0.,0.));
#1422=DIRECTION('',(-1.,0.,0.));
#1423=DIRECTION('',(0.,0.,1.));
#1424=DIRECTION('',(-1.,0.,0.));
#1425=DIRECTION('',(-1.,0.,0.));
#1426=DIRECTION('',(0.,-0.5,-0.866025403784439));
#1427=DIRECTION('',(0.,0.866025403784439,-0.5));
#1428=DIRECTION('',(1.,0.,0.));
#1429=DIRECTION('',(-1.,0.,0.));
#1430=DIRECTION('',(-1.,0.,0.));
#1431=DIRECTION('',(0.,0.,1.));
#1432=DIRECTION('',(-1.,0.,0.));
#1433=DIRECTION('',(0.,0.,1.));
#1434=DIRECTION('',(-1.,0.,0.));
#1435=DIRECTION('',(0.,0.,1.));
#1436=DIRECTION('',(-1.,0.,0.));
#1437=DIRECTION('',(0.,0.,1.));
#1438=CARTESIAN_POINT('',(0.,0.,0.));
#1439=CARTESIAN_POINT('',(0.005,0.0152194720934966,0.0324387449559016));
#1440=CARTESIAN_POINT('',(0.,0.0152194720934966,0.0324387449559016));
#1441=CARTESIAN_POINT('',(0.,0.0139694720934966,0.0398338446847762));
#1442=CARTESIAN_POINT('',(0.,0.0126044539837899,0.0394680891846264));
#1443=CARTESIAN_POINT('',(0.005,0.0126044539837899,0.0394680891846264));
#1444=CARTESIAN_POINT('',(0.005,0.0126044539837899,0.0394680891846264));
#1445=CARTESIAN_POINT('',(0.005,0.0152194720934966,0.0324387449559016));
#1446=CARTESIAN_POINT('',(0.005,0.0139694720934966,0.0398338446847762));
#1447=CARTESIAN_POINT('',(0.005,0.0139694720934966,0.0398338446847762));
#1448=CARTESIAN_POINT('',(0.005,0.0152194720934966,0.0324387449559016));
#1449=CARTESIAN_POINT('',(0.,0.0152194720934966,0.0324387449559016));
#1450=CARTESIAN_POINT('',(0.,0.0209988163222214,0.0372188265750695));
#1451=CARTESIAN_POINT('',(0.,0.0199995537126644,0.0382180891846263));
#1452=CARTESIAN_POINT('',(0.005,0.0199995537126644,0.0382180891846263));
#1453=CARTESIAN_POINT('',(0.005,0.0199995537126644,0.0382180891846263));
#1454=CARTESIAN_POINT('',(0.005,0.0152194720934966,0.0324387449559016));
#1455=CARTESIAN_POINT('',(0.005,0.0209988163222214,0.0372188265750695));
#1456=CARTESIAN_POINT('',(0.005,0.0209988163222214,0.0372188265750695));
#1457=CARTESIAN_POINT('',(0.005,0.0152194720934966,0.0324387449559016));
#1458=CARTESIAN_POINT('',(0.,0.0152194720934966,0.0324387449559016));
#1459=CARTESIAN_POINT('',(0.,0.0222488163222214,0.0298237268461949));
#1460=CARTESIAN_POINT('',(0.,0.0226145718223711,0.0311887449559016));
#1461=CARTESIAN_POINT('',(0.005,0.0226145718223711,0.0311887449559016));
#1462=CARTESIAN_POINT('',(0.005,0.0226145718223711,0.0311887449559016));
#1463=CARTESIAN_POINT('',(0.005,0.0152194720934966,0.0324387449559016));
#1464=CARTESIAN_POINT('',(0.005,0.0222488163222214,0.0298237268461949));
#1465=CARTESIAN_POINT('',(0.005,0.0222488163222214,0.0298237268461949));
#1466=CARTESIAN_POINT('',(0.005,0.0152194720934966,0.0324387449559016));
#1467=CARTESIAN_POINT('',(0.,0.0152194720934966,0.0324387449559016));
#1468=CARTESIAN_POINT('',(0.,0.0164694720934966,0.0250436452270271));
#1469=CARTESIAN_POINT('',(0.,0.0178344902032033,0.0254094007271769));
#1470=CARTESIAN_POINT('',(0.005,0.0178344902032033,0.0254094007271769));
#1471=CARTESIAN_POINT('',(0.005,0.0178344902032033,0.0254094007271769));
#1472=CARTESIAN_POINT('',(0.005,0.0152194720934966,0.0324387449559016));
#1473=CARTESIAN_POINT('',(0.005,0.0164694720934966,0.0250436452270271));
#1474=CARTESIAN_POINT('',(0.005,0.0164694720934966,0.0250436452270271));
#1475=CARTESIAN_POINT('',(0.005,0.0152194720934966,0.0324387449559016));
#1476=CARTESIAN_POINT('',(0.,0.0152194720934966,0.0324387449559016));
#1477=CARTESIAN_POINT('',(0.,0.00944012786477183,0.0276586633367338));
#1478=CARTESIAN_POINT('',(0.,0.0104393904743288,0.0266594007271769));
#1479=CARTESIAN_POINT('',(0.005,0.0104393904743288,0.0266594007271769));
#1480=CARTESIAN_POINT('',(0.005,0.0104393904743288,0.0266594007271769));
#1481=CARTESIAN_POINT('',(0.005,0.0152194720934966,0.0324387449559016));
#1482=CARTESIAN_POINT('',(0.005,0.00944012786477183,0.0276586633367338));
#1483=CARTESIAN_POINT('',(0.005,0.00944012786477183,0.0276586633367338));
#1484=CARTESIAN_POINT('',(0.005,0.0152194720934966,0.0324387449559016));
#1485=CARTESIAN_POINT('',(0.005,0.0152194720934966,0.0324387449559016));
#1486=CARTESIAN_POINT('',(0.005,0.00819012786477183,0.0350537630656084));
#1487=CARTESIAN_POINT('',(0.005,0.00782437236462206,0.0336887449559016));
#1488=CARTESIAN_POINT('',(0.005,0.00819012786477183,0.0350537630656084));
#1489=CARTESIAN_POINT('',(0.,0.00819012786477183,0.0350537630656084));
#1490=CARTESIAN_POINT('',(0.,0.0152194720934966,0.0324387449559016));
#1491=CARTESIAN_POINT('',(0.,0.00782437236462206,0.0336887449559016));
#1492=CARTESIAN_POINT('',(0.005,0.00782437236462206,0.0336887449559016));
#1493=CARTESIAN_POINT('',(0.005,0.0152194720934966,0.0324387449559016));
#1494=CARTESIAN_POINT('',(0.005,0.0152194720934966,0.0324387449559016));
#1495=CARTESIAN_POINT('',(0.005,0.0172194720934966,0.0324387449559016));
#1496=CARTESIAN_POINT('',(0.,0.0152194720934966,0.0324387449559016));
#1497=CARTESIAN_POINT('',(0.,0.0172194720934966,0.0324387449559016));
#1498=CARTESIAN_POINT('',(0.005,0.0132194720934966,0.0324387449559016));
#1499=CARTESIAN_POINT('',(0.005,0.0104694720934966,0.0406659862918538));
#1500=CARTESIAN_POINT('',(0.005,0.0107824122561719,0.0401239580303714));
#1501=CARTESIAN_POINT('',(0.005,0.0102760421101753,0.0410010168506735));
#1502=CARTESIAN_POINT('',(0.005,0.00897700400449864,0.0402510168506735));
#1503=CARTESIAN_POINT('',(0.005,0.00804063379114895,0.0414228576348893));
#1504=CARTESIAN_POINT('',(0.005,0.0152194720934966,0.0324387449559016));
#1505=CARTESIAN_POINT('',(0.005,0.00623535941450895,0.0396175832582493));
#1506=CARTESIAN_POINT('',(0.005,0.00740720019872473,0.0386812130448996));
#1507=CARTESIAN_POINT('',(0.005,0.00665720019872474,0.037382174939223));
#1508=CARTESIAN_POINT('',(0.005,0.00699223075754442,0.0371887449559017));
#1509=CARTESIAN_POINT('',(0.005,0.00753425901902688,0.0368758047932264));
#1510=CARTESIAN_POINT('',(0.005,0.00678425901902688,0.0355767666875497));
#1511=CARTESIAN_POINT('',(0.005,0.00634535241884716,0.0339387449559016));
#1512=CARTESIAN_POINT('',(0.005,0.00634535241884716,0.0324387449559016));
#1513=CARTESIAN_POINT('',(0.005,0.00571947209349658,0.0324387449559016));
#1514=CARTESIAN_POINT('',(0.005,0.00533261212685399,0.0324387449559016));
#1515=CARTESIAN_POINT('',(0.005,0.00533261212685399,0.0309387449559017));
#1516=CARTESIAN_POINT('',(0.005,0.0038495831318576,0.0307137449559017));
#1517=CARTESIAN_POINT('',(0.005,0.0152194720934966,0.0324387449559016));
#1518=CARTESIAN_POINT('',(0.005,0.00451035941450896,0.0282476942966103));
#1519=CARTESIAN_POINT('',(0.005,0.00590720019872473,0.028794353078257));
#1520=CARTESIAN_POINT('',(0.005,0.00665720019872473,0.0274953149725804));
#1521=CARTESIAN_POINT('',(0.005,0.00699223075754442,0.0276887449559017));
#1522=CARTESIAN_POINT('',(0.005,0.00753425901902689,0.0280016851185769));
#1523=CARTESIAN_POINT('',(0.005,0.00828425901902689,0.0267026470129002));
#1524=CARTESIAN_POINT('',(0.005,0.00948337415049521,0.025503531881432));
#1525=CARTESIAN_POINT('',(0.005,0.0107824122561719,0.024753531881432));
#1526=CARTESIAN_POINT('',(0.005,0.0104694720934966,0.0242115036199494));
#1527=CARTESIAN_POINT('',(0.005,0.0102760421101753,0.0238764730611298));
#1528=CARTESIAN_POINT('',(0.005,0.0115750802158519,0.0231264730611298));
#1529=CARTESIAN_POINT('',(0.005,0.0110284214342052,0.021729632276914));
#1530=CARTESIAN_POINT('',(0.005,0.0152194720934966,0.0324387449559016));
#1531=CARTESIAN_POINT('',(0.005,0.0134944720934966,0.0210688559942626));
#1532=CARTESIAN_POINT('',(0.005,0.0137194720934966,0.0225518849892591));
#1533=CARTESIAN_POINT('',(0.005,0.0152194720934966,0.0225518849892591));
#1534=CARTESIAN_POINT('',(0.005,0.0152194720934966,0.0229387449559016));
#1535=CARTESIAN_POINT('',(0.005,0.0152194720934966,0.0235646252812522));
#1536=CARTESIAN_POINT('',(0.005,0.0167194720934966,0.0235646252812522));
#1537=CARTESIAN_POINT('',(0.005,0.0183574938251446,0.0240035318814319));
#1538=CARTESIAN_POINT('',(0.005,0.0196565319308213,0.024753531881432));
#1539=CARTESIAN_POINT('',(0.005,0.0199694720934966,0.0242115036199494));
#1540=CARTESIAN_POINT('',(0.005,0.0201629020768179,0.0238764730611297));
#1541=CARTESIAN_POINT('',(0.005,0.0214619401824945,0.0246264730611297));
#1542=CARTESIAN_POINT('',(0.005,0.0223983103958442,0.023454632276914));
#1543=CARTESIAN_POINT('',(0.005,0.0152194720934966,0.0324387449559016));
#1544=CARTESIAN_POINT('',(0.005,0.0242035847724843,0.025259906653554));
#1545=CARTESIAN_POINT('',(0.005,0.0230317439882685,0.0261962768669037));
#1546=CARTESIAN_POINT('',(0.005,0.0237817439882685,0.0274953149725804));
#1547=CARTESIAN_POINT('',(0.005,0.0234467134294487,0.0276887449559017));
#1548=CARTESIAN_POINT('',(0.005,0.0229046851679663,0.0280016851185769));
#1549=CARTESIAN_POINT('',(0.005,0.0236546851679663,0.0293007232242536));
#1550=CARTESIAN_POINT('',(0.005,0.024093591768146,0.0309387449559016));
#1551=CARTESIAN_POINT('',(0.005,0.024093591768146,0.0324387449559016));
#1552=CARTESIAN_POINT('',(0.005,0.0247194720934966,0.0324387449559016));
#1553=CARTESIAN_POINT('',(0.005,0.0251063320601392,0.0324387449559016));
#1554=CARTESIAN_POINT('',(0.005,0.0251063320601392,0.0339387449559016));
#1555=CARTESIAN_POINT('',(0.005,0.0265893610551355,0.0341637449559016));
#1556=CARTESIAN_POINT('',(0.005,0.0152194720934966,0.0324387449559016));
#1557=CARTESIAN_POINT('',(0.005,0.0259285847724842,0.036629795615193));
#1558=CARTESIAN_POINT('',(0.005,0.0245317439882685,0.0360831368335462));
#1559=CARTESIAN_POINT('',(0.005,0.0237817439882685,0.037382174939223));
#1560=CARTESIAN_POINT('',(0.005,0.0234467134294487,0.0371887449559017));
#1561=CARTESIAN_POINT('',(0.005,0.0229046851679663,0.0368758047932264));
#1562=CARTESIAN_POINT('',(0.005,0.0221546851679663,0.038174842898903));
#1563=CARTESIAN_POINT('',(0.005,0.020955570036498,0.0393739580303713));
#1564=CARTESIAN_POINT('',(0.005,0.0196565319308213,0.0401239580303713));
#1565=CARTESIAN_POINT('',(0.005,0.0199694720934966,0.0406659862918538));
#1566=CARTESIAN_POINT('',(0.005,0.0201629020768179,0.0410010168506735));
#1567=CARTESIAN_POINT('',(0.005,0.0188638639711412,0.0417510168506735));
#1568=CARTESIAN_POINT('',(0.005,0.0194105227527879,0.0431478576348893));
#1569=CARTESIAN_POINT('',(0.005,0.0152194720934966,0.0324387449559016));
#1570=CARTESIAN_POINT('',(0.005,0.0169444720934966,0.0438086339175406));
#1571=CARTESIAN_POINT('',(0.005,0.0167194720934966,0.0423256049225443));
#1572=CARTESIAN_POINT('',(0.005,0.0152194720934966,0.0423256049225443));
#1573=CARTESIAN_POINT('',(0.005,0.0152194720934966,0.0419387449559016));
#1574=CARTESIAN_POINT('',(0.005,0.0152194720934966,0.041312864630551));
#1575=CARTESIAN_POINT('',(0.005,0.0137194720934966,0.041312864630551));
#1576=CARTESIAN_POINT('',(0.005,0.0120814503618485,0.0408739580303714));
#1577=CARTESIAN_POINT('',(0.,0.0132194720934966,0.0324387449559016));
#1578=CARTESIAN_POINT('',(0.,0.0152194720934966,0.0324387449559016));
#1579=CARTESIAN_POINT('',(0.,0.00804063379114895,0.0414228576348893));
#1580=CARTESIAN_POINT('',(0.,0.00623535941450895,0.0396175832582493));
#1581=CARTESIAN_POINT('',(0.,0.00897700400449864,0.0402510168506735));
#1582=CARTESIAN_POINT('',(0.,0.0102760421101753,0.0410010168506735));
#1583=CARTESIAN_POINT('',(0.,0.0104694720934966,0.0406659862918538));
#1584=CARTESIAN_POINT('',(0.,0.0107824122561719,0.0401239580303714));
#1585=CARTESIAN_POINT('',(0.,0.0120814503618485,0.0408739580303714));
#1586=CARTESIAN_POINT('',(0.,0.0137194720934966,0.041312864630551));
#1587=CARTESIAN_POINT('',(0.,0.0152194720934966,0.041312864630551));
#1588=CARTESIAN_POINT('',(0.,0.0152194720934966,0.0419387449559016));
#1589=CARTESIAN_POINT('',(0.,0.0152194720934966,0.0423256049225443));
#1590=CARTESIAN_POINT('',(0.,0.0167194720934966,0.0423256049225443));
#1591=CARTESIAN_POINT('',(0.,0.0169444720934966,0.0438086339175406));
#1592=CARTESIAN_POINT('',(0.,0.0152194720934966,0.0324387449559016));
#1593=CARTESIAN_POINT('',(0.,0.0194105227527879,0.0431478576348893));
#1594=CARTESIAN_POINT('',(0.,0.0188638639711412,0.0417510168506735));
#1595=CARTESIAN_POINT('',(0.,0.0201629020768179,0.0410010168506735));
#1596=CARTESIAN_POINT('',(0.,0.0199694720934966,0.0406659862918538));
#1597=CARTESIAN_POINT('',(0.,0.0196565319308213,0.0401239580303713));
#1598=CARTESIAN_POINT('',(0.,0.020955570036498,0.0393739580303713));
#1599=CARTESIAN_POINT('',(0.,0.0221546851679663,0.038174842898903));
#1600=CARTESIAN_POINT('',(0.,0.0229046851679663,0.0368758047932264));
#1601=CARTESIAN_POINT('',(0.,0.0234467134294487,0.0371887449559017));
#1602=CARTESIAN_POINT('',(0.,0.0237817439882685,0.037382174939223));
#1603=CARTESIAN_POINT('',(0.,0.0245317439882685,0.0360831368335462));
#1604=CARTESIAN_POINT('',(0.,0.0259285847724842,0.036629795615193));
#1605=CARTESIAN_POINT('',(0.,0.0152194720934966,0.0324387449559016));
#1606=CARTESIAN_POINT('',(0.,0.0265893610551355,0.0341637449559016));
#1607=CARTESIAN_POINT('',(0.,0.0251063320601392,0.0339387449559016));
#1608=CARTESIAN_POINT('',(0.,0.0251063320601392,0.0324387449559016));
#1609=CARTESIAN_POINT('',(0.,0.0247194720934966,0.0324387449559016));
#1610=CARTESIAN_POINT('',(0.,0.024093591768146,0.0324387449559016));
#1611=CARTESIAN_POINT('',(0.,0.024093591768146,0.0309387449559016));
#1612=CARTESIAN_POINT('',(0.,0.0236546851679663,0.0293007232242536));
#1613=CARTESIAN_POINT('',(0.,0.0229046851679663,0.0280016851185769));
#1614=CARTESIAN_POINT('',(0.,0.0234467134294487,0.0276887449559017));
#1615=CARTESIAN_POINT('',(0.,0.0237817439882685,0.0274953149725804));
#1616=CARTESIAN_POINT('',(0.,0.0230317439882685,0.0261962768669037));
#1617=CARTESIAN_POINT('',(0.,0.0242035847724843,0.025259906653554));
#1618=CARTESIAN_POINT('',(0.,0.0152194720934966,0.0324387449559016));
#1619=CARTESIAN_POINT('',(0.,0.0223983103958442,0.023454632276914));
#1620=CARTESIAN_POINT('',(0.,0.0214619401824945,0.0246264730611297));
#1621=CARTESIAN_POINT('',(0.,0.0201629020768179,0.0238764730611297));
#1622=CARTESIAN_POINT('',(0.,0.0199694720934966,0.0242115036199494));
#1623=CARTESIAN_POINT('',(0.,0.0196565319308213,0.024753531881432));
#1624=CARTESIAN_POINT('',(0.,0.0183574938251446,0.0240035318814319));
#1625=CARTESIAN_POINT('',(0.,0.0167194720934966,0.0235646252812522));
#1626=CARTESIAN_POINT('',(0.,0.0152194720934966,0.0235646252812522));
#1627=CARTESIAN_POINT('',(0.,0.0152194720934966,0.0229387449559016));
#1628=CARTESIAN_POINT('',(0.,0.0152194720934966,0.0225518849892591));
#1629=CARTESIAN_POINT('',(0.,0.0137194720934966,0.0225518849892591));
#1630=CARTESIAN_POINT('',(0.,0.0134944720934966,0.0210688559942626));
#1631=CARTESIAN_POINT('',(0.,0.0152194720934966,0.0324387449559016));
#1632=CARTESIAN_POINT('',(0.,0.0110284214342052,0.021729632276914));
#1633=CARTESIAN_POINT('',(0.,0.0115750802158519,0.0231264730611298));
#1634=CARTESIAN_POINT('',(0.,0.0102760421101753,0.0238764730611298));
#1635=CARTESIAN_POINT('',(0.,0.0104694720934966,0.0242115036199494));
#1636=CARTESIAN_POINT('',(0.,0.0107824122561719,0.024753531881432));
#1637=CARTESIAN_POINT('',(0.,0.00948337415049521,0.025503531881432));
#1638=CARTESIAN_POINT('',(0.,0.00828425901902689,0.0267026470129002));
#1639=CARTESIAN_POINT('',(0.,0.00753425901902689,0.0280016851185769));
#1640=CARTESIAN_POINT('',(0.,0.00699223075754442,0.0276887449559017));
#1641=CARTESIAN_POINT('',(0.,0.00665720019872473,0.0274953149725804));
#1642=CARTESIAN_POINT('',(0.,0.00590720019872473,0.028794353078257));
#1643=CARTESIAN_POINT('',(0.,0.00451035941450896,0.0282476942966103));
#1644=CARTESIAN_POINT('',(0.,0.0152194720934966,0.0324387449559016));
#1645=CARTESIAN_POINT('',(0.,0.0038495831318576,0.0307137449559017));
#1646=CARTESIAN_POINT('',(0.,0.00533261212685399,0.0309387449559017));
#1647=CARTESIAN_POINT('',(0.,0.00533261212685399,0.0324387449559016));
#1648=CARTESIAN_POINT('',(0.,0.00571947209349658,0.0324387449559016));
#1649=CARTESIAN_POINT('',(0.,0.00634535241884716,0.0324387449559016));
#1650=CARTESIAN_POINT('',(0.,0.00634535241884716,0.0339387449559016));
#1651=CARTESIAN_POINT('',(0.,0.00678425901902688,0.0355767666875497));
#1652=CARTESIAN_POINT('',(0.,0.00753425901902688,0.0368758047932264));
#1653=CARTESIAN_POINT('',(0.,0.00699223075754442,0.0371887449559017));
#1654=CARTESIAN_POINT('',(0.,0.00665720019872474,0.037382174939223));
#1655=CARTESIAN_POINT('',(0.,0.00740720019872473,0.0386812130448996));
#1656=CARTESIAN_POINT('',(0.005,0.00571947209349658,0.0324387449559016));
#1657=CARTESIAN_POINT('',(0.005,0.00533261212685399,0.0324387449559016));
#1658=CARTESIAN_POINT('',(0.,0.00634535241884716,0.0324387449559016));
#1659=CARTESIAN_POINT('',(0.005,0.0152194720934966,0.0324387449559016));
#1660=CARTESIAN_POINT('',(0.005,0.0038495831318576,0.0307137449559017));
#1661=CARTESIAN_POINT('',(0.005,0.00451035941450895,0.0282476942966103));
#1662=CARTESIAN_POINT('',(0.005,0.00699223075754442,0.0276887449559017));
#1663=CARTESIAN_POINT('',(0.,0.00665720019872473,0.0274953149725804));
#1664=CARTESIAN_POINT('',(0.005,0.00753425901902689,0.0280016851185769));
#1665=CARTESIAN_POINT('',(0.005,0.00533261212685399,0.0309387449559017));
#1666=CARTESIAN_POINT('',(0.005,0.00590720019872473,0.028794353078257));
#1667=CARTESIAN_POINT('',(0.005,0.00634535241884716,0.0339387449559016));
#1668=CARTESIAN_POINT('',(0.005,0.00828425901902689,0.0267026470129002));
#1669=CARTESIAN_POINT('',(0.005,0.0104694720934966,0.0242115036199494));
#1670=CARTESIAN_POINT('',(0.005,0.0102760421101753,0.0238764730611298));
#1671=CARTESIAN_POINT('',(0.,0.0107824122561719,0.024753531881432));
#1672=CARTESIAN_POINT('',(0.005,0.0152194720934966,0.0324387449559016));
#1673=CARTESIAN_POINT('',(0.005,0.0110284214342052,0.021729632276914));
#1674=CARTESIAN_POINT('',(0.005,0.0134944720934966,0.0210688559942626));
#1675=CARTESIAN_POINT('',(0.005,0.0152194720934966,0.0229387449559016));
#1676=CARTESIAN_POINT('',(0.,0.0152194720934966,0.0225518849892591));
#1677=CARTESIAN_POINT('',(0.005,0.0152194720934966,0.0235646252812522));
#1678=CARTESIAN_POINT('',(0.005,0.0115750802158519,0.0231264730611298));
#1679=CARTESIAN_POINT('',(0.005,0.0137194720934966,0.0225518849892591));
#1680=CARTESIAN_POINT('',(0.005,0.00948337415049521,0.025503531881432));
#1681=CARTESIAN_POINT('',(0.005,0.0167194720934966,0.0235646252812522));
#1682=CARTESIAN_POINT('',(0.005,0.0199694720934966,0.0242115036199494));
#1683=CARTESIAN_POINT('',(0.005,0.0201629020768179,0.0238764730611297));
#1684=CARTESIAN_POINT('',(0.,0.0196565319308213,0.024753531881432));
#1685=CARTESIAN_POINT('',(0.005,0.0152194720934966,0.0324387449559016));
#1686=CARTESIAN_POINT('',(0.005,0.0223983103958442,0.023454632276914));
#1687=CARTESIAN_POINT('',(0.005,0.0242035847724843,0.025259906653554));
#1688=CARTESIAN_POINT('',(0.005,0.0234467134294487,0.0276887449559017));
#1689=CARTESIAN_POINT('',(0.,0.0237817439882685,0.0274953149725804));
#1690=CARTESIAN_POINT('',(0.005,0.0229046851679663,0.0280016851185769));
#1691=CARTESIAN_POINT('',(0.005,0.0214619401824945,0.0246264730611297));
#1692=CARTESIAN_POINT('',(0.005,0.0230317439882685,0.0261962768669037));
#1693=CARTESIAN_POINT('',(0.005,0.0183574938251446,0.0240035318814319));
#1694=CARTESIAN_POINT('',(0.005,0.0236546851679663,0.0293007232242536));
#1695=CARTESIAN_POINT('',(0.005,0.0247194720934966,0.0324387449559016));
#1696=CARTESIAN_POINT('',(0.005,0.0251063320601392,0.0324387449559016));
#1697=CARTESIAN_POINT('',(0.,0.024093591768146,0.0324387449559016));
#1698=CARTESIAN_POINT('',(0.005,0.0152194720934966,0.0324387449559016));
#1699=CARTESIAN_POINT('',(0.005,0.0265893610551355,0.0341637449559016));
#1700=CARTESIAN_POINT('',(0.005,0.0259285847724842,0.036629795615193));
#1701=CARTESIAN_POINT('',(0.005,0.0234467134294487,0.0371887449559017));
#1702=CARTESIAN_POINT('',(0.,0.0237817439882685,0.037382174939223));
#1703=CARTESIAN_POINT('',(0.005,0.0229046851679663,0.0368758047932264));
#1704=CARTESIAN_POINT('',(0.005,0.0251063320601392,0.0339387449559016));
#1705=CARTESIAN_POINT('',(0.005,0.0245317439882685,0.0360831368335462));
#1706=CARTESIAN_POINT('',(0.005,0.024093591768146,0.0309387449559016));
#1707=CARTESIAN_POINT('',(0.005,0.0221546851679663,0.038174842898903));
#1708=CARTESIAN_POINT('',(0.005,0.0199694720934966,0.0406659862918538));
#1709=CARTESIAN_POINT('',(0.005,0.0201629020768179,0.0410010168506735));
#1710=CARTESIAN_POINT('',(0.,0.0196565319308213,0.0401239580303713));
#1711=CARTESIAN_POINT('',(0.005,0.0152194720934966,0.0324387449559016));
#1712=CARTESIAN_POINT('',(0.005,0.0194105227527879,0.0431478576348893));
#1713=CARTESIAN_POINT('',(0.005,0.0169444720934966,0.0438086339175406));
#1714=CARTESIAN_POINT('',(0.005,0.0152194720934966,0.0419387449559016));
#1715=CARTESIAN_POINT('',(0.,0.0152194720934966,0.0423256049225443));
#1716=CARTESIAN_POINT('',(0.005,0.0152194720934966,0.041312864630551));
#1717=CARTESIAN_POINT('',(0.005,0.0188638639711412,0.0417510168506735));
#1718=CARTESIAN_POINT('',(0.005,0.0167194720934966,0.0423256049225443));
#1719=CARTESIAN_POINT('',(0.005,0.020955570036498,0.0393739580303713));
#1720=CARTESIAN_POINT('',(0.005,0.0137194720934966,0.041312864630551));
#1721=CARTESIAN_POINT('',(0.005,0.0104694720934966,0.0406659862918538));
#1722=CARTESIAN_POINT('',(0.005,0.0102760421101753,0.0410010168506735));
#1723=CARTESIAN_POINT('',(0.,0.0107824122561719,0.0401239580303714));
#1724=CARTESIAN_POINT('',(0.005,0.0152194720934966,0.0324387449559016));
#1725=CARTESIAN_POINT('',(0.005,0.00804063379114895,0.0414228576348893));
#1726=CARTESIAN_POINT('',(0.005,0.00623535941450895,0.0396175832582493));
#1727=CARTESIAN_POINT('',(0.005,0.00699223075754442,0.0371887449559017));
#1728=CARTESIAN_POINT('',(0.,0.00665720019872474,0.037382174939223));
#1729=CARTESIAN_POINT('',(0.005,0.00753425901902688,0.0368758047932264));
#1730=CARTESIAN_POINT('',(0.005,0.00897700400449864,0.0402510168506735));
#1731=CARTESIAN_POINT('',(0.005,0.00740720019872473,0.0386812130448996));
#1732=CARTESIAN_POINT('',(0.005,0.0120814503618485,0.0408739580303714));
#1733=CARTESIAN_POINT('',(0.005,0.00678425901902688,0.0355767666875497));
#1734=MECHANICAL_DESIGN_GEOMETRIC_PRESENTATION_REPRESENTATION('',(#977),
#1735);
#1735=(
GEOMETRIC_REPRESENTATION_CONTEXT(3)
GLOBAL_UNCERTAINTY_ASSIGNED_CONTEXT((#1736))
GLOBAL_UNIT_ASSIGNED_CONTEXT((#1739,#1738,#1737))
REPRESENTATION_CONTEXT('Part 3','TOP_LEVEL_ASSEMBLY_PART')
);
#1736=UNCERTAINTY_MEASURE_WITH_UNIT(LENGTH_MEASURE(1.E-8),#1739,
'DISTANCE_ACCURACY_VALUE','Maximum Tolerance applied to model');
#1737=(
NAMED_UNIT(*)
SI_UNIT($,.STERADIAN.)
SOLID_ANGLE_UNIT()
);
#1738=(
NAMED_UNIT(*)
PLANE_ANGLE_UNIT()
SI_UNIT($,.RADIAN.)
);
#1739=(
LENGTH_UNIT()
NAMED_UNIT(*)
SI_UNIT($,.METRE.)
);
#1740=PRODUCT_DEFINITION_SHAPE('','',#1741);
#1741=PRODUCT_DEFINITION('','',#1743,#1742);
#1742=PRODUCT_DEFINITION_CONTEXT('',#1749,'design');
#1743=PRODUCT_DEFINITION_FORMATION_WITH_SPECIFIED_SOURCE('','',#1745,
 .NOT_KNOWN.);
#1744=PRODUCT_RELATED_PRODUCT_CATEGORY('','',(#1745));
#1745=PRODUCT('Part 3','Part 3','Part 3',(#1747));
#1746=PRODUCT_CATEGORY('','');
#1747=PRODUCT_CONTEXT('',#1749,'mechanical');
#1748=APPLICATION_PROTOCOL_DEFINITION('international standard',
'ap242_managed_model_based_3d_engineering',2020,#1749);
#1749=APPLICATION_CONTEXT('managed model based 3d engineering');
ENDSEC;
END-ISO-10303-21;
